#N canvas 0 25 618 394 10;
#X msg 77 325 \; aleixo size \$1 \$2;
#X obj 87 292 pack;
#X floatatom 76 266 5 0 0 0 - - -;
#X obj 289 446 f;
#X msg 267 425 bang;
#X floatatom 305 424 3 -10 10 0 - - -;
#X floatatom 340 446 3 -10 10 0 - - -;
#X obj 289 469 pack 0 0;
#X text 333 424 x-delta;
#X text 367 446 y-delta;
#X obj 51 506 f;
#X msg 29 485 bang;
#X floatatom 67 484 3 0 2 0 - - -;
#X floatatom 102 506 3 4 36 0 - - -;
#X obj 51 529 pack 0 0;
#X text 95 484 font;
#X text 131 506 height;
#X msg 51 555 \; foo10_rcv label_font \$1 \$2;
#X msg 28 595 \; foo10_rcv label blabla;
#X msg 28 631 \; foo10_rcv label my_canvas;
#X msg 289 494 \; foo10_rcv delta \$1 \$2;
#X obj 453 42 f;
#X msg 431 21 bang;
#X floatatom 469 20 3 20 60 0 - - -;
#X obj 289 327 metro 100;
#X obj 27 15 cnv 12 250 110 empty aleixobg texto 0 22 0 14 -261682
-262144 0;
#X msg 70 195 \; aleixo label \$1;
#X symbolatom 69 165 10 0 0 0 - - -;
#X obj 270 307 tgl 15 0 empty empty empty 17 7 0 10 -262144 -1 -1 1
1;
#X floatatom 360 328 5 0 0 0 - - -;
#X msg 452 90 \; aleixo pos \$1 \$2;
#X floatatom 500 6 5 0 0 0 - - -;
#X obj 12 15 cnv 6 6 110 empty aleixo aleixo 0 22 0 14 -84126 -262144
0;
#X obj 453 65 pack 0 15;
#X obj 292 355 counter 280;
#X connect 1 0 0 0;
#X connect 2 0 1 0;
#X connect 3 0 7 0;
#X connect 4 0 3 0;
#X connect 5 0 3 1;
#X connect 6 0 7 1;
#X connect 7 0 20 0;
#X connect 10 0 14 0;
#X connect 11 0 10 0;
#X connect 12 0 10 1;
#X connect 13 0 14 1;
#X connect 14 0 17 0;
#X connect 21 0 33 0;
#X connect 22 0 21 0;
#X connect 23 0 21 1;
#X connect 24 0 34 0;
#X connect 27 0 26 0;
#X connect 28 0 24 0;
#X connect 29 0 24 1;
#X connect 31 0 21 1;
#X connect 33 0 30 0;
#X connect 34 0 31 0;
#X connect 34 0 22 0;
