#N canvas 62 47 558 369 16;
#X obj 44 -8 inlet;
#X obj 61 111 sel cague;
#X msg 48 177 caguei;
#X msg 150 153 nao_caguei;
#X obj 69 345 outlet;
#X obj 60 54 unpack s f;
#X obj 149 259 sprintf %s%dvezes;
#X connect 0 0 5 0;
#X connect 1 0 2 0;
#X connect 1 1 3 0;
#X connect 2 0 6 0;
#X connect 3 0 6 0;
#X connect 5 0 1 0;
#X connect 5 1 6 1;
#X connect 6 0 4 0;
