#N canvas 161 116 450 300 16;
#X obj 66 128 cagao;
#X msg 60 85 cague \$1;
#X floatatom 72 37 5 0 0 0 - - -;
#X obj 64 164 prepend set;
#X msg 63 204 caguei21vezes;
#X msg 184 81 nao \$1;
#X floatatom 184 41 5 0 0 0 - - -;
#X connect 0 0 3 0;
#X connect 1 0 0 0;
#X connect 2 0 1 0;
#X connect 3 0 4 0;
#X connect 5 0 0 0;
#X connect 6 0 5 0;
