#N canvas 0 0 611 391 10;
#X obj 90 205 cnv 15 100 100 empty empty empty 20 12 0 14 -258699 -66577
0;
#X obj 239 336 bng 15 250 50 0 empty empty empty 0 -6 0 8 -262144 -1
-1;
#X msg 239 223 record;
#X msg 241 245 stop;
#X msg 239 202 play;
#X msg 241 265 print;
#X msg 241 285 write chart.txt;
#X msg 242 305 read chart.txt;
#X msg 238 179 tempo \$1;
#X floatatom 238 162 5 0 0 0 - - -;
#X text 29 397 This one is an interface to qlist.;
#X msg 236 143 loop \$1;
#X obj 236 125 tgl 15 0 empty empty empty 0 -6 0 8 -262144 -1 -1 0
1;
#X floatatom 74 139 5 0 0 0 - - -;
#X msg 74 156 a \$1;
#X floatatom 112 140 5 0 0 0 - - -;
#X msg 112 157 b \$1;
#X text 26 465 If you want to save your chart \, you will need the
unique id to be the same when you open your patch again and read the
file. Therefore \, I recommend using a symbol or a number as a unique
id \, instead of a dollar-0.;
#X text 308 181 1 is the original speed;
#X text 261 336 Banged when done;
#X text 204 96 GNU public license v2.0;
#X text 420 13 Messages to be recorded;
#X obj 188 -5 cnv 15 15 15 empty empty seq.qtrack 20 12 0 24 -262144
-66577 0;
#X obj 41 78 cnv 15 400 1 empty empty empty 20 12 0 14 -66577 -66577
0;
#X text 27 418 You can record a sequence of any list. It will be played
back with the same timing. You can use arbitrary selectors and lists
of any length.;
#X obj 92 241 seq.qtrack id;
#X text 39 26 seq.qtrack <unique id>;
#X text 40 40 Description: Can record any stream of messages and play
it back at different speeds in loop or not.;
#X text 29 532 Comments: This patch is quite powerful and you should
really think about using it if you want to play back complex rhythms
and such. It wraps qlist.;
#X text 30 580 Todo: create a multitrack version;
#X text 203 81 Author: Alexandre Quessy 2006;
#X obj 525 132 r jx1;
#X floatatom 524 156 5 0 0 0 - - -;
#X floatatom 515 221 5 0 0 0 - - -;
#X obj 515 197 r jx2;
#X obj 412 102 hsl 128 15 0 256 0 0 empty empty empty -2 -6 0 8 -262144
-1 -1 6350 1;
#X text 407 85 Messages to be recorded;
#X obj 96 316 route a b;
#X msg 422 49 a \$1;
#X msg 409 121 b \$1;
#X obj 423 30 hsl 128 15 0 256 0 0 empty empty empty -2 -6 0 8 -262144
-1 -1 6350 1;
#X obj 420 307 hsl 128 15 0 256 0 0 empty empty empty -2 -6 0 8 -262144
-1 -1 6350 1;
#X obj 420 326 hsl 128 15 0 256 0 0 empty empty empty -2 -6 0 8 -262144
-1 -1 6350 1;
#X obj 348 212 r rec;
#X obj 401 230 r stop;
#X obj 450 260 r play;
#X obj 347 236 sel 1;
#X obj 330 239 bng 15 250 50 0 empty empty empty 17 7 0 10 -262144
-1 -1;
#X obj 395 261 sel 1;
#X obj 378 264 bng 15 250 50 0 empty empty empty 17 7 0 10 -262144
-1 -1;
#X obj 459 284 sel 1;
#X obj 442 287 bng 15 250 50 0 empty empty empty 17 7 0 10 -262144
-1 -1;
#X connect 2 0 25 1;
#X connect 3 0 25 1;
#X connect 4 0 25 1;
#X connect 5 0 25 1;
#X connect 6 0 25 1;
#X connect 7 0 25 1;
#X connect 8 0 25 1;
#X connect 9 0 8 0;
#X connect 11 0 25 1;
#X connect 12 0 11 0;
#X connect 13 0 14 0;
#X connect 14 0 25 0;
#X connect 15 0 16 0;
#X connect 16 0 25 0;
#X connect 25 0 37 0;
#X connect 25 1 1 0;
#X connect 31 0 32 0;
#X connect 31 0 40 0;
#X connect 34 0 33 0;
#X connect 34 0 35 0;
#X connect 35 0 39 0;
#X connect 37 0 42 0;
#X connect 37 1 41 0;
#X connect 38 0 25 0;
#X connect 39 0 25 0;
#X connect 40 0 38 0;
#X connect 43 0 46 0;
#X connect 44 0 48 0;
#X connect 45 0 50 0;
#X connect 46 0 47 0;
#X connect 46 0 2 0;
#X connect 48 0 49 0;
#X connect 48 0 3 0;
#X connect 50 0 51 0;
#X connect 50 0 4 0;
