#N canvas 0 26 1024 661 10;
#X obj 265 611 dac~;
#X obj 304 561 vsl 8 64 0 1 0 1 empty empty empty 0 -8 0 8 -260818
-1 -1 5900 1;
#X obj 265 587 *~;
#X obj 68 158 cnv 15 580 220 empty empty empty 20 12 0 14 -195568 -66577
0;
#N canvas 0 0 450 300 (subpatch) 0;
#X array sample 105944 float 0;
#X coords 0 1 105943 -1 560 100 1;
#X restore 77 52 graph;
#X msg 346 506 read -resize /usr/local/lib/pd/doc/sound/voice.wav sample
;
#X obj 346 526 soundfiler;
#X obj 346 547 s length;
#X obj 346 485 loadbang;
#X obj 77 172 hsl 560 15 0 1 0 0 empty empty time-position -2 -6 0
8 -233017 -1 -1 27447 1;
#X obj 214 222 vsl 15 128 0.5 2 1 0 empty empty pitch-shift 0 -8 0
8 -261681 -1 -1 9675 1;
#X msg 182 203 1;
#X floatatom 214 356 5 0 0 0 - - -;
#X obj 280 222 vsl 15 128 0 1 0 0 empty empty phase-locking 0 -8 0
8 -225280 -1 -1 3000 1;
#X floatatom 280 356 5 0 0 0 - - -;
#X obj 74 532 line~;
#X msg 74 510 \$1 200;
#X obj 74 488 *;
#X obj 90 423 r length;
#X obj 226 551 lop~ 10;
#X msg 433 486 read -resize \$1 sample;
#X obj 433 466 openpanel;
#X obj 548 337 bng 32 250 50 0 empty empty empty 0 -6 0 8 -260818 -1
-1;
#X msg 280 457 locking \$1;
#X msg 99 447 setarray sample;
#X msg 380 292 transients 0 6227 35716 53368;
#X msg 380 314 notransients;
#X text 380 275 de-smear transients at these locations;
#X text 546 319 load a sample;
#X obj 226 531 sig~ 1;
#X msg 125 261 0.5;
#X msg 125 281 1;
#X msg 125 301 2;
#X msg 125 341 4;
#X msg 125 510 0 \, 4.41e+06 \$1;
#X obj 125 399 * 100000;
#X msg 125 321 3;
#X obj 99 571 pvoc~ sample 2048 4;
#X msg 310 7 \; sample normalize \$1;
#X obj 455 25 hsl 128 15 0 3 0 0 empty empty empty -2 -8 0 10 -262144
-1 -1 6700 1;
#X floatatom 32 335 5 0 0 0 - - -;
#X obj 19 171 vsl 15 128 0 3 0 0 empty empty empty 0 -9 0 10 -262144
-1 -1 0 1;
#X obj 6 127 counter 1000;
#X obj 8 99 metro 10;
#X obj 8 65 tgl 15 0 empty empty empty 17 7 0 10 -262144 -1 -1 1 1
;
#X floatatom 47 73 5 0 0 0 - - -;
#X obj 22 155 / 1000;
#X obj 25 17 random 3;
#X obj 754 295 templater escala;
#X obj 812 409 list-dripslow;
#X obj 812 379 metro 100;
#X obj 812 354 tgl 15 0 empty empty empty 17 7 0 10 -262144 -1 -1 1
1;
#X floatatom 863 328 5 0 0 0 - - -;
#X obj 755 447 autoscale 0.5 2;
#X msg 905 408 -2 0 3 6 7;
#X connect 1 0 2 1;
#X connect 2 0 0 0;
#X connect 2 0 0 1;
#X connect 5 0 6 0;
#X connect 6 0 7 0;
#X connect 8 0 5 0;
#X connect 9 0 17 0;
#X connect 10 0 12 0;
#X connect 11 0 10 0;
#X connect 12 0 29 0;
#X connect 13 0 14 0;
#X connect 14 0 23 0;
#X connect 15 0 37 0;
#X connect 16 0 15 0;
#X connect 17 0 16 0;
#X connect 18 0 17 1;
#X connect 18 0 24 0;
#X connect 19 0 37 1;
#X connect 20 0 6 0;
#X connect 21 0 20 0;
#X connect 22 0 21 0;
#X connect 23 0 37 0;
#X connect 24 0 37 0;
#X connect 25 0 37 0;
#X connect 26 0 37 0;
#X connect 29 0 19 0;
#X connect 30 0 35 0;
#X connect 31 0 35 0;
#X connect 32 0 35 0;
#X connect 33 0 35 0;
#X connect 34 0 15 0;
#X connect 35 0 34 0;
#X connect 36 0 35 0;
#X connect 37 0 2 0;
#X connect 39 0 38 0;
#X connect 40 0 35 0;
#X connect 41 0 40 0;
#X connect 42 0 46 0;
#X connect 43 0 42 0;
#X connect 43 0 47 0;
#X connect 44 0 43 0;
#X connect 45 0 43 1;
#X connect 46 0 9 0;
#X connect 49 0 53 0;
#X connect 49 1 54 0;
#X connect 50 0 49 0;
#X connect 51 0 50 0;
#X connect 52 0 50 1;
#X connect 53 0 10 0;
#X connect 54 0 49 1;
