#N canvas 0 0 450 301 36;
#X obj 164 252 dac~;
#X obj 138 169 unison4;
#X obj 98 45 * 127;
#X obj 96 -11 r a0;
#X obj 292 38 dsp;
#X obj 297 8 tgl 15 0 empty empty empty 17 7 0 10 -262144 -1 -1 1 1
;
#X obj 103 102 changemorethan 2;
#X connect 1 0 0 0;
#X connect 2 0 6 0;
#X connect 3 0 2 0;
#X connect 5 0 4 0;
#X connect 6 0 1 0;
