#N canvas 234 231 450 300 10;
#X msg 103 112 +;
#X msg 138 112 -;
#X msg 168 113 *;
#X msg 196 113 /;
#X obj 156 158 l2s;
#X obj 156 185 outlet;
#X msg 225 113 n;
#X obj 53 20 inlet;
#X obj 56 42 t b;
#X obj 153 41 symbol \$1;
#X symbolatom 280 93 10 0 0 0 - - -;
#X obj 160 19 bng 15 250 50 0 empty empty empty 17 7 0 10 -262144 -1
-1;
#X obj 152 67 sel + - * /;
#X connect 0 0 4 0;
#X connect 1 0 4 0;
#X connect 2 0 4 0;
#X connect 3 0 4 0;
#X connect 4 0 5 0;
#X connect 6 0 4 0;
#X connect 7 0 8 0;
#X connect 8 0 9 0;
#X connect 9 0 10 0;
#X connect 9 0 12 0;
#X connect 11 0 9 0;
#X connect 12 0 0 0;
#X connect 12 1 1 0;
#X connect 12 2 2 0;
#X connect 12 3 3 0;
#X connect 12 4 6 0;
