#N canvas 0 26 800 493 16;
#X obj 130 371 ezdac~;
#X obj 97 310 unison;
#X obj 195 310 unison;
#X obj 218 11 bng 15 250 50 0 empty empty empty 17 7 0 10 -262144 -1
-1;
#N canvas 0 26 800 493 cantusfirmus 0;
#X obj 53 25 inlet;
#X obj 336 37 inlet;
#X obj -17 427 outlet;
#X obj 139 427 outlet;
#X obj 61 153 table \$0-scale;
#X obj 128 99 s \$0-scale;
#X msg 134 48 0 0 2 4 5 7 9 11;
#X obj -37 105 until;
#X obj -17 395 prepend set;
#X obj -39 193 tabread \$0-scale;
#X obj 134 18 loadbang;
#X obj -37 222 +;
#X obj -29 11 inlet;
#X msg -31 72 5;
#X obj -42 142 random 5;
#X obj -41 254 serialize 5;
#X obj -4 314 unpack f f f f f;
#X obj -17 358 pack f f f f f f f;
#X msg 175 208 0;
#X obj -26 37 t b b;
#X obj 115 265 +;
#X obj 187 288 t f f;
#X connect 0 0 11 1;
#X connect 0 0 20 1;
#X connect 1 0 5 0;
#X connect 6 0 5 0;
#X connect 7 0 14 0;
#X connect 8 0 2 0;
#X connect 9 0 11 0;
#X connect 10 0 6 0;
#X connect 11 0 15 0;
#X connect 12 0 19 0;
#X connect 13 0 7 0;
#X connect 14 0 9 0;
#X connect 15 0 16 0;
#X connect 16 0 17 1;
#X connect 16 1 17 2;
#X connect 16 2 17 3;
#X connect 16 3 17 4;
#X connect 16 4 17 5;
#X connect 17 0 8 0;
#X connect 17 0 3 0;
#X connect 18 0 20 0;
#X connect 19 0 18 0;
#X connect 19 1 13 0;
#X connect 20 0 21 0;
#X connect 21 0 17 0;
#X connect 21 1 17 6;
#X restore 222 39 pd cantusfirmus;
#X floatatom 294 12 5 0 0 0 - - -;
#X msg 22 62 36 36 40 38 38 43 36;
#X msg 370 -34 0 0 2 4 5 7 9 11;
#X text 406 -59 major;
#X text 591 -58 minor;
#X msg 557 -33 0 0 2 3 5 7 8 11;
#X obj 530 172 cnv 15 25 170 empty time empty 20 12 0 14 -261234 -66577
0;
#N canvas 0 0 450 300 (subpatch) 0;
#X array \$0-firmus 7 float 3;
#A 0 36 36 40 38 38 43 36;
#X coords 0 60 7 24 200 70 1;
#X restore 529 272 graph;
#N canvas 0 0 450 300 (subpatch) 0;
#X array \$0-contra 7 float 3;
#A 0 64 60 60 67 60 62 62;
#X coords 0 96 7 48 200 70 1;
#X restore 529 171 graph;
#N canvas 0 0 505 414 timeline 0;
#X msg -32 122 \; time pos \$1 172;
#X obj -32 86 + 530;
#X obj -22 53 * 28.5;
#X obj -18 22 inlet;
#X obj 152 196 tabread \$0-contra;
#X obj -30 196 tabread \$0-firmus;
#X obj -25 231 outlet;
#X obj 151 229 outlet;
#X obj 54 265 outlet;
#X obj 62 231 pitch;
#X obj 220 265 outlet;
#X obj 228 231 pitch;
#X connect 1 0 0 0;
#X connect 2 0 1 0;
#X connect 3 0 2 0;
#X connect 3 0 5 0;
#X connect 3 0 4 0;
#X connect 4 0 7 0;
#X connect 4 0 11 0;
#X connect 5 0 6 0;
#X connect 5 0 9 0;
#X connect 9 1 8 0;
#X connect 11 1 10 0;
#X restore 345 260 pd timeline;
#X floatatom 378 210 5 0 0 0 - - -;
#X floatatom 321 287 5 0 0 0 - - -;
#X floatatom 426 288 5 0 0 0 - - -;
#X obj 389 187 hradio 15 1 0 7 empty empty empty 0 -8 0 10 -262144
-1 -1 0;
#X symbolatom 514 248 4 0 0 0 - - -;
#X symbolatom 514 146 4 0 0 0 - - -;
#X floatatom 150 279 5 0 0 0 - - -;
#X floatatom 243 278 5 0 0 0 - - -;
#N canvas 0 0 450 300 contra 0;
#X obj 28 130 prepend 0;
#X obj 21 162 s \$0-contra;
#X obj 29 102 inlet;
#X connect 0 0 1 0;
#X connect 2 0 0 0;
#X restore 224 160 pd contra;
#N canvas 0 0 158 134 firmus 0;
#X obj -113 55 prepend 0;
#X obj -113 86 s \$0-firmus;
#X obj -110 24 inlet;
#X connect 0 0 1 0;
#X connect 2 0 0 0;
#X restore 370 74 pd firmus;
#N canvas 0 0 477 311 gaveta 0;
#X obj 33 13 list-sect;
#X obj 29 56 list-unique;
#X obj 39 96 list-shuffle;
#X obj 57 203 list-sub;
#X obj 71 246 list-add;
#X obj 31 136 choose-intervals;
#X obj 187 211 list-dripslow;
#X obj 187 184 bng 15 250 50 0 empty empty empty 17 7 0 10 -262144
-1 -1;
#X obj 305 252 bng 15 250 50 0 empty empty empty 17 7 0 10 -262144
-1 -1;
#X connect 6 1 8 0;
#X connect 7 0 6 0;
#X restore 7 -48 pd gaveta;
#N canvas 298 70 450 300 regras 0;
#X obj 86 33 inlet;
#X obj 80 221 outlet;
#X obj 91 156 list-math + 24;
#X connect 0 0 2 0;
#X connect 2 0 1 0;
#X restore 230 122 pd regras;
#X connect 1 0 0 0;
#X connect 2 0 0 1;
#X connect 3 0 4 0;
#X connect 4 0 6 0;
#X connect 4 1 24 0;
#X connect 4 1 26 0;
#X connect 5 0 4 1;
#X connect 7 0 4 2;
#X connect 10 0 4 2;
#X connect 14 0 16 0;
#X connect 14 1 19 0;
#X connect 14 2 17 0;
#X connect 14 3 20 0;
#X connect 15 0 14 0;
#X connect 16 0 1 0;
#X connect 17 0 2 0;
#X connect 18 0 15 0;
#X connect 21 0 1 2;
#X connect 22 0 2 2;
#X connect 26 0 23 0;
