#N canvas 0 26 1024 661 24;
#X obj 217 610 dac~;
#X obj 645 40 adc~;
#X obj 522 145 noise~;
#X floatatom 659 116 0 0 0 0 - - -;
#X text 684 157 <-- center frequency;
#X obj 620 204 bp~ 100 10;
#X floatatom 808 120 0 0 0 0 - - -;
#X floatatom 67 453 5 0 0 0 - - -;
#X obj 191 552 *~;
#X obj 718 490 hsl 128 15 0 1 0 0 empty empty empty -2 -8 0 10 -262144
-1 -1 0 1;
#X floatatom 706 521 5 0 0 0 - - -;
#X obj 751 441 knob 32 32 0 1 0 0 empty empty empty 0 -8 0 8 -262144
-4034 -1 0 1;
#X obj 135 496 square~;
#X msg 31 283 0;
#X msg 97 283 4;
#X msg 163 282 5;
#X msg 238 274 7;
#X obj 56 34 tgl 30 0 empty empty empty 17 7 0 10 -262144 -1 -1 0 1
;
#X floatatom 127 39 5 0 0 0 - - -;
#X obj 49 95 metro 1000;
#X floatatom 206 64 5 0 0 0 - - -;
#X obj 51 133 random 4;
#X obj 53 172 sel 0 1 2 3;
#X obj 17 216 bng 15 250 50 0 empty empty empty 17 7 0 10 -262144 -1
-1;
#X obj 68 225 bng 15 250 50 0 empty empty empty 17 7 0 10 -262144 -1
-1;
#X obj 122 223 bng 15 250 50 0 empty empty empty 17 7 0 10 -262144
-1 -1;
#X obj 164 222 bng 15 250 50 0 empty empty empty 17 7 0 10 -262144
-1 -1;
#X obj 66 413 mtof;
#X obj 300 166 random 4;
#X obj 302 205 sel 0 1 2 3;
#X msg 309 252 24;
#X msg 428 253 60;
#X msg 369 252 36;
#X obj 64 354 +;
#X msg 482 254 72;
#X obj 199 392 moses 60;
#X floatatom 304 430 5 0 0 0 - - -;
#X floatatom 204 436 5 0 0 0 - - -;
#X obj 308 487 osc~;
#X obj 340 458 mtof;
#X obj 264 556 *~;
#X obj 503 546 hsl 128 15 0 1 0 0 empty empty empty -2 -8 0 10 -262144
-1 -1 0 1;
#X floatatom 491 577 5 0 0 0 - - -;
#X msg 945 361 72;
#X obj 381 310 random 4;
#X obj 383 349 sel 0 1 2 3;
#X msg 390 396 24;
#X msg 509 397 60;
#X msg 450 396 36;
#X msg 563 398 72;
#X obj 467 461 unison4;
#X obj 498 77 bonk~;
#X obj 647 287 adc~;
#X floatatom 657 411 5 0 0 0 - - -;
#X msg 788 259 thresh 6 50;
#X obj 833 415 snapshot~;
#X floatatom 834 457 5 0 0 0 - - -;
#X connect 2 0 5 0;
#X connect 3 0 5 1;
#X connect 5 0 0 0;
#X connect 6 0 5 2;
#X connect 7 0 12 0;
#X connect 8 0 0 0;
#X connect 9 0 10 0;
#X connect 9 0 8 1;
#X connect 11 0 9 0;
#X connect 12 0 8 0;
#X connect 13 0 33 0;
#X connect 14 0 33 0;
#X connect 15 0 33 0;
#X connect 16 0 33 0;
#X connect 17 0 18 0;
#X connect 17 0 19 0;
#X connect 19 0 21 0;
#X connect 19 0 28 0;
#X connect 19 0 44 0;
#X connect 20 0 19 1;
#X connect 21 0 22 0;
#X connect 22 0 13 0;
#X connect 22 0 23 0;
#X connect 22 1 14 0;
#X connect 22 1 24 0;
#X connect 22 2 15 0;
#X connect 22 2 25 0;
#X connect 22 3 16 0;
#X connect 22 3 26 0;
#X connect 27 0 7 0;
#X connect 28 0 29 0;
#X connect 29 0 30 0;
#X connect 29 1 32 0;
#X connect 29 2 31 0;
#X connect 29 3 34 0;
#X connect 30 0 33 1;
#X connect 31 0 33 1;
#X connect 32 0 33 1;
#X connect 33 0 35 0;
#X connect 34 0 33 1;
#X connect 35 0 37 0;
#X connect 35 1 36 0;
#X connect 36 0 39 0;
#X connect 37 0 27 0;
#X connect 38 0 40 0;
#X connect 39 0 38 0;
#X connect 40 0 0 1;
#X connect 41 0 42 0;
#X connect 41 0 40 1;
#X connect 44 0 45 0;
#X connect 45 0 46 0;
#X connect 45 1 48 0;
#X connect 45 2 47 0;
#X connect 45 3 49 0;
#X connect 46 0 50 0;
#X connect 47 0 50 2;
#X connect 48 0 50 1;
#X connect 49 0 50 3;
#X connect 50 0 0 0;
#X connect 50 0 0 1;
#X connect 52 0 55 0;
#X connect 52 0 0 0;
#X connect 55 0 56 0;
