#N canvas 0 26 1024 661 10;
#N canvas 120 0 691 629 (subpatch) 0;
#X array NOME_da_TABELA 515 float 2;
#X coords 0 1 515 -1 200 140 1;
#X restore -29 -511 graph;
#N canvas 384 95 606 505 leescreve 0;
#X obj 102 102 cnv 15 120 45 empty empty empty 20 12 0 14 -203904 -66577
0;
#X obj 103 116 hradio 15 1 0 8 empty empty read_file 0 -8 1 12 -159808
-1 -1 6;
#X symbolatom 103 132 19 0 0 0 - - -;
#X msg 215 208 clear;
#X msg 115 208 rewind;
#X msg 161 208 read \$1;
#X obj 107 154 t b b s b;
#X obj 96 250 textfile;
#X obj 124 416 s NOME_da_TABELA;
#X obj 98 74 makefilename arq%d.txt;
#X obj 303 420 outlet;
#X obj 303 298 list length;
#X msg 218 345 resize \$1;
#X obj 303 327 - 1;
#X obj 124 281 t l l;
#X connect 1 0 9 0;
#X connect 2 0 6 0;
#X connect 3 0 7 0;
#X connect 4 0 7 0;
#X connect 5 0 7 0;
#X connect 6 0 7 0;
#X connect 6 1 4 0;
#X connect 6 2 5 0;
#X connect 6 3 3 0;
#X connect 7 0 14 0;
#X connect 9 0 2 0;
#X connect 11 0 13 0;
#X connect 12 0 8 0;
#X connect 13 0 12 0;
#X connect 13 0 10 0;
#X connect 14 0 8 0;
#X connect 14 1 11 0;
#X coords 0 -1 1 1 125 50 2 100 100;
#X restore 175 -495 pd leescreve;
#N canvas 0 0 595 519 leescreve 0;
#X obj 102 102 cnv 15 120 45 empty empty empty 20 12 0 14 -258113 -66577
0;
#X obj 103 116 hradio 15 1 0 8 empty empty write_file 0 -8 1 12 -252673
-188481 -261234 5;
#X symbolatom 103 132 19 0 0 0 - - -;
#X obj 134 325 textfile;
#X obj 126 256 prepend 0;
#X obj 126 275 prepend add;
#X msg 34 308 write \$1;
#X msg 234 308 clear;
#X obj 106 208 t s b b;
#X obj 124 235 tabdump NOME_da_TABELA;
#X obj 161 62 makefilename arq%d.txt;
#X connect 1 0 10 0;
#X connect 2 0 8 0;
#X connect 4 0 5 0;
#X connect 5 0 3 0;
#X connect 6 0 3 0;
#X connect 7 0 3 0;
#X connect 8 0 6 0;
#X connect 8 1 9 0;
#X connect 8 2 7 0;
#X connect 9 0 4 0;
#X connect 10 0 2 0;
#X coords 0 -1 1 1 125 50 2 100 100;
#X restore 176 -441 pd leescreve;
#X msg -21 -344 \; NOME_da_TABELA const 0;
#X obj -20 -269 s NOME_da_TABELA;
#X msg -20 -294 const 0;
#X obj -21 -212 s NOME_da_TABELA;
#X msg 94 -229 cosinesum 0 -0.2 -0.2 0.2 -0.2 0.2 -0.2 0.2;
#X msg 95 -249 normalize 1;
#X obj 316 -469 soundfiler;
#X msg 316 -492 read -resize /home/glerm/samples/y1.wav NOME_da_TABELA
;
#X msg 315 -438 \; NOME_da_TABELA normalize 1;
#X floatatom 220 -317 5 0 0 0 - - -;
#X msg 139 -199 0 0.5 1 0.3 -0.5 -1;
#X msg 139 -176 resize 516;
#X msg 139 -153 resize 5;
#X connect 1 0 12 0;
#X connect 5 0 4 0;
#X connect 7 0 6 0;
#X connect 8 0 6 0;
#X connect 10 0 9 0;
#X connect 13 0 6 0;
#X connect 14 0 6 0;
#X connect 15 0 6 0;
