#N canvas 0 26 1024 661 10;
#N canvas 120 0 691 629 (subpatch) 0;
#X array NOME_da_TABELA 158976 float 2;
#X coords 0 1 158976 -1 200 140 1;
#X restore -29 -511 graph;
#N canvas 384 95 606 505 leescreve 0;
#X obj 102 102 cnv 15 120 45 empty empty empty 20 12 0 14 -203904 -66577
0;
#X obj 103 116 hradio 15 1 0 8 empty empty read_file 0 -8 1 12 -159808
-1 -1 7;
#X symbolatom 103 132 19 0 0 0 - - -;
#X msg 215 208 clear;
#X msg 115 208 rewind;
#X msg 161 208 read \$1;
#X obj 107 154 t b b s b;
#X obj 96 250 textfile;
#X obj 124 416 s NOME_da_TABELA;
#X obj 98 74 makefilename arq%d.txt;
#X obj 303 420 outlet;
#X obj 303 298 list length;
#X msg 218 345 resize \$1;
#X obj 303 327 - 1;
#X obj 124 281 t l l;
#X connect 1 0 9 0;
#X connect 2 0 6 0;
#X connect 3 0 7 0;
#X connect 4 0 7 0;
#X connect 5 0 7 0;
#X connect 6 0 7 0;
#X connect 6 1 4 0;
#X connect 6 2 5 0;
#X connect 6 3 3 0;
#X connect 7 0 14 0;
#X connect 9 0 2 0;
#X connect 11 0 13 0;
#X connect 12 0 8 0;
#X connect 13 0 12 0;
#X connect 13 0 10 0;
#X connect 14 0 8 0;
#X connect 14 1 11 0;
#X coords 0 -1 1 1 125 50 2 100 100;
#X restore 175 -495 pd leescreve;
#N canvas 0 0 595 519 leescreve 0;
#X obj 102 102 cnv 15 120 45 empty empty empty 20 12 0 14 -258113 -66577
0;
#X obj 103 116 hradio 15 1 0 8 empty empty write_file 0 -8 1 12 -252673
-188481 -261234 0;
#X symbolatom 103 132 19 0 0 0 - - -;
#X obj 134 325 textfile;
#X obj 126 256 prepend 0;
#X obj 126 275 prepend add;
#X msg 34 308 write \$1;
#X msg 234 308 clear;
#X obj 106 208 t s b b;
#X obj 124 235 tabdump NOME_da_TABELA;
#X obj 161 62 makefilename arq%d.txt;
#X connect 1 0 10 0;
#X connect 2 0 8 0;
#X connect 4 0 5 0;
#X connect 5 0 3 0;
#X connect 6 0 3 0;
#X connect 7 0 3 0;
#X connect 8 0 6 0;
#X connect 8 1 9 0;
#X connect 8 2 7 0;
#X connect 9 0 4 0;
#X connect 10 0 2 0;
#X coords 0 -1 1 1 125 50 2 100 100;
#X restore 176 -441 pd leescreve;
#X msg -21 -344 \; NOME_da_TABELA const 0;
#X obj -20 -269 s NOME_da_TABELA;
#X msg -20 -294 const 0;
#X obj -21 -212 s NOME_da_TABELA;
#X msg 94 -229 cosinesum 0 -0.2 -0.2 0.2 -0.2 0.2 -0.2 0.2;
#X msg 95 -249 normalize 1;
#X obj 316 -469 soundfiler;
#X msg 315 -438 \; NOME_da_TABELA normalize 1;
#X floatatom 220 -317 10 0 0 0 - - -;
#X msg 139 -199 0 0.5 1 0.3 -0.5 -1;
#X msg 139 -176 resize 516;
#X msg 139 -153 resize 5;
#X floatatom 238 -271 10 0 0 0 - - -;
#X obj 435 -325 phasor~;
#X obj 436 -132 ezdac~;
#X floatatom 435 -352 5 0 0 0 - - -;
#X obj 437 -240 tabread4~ NOME_da_TABELA;
#X obj 436 -270 *~;
#X obj 585 -408 wavinfo;
#X floatatom 518 -345 20 0 0 3 samples - -;
#X floatatom 668 -345 5 0 0 3 channels - -;
#X floatatom 735 -344 5 0 0 3 sample_size - -;
#X floatatom 820 -344 5 0 0 3 bitrate - -;
#X msg 585 -449 /home/glerm/samples/y1.wav;
#X obj 583 -428 l2s;
#X obj 227 -294 / 44100;
#X msg 515 -287 158976;
#X obj 591 -178 tabplay~ NOME_da_TABELA;
#X obj 435 -296 spigot~;
#X obj 496 -308 tgl 15 0 empty empty empty 17 7 0 10 -262144 -1 -1
1 1;
#X obj 594 -204 bng 15 250 50 0 empty empty empty 17 7 0 10 -262144
-1 -1;
#X obj 608 -248 * 0.1;
#X floatatom 613 -228 5 0 0 0 - - -;
#X msg 466 -267 48000;
#X obj 580 -271 / 48000;
#X msg 315 -506 read -resize /home/glerm/samples/y1.wav NOME_da_TABELA
;
#X msg 627 -292 48000;
#X msg 632 -272 44100;
#X connect 1 0 11 0;
#X connect 5 0 4 0;
#X connect 7 0 6 0;
#X connect 8 0 6 0;
#X connect 11 0 28 0;
#X connect 12 0 6 0;
#X connect 13 0 6 0;
#X connect 14 0 6 0;
#X connect 16 0 31 0;
#X connect 18 0 16 0;
#X connect 19 0 17 0;
#X connect 19 0 17 1;
#X connect 20 0 19 0;
#X connect 21 0 22 0;
#X connect 21 1 23 0;
#X connect 21 2 24 0;
#X connect 21 3 25 0;
#X connect 26 0 27 0;
#X connect 27 0 21 0;
#X connect 28 0 15 0;
#X connect 29 0 20 1;
#X connect 29 0 37 0;
#X connect 30 0 17 0;
#X connect 30 0 17 1;
#X connect 31 0 20 0;
#X connect 32 0 31 1;
#X connect 33 0 30 0;
#X connect 34 0 35 0;
#X connect 34 0 18 0;
#X connect 36 0 20 1;
#X connect 37 0 34 0;
#X connect 38 0 9 0;
#X connect 39 0 37 1;
#X connect 40 0 37 1;
