#N canvas 0 26 1024 661 16;
#N canvas 0 0 450 300 (subpatch) 0;
#X array sample 81955 float 2;
#X coords 0 1 81955 -1 200 140 1;
#X restore 38 -14 graph;
#X obj 343 137 soundfiler;
#X obj 65 199 openpanel;
#X obj 66 256 prepend set;
#X msg 66 319 /home/glerm/samples/espelhoriff.wav;
#X obj 64 164 bng 15 250 50 0 empty empty empty 17 7 0 10 -262144 -1
-1;
#X msg 311 49 read -resize /home/glerm/samples/espelhoriff.wav sample
;
#X obj 530 389 dac~;
#X obj 529 354 *~;
#X floatatom 576 355 5 0 0 0 - - -;
#X obj 597 335 hsl 128 15 0 1 0 0 empty empty empty -2 -8 0 10 -262144
-1 -1 6800 1;
#X obj 390 268 tabplay~ sample;
#X obj 395 235 bng 15 250 50 0 empty empty empty 17 7 0 10 -262144
-1 -1;
#X obj 578 203 line~;
#X floatatom 578 100 0 0 100 0 - - -;
#X obj 578 178 pack 0 100;
#X text 613 101 <-- read point in 100ths of a second;
#X obj 578 154 * 480;
#X obj 578 238 tabread4~ sample;
#X obj 783 212 count 100;
#X obj 782 173 metro 1;
#X obj 783 146 tgl 15 0 empty empty empty 17 7 0 10 -262144 -1 -1 0
1;
#X floatatom 865 164 5 0 0 0 - - -;
#X connect 2 0 3 0;
#X connect 3 0 4 0;
#X connect 5 0 2 0;
#X connect 6 0 1 0;
#X connect 8 0 7 0;
#X connect 8 0 7 1;
#X connect 10 0 9 0;
#X connect 10 0 8 1;
#X connect 11 0 8 0;
#X connect 12 0 11 0;
#X connect 13 0 18 0;
#X connect 14 0 17 0;
#X connect 15 0 13 0;
#X connect 17 0 15 0;
#X connect 18 0 8 0;
#X connect 19 0 14 0;
#X connect 20 0 19 0;
#X connect 21 0 20 0;
#X connect 22 0 20 1;
