#N canvas 0 26 1024 661 36;
#X msg 785 340 dsp 0;
#X msg 782 401 dsp 1;
#X obj 725 495 s pd;
#X obj 160 560 dac~;
#X obj 398 446 snapshot~;
#X floatatom 425 502 5 0 0 0 - - -;
#X obj 542 373 bng 15 250 50 0 empty empty empty 17 7 0 10 -262144
-1 -1;
#X obj 810 168 metro 100;
#X obj 811 147 tgl 15 0 empty empty empty 17 7 0 10 -262144 -1 -1 0
1;
#X obj 705 146 vsl 30 256 -1 1 0 0 empty empty empty 0 -9 0 10 -262144
-1 -1 7518 1;
#X obj 145 78 metro;
#X floatatom 298 28 5 0 0 0 - - -;
#X obj 131 19 tgl 50 0 empty empty empty 17 7 0 10 -262144 -1 -1 0
1;
#X obj 79 146 bng 50 250 50 0 empty empty empty 17 7 0 10 -262144 -1
-1;
#X floatatom 531 83 5 0 0 0 - - -;
#X obj 162 140 random 5;
#X obj 174 202 sel 0 1 2 3 4;
#X floatatom 707 39 5 0 0 0 - - -;
#X msg 549 11 60;
#X obj 168 343 snare;
#X obj 172 318 bng 15 250 50 0 empty empty empty 17 7 0 10 -262144
-1 -1;
#X obj 203 297 bng 15 250 50 0 empty empty empty 17 7 0 10 -262144
-1 -1;
#X obj 178 458 *~;
#X obj 260 407 hsl 128 15 0 2 0 0 empty empty empty -2 -8 0 10 -262144
-1 -1 9200 1;
#X floatatom 269 477 5 0 0 0 - - -;
#X obj 229 298 bng 15 250 50 0 empty empty empty 17 7 0 10 -262144
-1 -1;
#X obj 263 299 bng 15 250 50 0 empty empty empty 17 7 0 10 -262144
-1 -1;
#X connect 0 0 2 0;
#X connect 1 0 2 0;
#X connect 4 0 5 0;
#X connect 4 0 9 0;
#X connect 6 0 4 0;
#X connect 7 0 6 0;
#X connect 8 0 7 0;
#X connect 10 0 13 0;
#X connect 10 0 15 0;
#X connect 11 0 10 1;
#X connect 12 0 10 0;
#X connect 15 0 14 0;
#X connect 15 0 16 0;
#X connect 18 0 17 0;
#X connect 19 0 22 0;
#X connect 20 0 19 0;
#X connect 21 0 19 1;
#X connect 22 0 3 0;
#X connect 23 0 24 0;
#X connect 23 0 22 1;
#X connect 25 0 19 2;
#X connect 26 0 19 3;
