#N canvas 0 0 450 300 12;
#X obj -123 71 list-map2;
#X obj -121 102 prepend set;
#X msg -107 130 -3 3 2;
#X msg -11 19 3 3 1;
#X obj -16 67 -;
#X msg -112 19 0 6 3;
#X msg 110 32 36 40 38 41 44 47 36;
#X obj 69 64 list-map;
#X obj 170 63 % 12;
#X obj 70 93 prepend set;
#X msg 84 121 0 4 2 5 8 11 0;
#X text -13 89 regra;
#X text -122 0 operador;
#X text -5 -1 operando;
#X text 178 82 regra;
#X connect 0 0 1 0;
#X connect 0 1 4 0;
#X connect 1 0 2 0;
#X connect 3 0 0 1;
#X connect 4 0 0 2;
#X connect 5 0 0 0;
#X connect 6 0 7 0;
#X connect 7 0 9 0;
#X connect 7 1 8 0;
#X connect 8 0 7 1;
#X connect 9 0 10 0;
