#N canvas 0 26 779 472 24;
#X obj 651 272 int;
#X obj 697 29 float;
#X floatatom 681 219 5 0 0 0 - - -;
#X floatatom 650 331 5 0 0 0 - - -;
#X obj 634 236 bng 15 250 50 0 empty empty empty 17 7 0 10 -262144
-1 -1;
#X obj 422 235 symbol;
#X symbolatom 497 187 10 0 0 0 - - -;
#X symbolatom 500 272 10 0 0 0 - - -;
#X obj 424 210 bng 15 250 50 0 empty empty empty 17 7 0 10 -262144
-1 -1;
#X obj 473 41 list;
#X obj 473 77 unpack f f f;
#X floatatom 474 118 5 0 0 0 - - -;
#X floatatom 554 121 5 0 0 0 - - -;
#X floatatom 637 125 5 0 0 0 - - -;
#X obj 473 8 bng 15 250 50 0 empty empty empty 17 7 0 10 -262144 -1
-1;
#X msg 524 -11 23 43 45;
#X msg 534 -59 0 6 7;
#X floatatom 744 -15 5 0 0 0 - - -;
#X floatatom 698 81 5 0 0 0 - - -;
#X obj 692 -10 bng 15 250 50 0 empty empty empty 17 7 0 10 -262144
-1 -1;
#N canvas 0 0 450 300 (subpatch) 0;
#X array tab 5 float 3;
#A 0 79 0 79 60 0;
#X coords 0 127 5 0 200 140 1;
#X restore 65 325 graph;
#X floatatom 506 329 5 0 0 0 - - -;
#X floatatom 616 416 5 0 0 0 - - -;
#X obj 512 374 tabread tab;
#X obj 11 170 s tab;
#X obj 106 133 pack f f f f f;
#X floatatom 22 83 5 0 0 0 - - -;
#X obj 21 42 random 127;
#X obj 22 -16 metro 100;
#X obj 22 -41 tgl 15 0 empty empty empty 17 7 0 10 -262144 -1 -1 0
1;
#X floatatom 180 86 5 0 0 0 - - -;
#X obj 179 45 random 127;
#X msg 312 -145 0 \$1 \$5 \$1 60 \$5;
#X text 554 -289 ________;
#X floatatom 143 -243 5 0 0 0 - - -;
#X floatatom 114 -191 5 0 0 0 - - -;
#X floatatom 549 -217 5 0 0 0 - - -;
#X floatatom 416 -207 5 0 0 0 - - -;
#X obj 55 -346 expr if ($f1 > 12 \, $f1 * 2 \, $f2) \; if ($f1 > 12
\, $f1 * 2 \, $f2) \; if ($f1 > 12 \, $f1 * 2 \, $f2) \;;
#X obj 225 -4 tabwrite tab;
#X floatatom 399 -36 5 0 0 0 - - -;
#X floatatom 235 -48 5 0 0 0 - - -;
#X obj 284 278 tabdump tab;
#X obj 295 242 bng 15 250 50 0 empty empty empty 17 7 0 10 -262144
-1 -1;
#X obj 285 366 prepend set;
#X obj 286 323 prepend truque;
#X msg 289 404 63 77 63 60 77;
#X msg 349 152 \, 12 \, 12 \, 12 \, 12 \, 12;
#X msg 339 91 addcomma \, add2 12;
#X msg 36 262 \; tab 0 \$1 \$5 \$1 60 \$5;
#X obj 46 -149 list;
#X obj 53 -112 prepend set;
#X msg 57 -75 0 17 21 17 60 21;
#X obj 46 -178 bng 15 250 50 0 empty empty empty 17 7 0 10 -262144
-1 -1;
#X obj 219 697 textfile;
#X text 430 791 ______________;
#X msg 296 522 clear;
#X msg 297 478 rewind;
#X msg 299 561 bang;
#X msg 317 602 print;
#X msg 329 644 read /tmp/file.txt;
#X msg 357 690 write /tmp/file.txt;
#X connect 0 0 3 0;
#X connect 1 0 18 0;
#X connect 2 0 0 1;
#X connect 4 0 0 0;
#X connect 5 0 7 0;
#X connect 6 0 5 1;
#X connect 8 0 5 0;
#X connect 9 0 10 0;
#X connect 10 0 11 0;
#X connect 10 1 12 0;
#X connect 10 2 13 0;
#X connect 14 0 9 0;
#X connect 15 0 9 1;
#X connect 16 0 9 1;
#X connect 17 0 1 1;
#X connect 19 0 1 0;
#X connect 21 0 23 0;
#X connect 23 0 22 0;
#X connect 25 0 32 0;
#X connect 26 0 25 0;
#X connect 27 0 26 0;
#X connect 28 0 27 0;
#X connect 28 0 31 0;
#X connect 29 0 28 0;
#X connect 30 0 25 4;
#X connect 31 0 30 0;
#X connect 32 0 50 1;
#X connect 34 0 38 0;
#X connect 36 0 38 1;
#X connect 38 0 35 0;
#X connect 38 1 37 0;
#X connect 40 0 39 1;
#X connect 41 0 39 0;
#X connect 42 0 45 0;
#X connect 43 0 42 0;
#X connect 44 0 46 0;
#X connect 45 0 44 0;
#X connect 48 0 47 0;
#X connect 50 0 51 0;
#X connect 51 0 52 0;
#X connect 53 0 50 0;
#X connect 56 0 54 0;
#X connect 57 0 54 0;
#X connect 58 0 54 0;
#X connect 59 0 54 0;
#X connect 60 0 54 0;
#X connect 61 0 54 0;
