#N canvas 0 26 1024 661 36;
#X obj 272 185 pack s f f f;
#X obj 254 257 unpack s f f f;
#X symbolatom 86 128 20 0 0 0 - - -;
#X symbolatom 51 404 40 0 0 0 - - -;
#X floatatom 336 320 5 0 0 0 - - -;
#X floatatom 480 338 5 0 0 0 - - -;
#X floatatom 620 339 5 0 0 0 - - -;
#X floatatom 750 149 5 0 0 0 - - -;
#X floatatom 670 92 5 0 0 0 - - -;
#X floatatom 559 34 5 0 0 0 - - -;
#X obj 734 251 pitch;
#X obj 98 71 openpanel;
#X obj 113 45 bng 15 250 50 0 empty empty empty 17 7 0 10 -262144 -1
-1;
#X symbolatom 764 309 10 0 0 0 - - -;
#X msg 68 553 /vmlinuz.old 69 48 55;
#X obj 164 492 prepend set;
#X connect 0 0 1 0;
#X connect 0 0 15 0;
#X connect 1 0 3 0;
#X connect 1 1 4 0;
#X connect 1 2 5 0;
#X connect 1 3 6 0;
#X connect 2 0 0 0;
#X connect 7 0 0 3;
#X connect 7 0 10 0;
#X connect 8 0 0 2;
#X connect 8 0 10 0;
#X connect 9 0 0 1;
#X connect 9 0 10 0;
#X connect 10 1 13 0;
#X connect 11 0 2 0;
#X connect 12 0 11 0;
#X connect 15 0 14 0;
