#N canvas 0 26 1024 661 10;
#X obj 139 207 cnv 15 100 60 empty tela texto 20 12 0 14 -241291 -262144
0;
#X obj 301 384 s tela;
#X msg 244 320 label texto;
#X obj 614 171 color.rgbset;
#X msg 342 324 color 45;
#X msg 608 343 color -9.99386e+06 -1 -1;
#X msg 428 401 vis_size \$1 \$2;
#X floatatom 419 241 5 0 0 0 - - -;
#X msg 425 340 pos \$1 \$2;
#X obj 424 299 pack f f;
#X floatatom 468 238 5 0 0 0 - - -;
#X obj 445 275 bng 15 250 50 0 empty empty empty 17 7 0 10 -262144
-1 -1;
#X obj 430 128 metro 1000;
#X obj 378 174 random 500;
#X obj 462 177 random 500;
#X obj 437 99 tgl 15 0 empty empty empty 17 7 0 10 -262144 -1 -1 0
1;
#X floatatom 536 134 5 0 0 0 - - -;
#X obj 571 428 unpack f f;
#X floatatom 575 462 5 0 0 0 - - -;
#X floatatom 629 456 5 0 0 0 - - -;
#X connect 2 0 1 0;
#X connect 3 1 5 0;
#X connect 4 0 1 0;
#X connect 6 0 1 0;
#X connect 7 0 9 0;
#X connect 8 0 1 0;
#X connect 9 0 8 0;
#X connect 9 0 17 0;
#X connect 10 0 9 1;
#X connect 10 0 11 0;
#X connect 11 0 9 0;
#X connect 12 0 13 0;
#X connect 12 0 14 0;
#X connect 13 0 7 0;
#X connect 14 0 10 0;
#X connect 15 0 12 0;
#X connect 16 0 12 1;
#X connect 17 0 18 0;
#X connect 17 1 19 0;
