#N canvas 0 26 1024 661 10;
#N canvas 0 0 450 300 (subpatch) 0;
#X array array1 20 float 3;
#A 0 -0.19685 0.228346 0.181102 -0.00787402 0 0 0 0 0 0 0 0 0 0 0 0
0 0 0 0;
#X coords 0 1 20 -1 200 140 1;
#X restore 186 33 graph;
#X msg 83 305 \; array1 sinesum 0 0.5 0 1;
#X msg 83 347 \; array;
#X msg 351 402 \; array1 resize \$1;
#X floatatom 357 379 5 0 0 0 - - -;
#X msg 309 301 \; array1 const 0;
#X msg 80 186 \; array1;
#X obj 509 233 tabwrite array1;
#X floatatom 500 195 5 0 0 0 - - -;
#X floatatom 592 193 5 0 0 0 - - -;
#X obj 496 140 hsl 128 15 -1 1 0 0 empty empty empty -2 -8 0 10 -262144
-1 -1 6300 1;
#X msg 471 305 \; array1;
#X connect 4 0 3 0;
#X connect 8 0 7 0;
#X connect 9 0 7 1;
#X connect 10 0 8 0;
