#N canvas 0 26 1024 661 24;
#X msg 113 75 alo 1 2 3;
#X obj 112 126 unpack s f f f;
#X symbolatom 38 198 10 0 0 0 - - -;
#X floatatom 199 193 5 0 0 0 - - -;
#X floatatom 277 177 5 0 0 0 - - -;
#X floatatom 351 160 5 0 0 0 - - -;
#X floatatom 242 243 5 0 0 0 - - -;
#X msg 118 371 add2 \$1;
#X floatatom 157 312 5 0 0 0 - - -;
#X msg 338 283;
#X msg 549 191 mundo;
#X obj 518 317 print;
#X obj 551 245 prepend alo;
#X msg 690 369 alo mundo;
#X obj 673 314 prepend set;
#X msg 110 432;
#X connect 0 0 1 0;
#X connect 1 0 2 0;
#X connect 1 1 3 0;
#X connect 1 2 4 0;
#X connect 1 3 5 0;
#X connect 7 0 15 0;
#X connect 8 0 7 0;
#X connect 10 0 12 0;
#X connect 12 0 11 0;
#X connect 12 0 14 0;
#X connect 14 0 13 0;
