#N canvas 0 0 899 519 36;
#X msg 115 422 open \$1;
#X obj 548 193 pack f f;
#X msg 483 377 60 127 \; 60 0 \;;
#X obj 478 302 prepend add;
#X msg 741 155 60;
#X obj 544 105 makenote 127 5000;
#X floatatom 24 115 5 0 0 0 - - -;
#X msg 10 -52 60;
#X msg 33 38 \$1;
#X floatatom 285 322 5 0 0 0 - - -;
#X msg 228 3 file.ogg;
#X obj 190 67 prepend open;
#X obj 236 143 unpack s s;
#X symbolatom 330 245 10 0 0 0 - - -;
#X symbolatom 80 242 10 0 0 0 - - -;
#X obj 469 -33 t b b;
#X obj 629 -11 print eu;
#X obj 493 42 print primeiro;
#X obj 440 -32 bng 15 250 50 0 empty empty empty 17 7 0 10 -262144
-1 -1;
#X connect 1 0 3 0;
#X connect 3 0 2 0;
#X connect 4 0 5 0;
#X connect 5 0 1 0;
#X connect 5 1 1 1;
#X connect 7 0 8 0;
#X connect 8 0 6 0;
#X connect 10 0 11 0;
#X connect 11 0 12 0;
#X connect 12 0 14 0;
#X connect 12 1 13 0;
#X connect 15 0 17 0;
#X connect 15 1 16 0;
#X connect 18 0 15 0;
