#N canvas 0 26 1003 661 36;
#X obj 77 -98 tgl 15 0 empty empty empty 17 7 0 10 -262144 -1 -1 0
1;
#X obj 107 17 bng 15 250 50 0 empty empty empty 17 7 0 10 -262144 -1
-1;
#X obj 289 563 dac~;
#X floatatom 266 298 5 0 0 0 - - -;
#X obj 272 442 *~ 0.5;
#X obj 359 -50 dsp;
#X obj 363 -80 tgl 15 0 empty empty empty 17 7 0 10 -262144 -1 -1 1
1;
#X obj 90 47 random 12;
#X floatatom 78 176 5 0 0 0 - - -;
#X floatatom 529 439 5 0 0 0 - - -;
#X obj 546 410 hsl 128 15 0 1 0 0 empty empty empty -2 -8 0 10 -262144
-1 -1 8000 1;
#X obj 75 -57 metro;
#X floatatom 184 -121 5 0 0 0 - - -;
#X obj 113 391 mtof;
#X obj 367 44 pitch;
#X symbolatom 559 8 10 0 0 0 - - -;
#X obj 76 298 + 48;
#X obj 64 239 deny 1 3 6 8 10 11;
#X obj 265 353 phasor~;
#X obj 292 151 spigot;
#X floatatom 293 94 5 0 0 0 - - -;
#X floatatom 598 302 5 0 0 0 - - -;
#X obj 448 132 tgl 50 0 empty empty empty 17 7 0 10 -262144 -1 -1 1
1;
#X obj 285 501 spigot~;
#X obj 498 490 tgl 50 0 empty empty empty 17 7 0 10 -262144 -1 -1 0
1;
#X connect 0 0 11 0;
#X connect 1 0 7 0;
#X connect 3 0 18 0;
#X connect 4 0 23 0;
#X connect 6 0 5 0;
#X connect 7 0 20 0;
#X connect 8 0 17 0;
#X connect 9 0 4 1;
#X connect 10 0 9 0;
#X connect 11 0 1 0;
#X connect 12 0 11 1;
#X connect 13 0 3 0;
#X connect 14 1 15 0;
#X connect 16 0 14 0;
#X connect 16 0 13 0;
#X connect 17 0 16 0;
#X connect 18 0 4 0;
#X connect 19 0 8 0;
#X connect 20 0 19 0;
#X connect 22 0 19 1;
#X connect 23 0 2 0;
#X connect 23 0 2 1;
#X connect 24 0 23 1;
