#N canvas 0 26 800 493 24;
#X obj 69 77 metro 100;
#X obj 74 54 tgl 15 0 empty empty empty 17 7 0 10 -262144 -1 -1 0 1
;
#X obj 278 248 moses 70;
#X obj 437 277 moses 90;
#X text 86 223 50%;
#N canvas 0 0 450 300 (subpatch) 0;
#X array array1 100 float 1;
#A 0 0 0 0 0 0 0 0 0 0 0 0 0 0 0 0 0 0 0 0 0 0 0 0 0 0 0 0 0 0 0 0
0 0 0 0 0 0 0 0 0 0 0 0 0 0 0 0 0 0 0 0 0 0 0 0 0 0 0 0 0 0 0 0 0 0
0 0 0 0 0 0 0 0 0 0 0 0 0 0 0 0 0 0 0 0 0 0 0 0 0 0 0 0 0 0 0 0 0 0
0;
#X coords 0 1 99 0 200 140 1;
#X restore 403 84 graph;
#X msg 116 -11 \; array1 cosinesum \$1 0 \$1;
#X obj 76 174 moses 50;
#X obj 81 125 random 100;
#X floatatom 124 357 5 0 0 0 - - -;
#X floatatom 200 359 5 0 0 0 - - -;
#X text 406 353 20%;
#X text 535 365 10%;
#X text 182 281 20%;
#X obj 95 426 tabwrite array1;
#X floatatom 294 362 5 0 0 0 - - -;
#X floatatom 439 384 5 0 0 0 - - -;
#X msg 315 301 0;
#X msg 538 321 0;
#X msg 536 38 \; array1 const 0;
#X msg 30 258 1;
#X msg 173 249 0;
#X connect 0 0 8 0;
#X connect 1 0 0 0;
#X connect 2 0 10 0;
#X connect 2 0 21 0;
#X connect 2 1 3 0;
#X connect 3 0 15 0;
#X connect 3 0 17 0;
#X connect 3 1 16 0;
#X connect 3 1 18 0;
#X connect 7 0 9 0;
#X connect 7 0 20 0;
#X connect 7 1 2 0;
#X connect 8 0 7 0;
#X connect 9 0 14 1;
#X connect 10 0 14 1;
#X connect 15 0 14 1;
#X connect 16 0 14 1;
#X connect 17 0 14 0;
#X connect 18 0 14 1;
#X connect 20 0 14 0;
#X connect 21 0 14 0;
