#N canvas 0 26 779 493 16;
#X obj 130 371 ezdac~;
#X msg 356 -83 0 0 2 3 5 7 8 11;
#X obj 530 50 cnv 15 22 357 empty time empty 20 12 0 14 -203904 -66577
0;
#N canvas 0 0 450 300 (subpatch) 0;
#X array \$0-baixo 8 float 2;
#X coords 0 24 8 0 200 70 1;
#X restore 529 339 graph;
#N canvas 0 101 771 414 timeline 0;
#X obj -32 86 + 530;
#X obj 34 10 inlet;
#X msg -32 122 \; time pos \$1 50;
#X obj -22 53 * 25;
#X obj -30 196 tabread \$0-baixo;
#X obj 152 196 tabread \$0-tenor;
#X obj 321 196 tabread \$0-contralto;
#X obj 531 196 tabread \$0-soprano;
#X obj 235 254 + 60;
#X obj 158 256 + 48;
#X obj 299 255 + 72;
#X obj 88 258 + 36;
#X obj -15 310 outlet;
#X obj 63 312 outlet;
#X obj 142 312 outlet;
#X obj 217 312 outlet;
#X obj 355 373 outlet;
#X obj 321 293 pitch;
#X obj 332 344 pack s s s s;
#X obj 382 293 pitch;
#X obj 444 292 pitch;
#X obj 505 292 pitch;
#X obj 356 324 bng 15 250 50 0 empty empty empty 17 7 0 10 -262144
-1 -1;
#X connect 0 0 2 0;
#X connect 1 0 3 0;
#X connect 1 0 4 0;
#X connect 1 0 5 0;
#X connect 1 0 6 0;
#X connect 1 0 7 0;
#X connect 3 0 0 0;
#X connect 4 0 11 0;
#X connect 5 0 9 0;
#X connect 6 0 8 0;
#X connect 7 0 10 0;
#X connect 8 0 14 0;
#X connect 8 0 20 0;
#X connect 9 0 13 0;
#X connect 9 0 19 0;
#X connect 10 0 15 0;
#X connect 10 0 21 0;
#X connect 11 0 12 0;
#X connect 11 0 17 0;
#X connect 17 1 18 0;
#X connect 18 0 16 0;
#X connect 19 1 18 1;
#X connect 19 1 22 0;
#X connect 20 1 18 2;
#X connect 20 1 22 0;
#X connect 21 1 18 3;
#X connect 21 1 22 0;
#X connect 22 0 18 0;
#X restore 137 174 pd timeline;
#X obj 139 155 hradio 15 1 0 8 empty empty empty 0 -8 0 10 -262144
-1 -1 0;
#X floatatom 229 256 5 0 0 0 - - -;
#X obj 129 309 unison4;
#X floatatom 47 255 5 0 0 0 - - -;
#X floatatom 109 252 5 0 0 0 - - -;
#X floatatom 169 253 5 0 0 0 - - -;
#X floatatom 274 320 5 0 0 0 - - -;
#N canvas 0 0 450 300 (subpatch) 0;
#X array \$0-tenor 8 float 2;
#X coords 0 24 8 0 200 70 1;
#X restore 529 247 graph;
#N canvas 0 0 450 300 (subpatch) 0;
#X array \$0-contralto 8 float 2;
#X coords 0 24 8 0 200 70 1;
#X restore 529 154 graph;
#N canvas 0 0 450 300 (subpatch) 0;
#X array \$0-soprano 8 float 2;
#X coords 0 24 8 0 200 70 1;
#X restore 529 52 graph;
#N canvas 207 101 574 356 vozes 0;
#X obj 24 172 s \$0-baixo;
#X obj 133 171 s \$0-tenor;
#X obj 243 170 s \$0-contralto;
#X obj 393 170 s \$0-soprano;
#X obj 24 141 prepend 0;
#X obj 24 111 inlet;
#X obj 135 142 prepend 0;
#X obj 135 112 inlet;
#X obj 253 138 prepend 0;
#X obj 253 108 inlet;
#X obj 364 139 prepend 0;
#X obj 364 109 inlet;
#X connect 4 0 0 0;
#X connect 5 0 4 0;
#X connect 6 0 1 0;
#X connect 7 0 6 0;
#X connect 8 0 2 0;
#X connect 9 0 8 0;
#X connect 10 0 3 0;
#X connect 11 0 10 0;
#X restore 370 107 pd vozes;
#X obj 647 -3 _;
#X msg 646 25 C2 E3 G4 C5;
#X floatatom 277 348 5 0 0 0 - - -;
#X floatatom 279 376 5 0 0 0 - - -;
#X floatatom 281 402 5 0 0 0 - - -;
#X msg 229 401 4 \$1;
#X msg 222 319 1 \$1;
#X msg 225 347 2 \$1;
#X msg 227 375 3 \$1;
#X text 236 294 timbres;
#X msg 337 401 load sf2;
#N canvas 0 0 450 300 qwerty 0;
#X obj 40 129 key;
#X obj 32 159 sel 113 119 101 114 116 121 117 105;
#X msg 32 188 0;
#X msg 76 188 1;
#X msg 120 188 2;
#X msg 163 189 3;
#X msg 206 190 4;
#X msg 250 190 5;
#X msg 294 190 6;
#X msg 337 191 7;
#X obj 138 219 spigot;
#X obj 141 250 outlet;
#X obj 2 3 tgl 15 1 empty empty empty 17 7 0 10 -262144 -1 -1 1 1;
#X connect 0 0 1 0;
#X connect 1 0 2 0;
#X connect 1 1 3 0;
#X connect 1 2 4 0;
#X connect 1 3 5 0;
#X connect 1 4 6 0;
#X connect 1 5 7 0;
#X connect 1 6 8 0;
#X connect 1 7 9 0;
#X connect 2 0 10 0;
#X connect 3 0 10 0;
#X connect 4 0 10 0;
#X connect 5 0 10 0;
#X connect 6 0 10 0;
#X connect 7 0 10 0;
#X connect 8 0 10 0;
#X connect 9 0 10 0;
#X connect 10 0 11 0;
#X connect 12 0 10 1;
#X coords 0 -1 1 1 20 20 2 0 0;
#X restore 143 127 pd qwerty;
#X text 167 125 liga_teclado;
#X text 698 -2 acorde;
#X obj 247 201 s a;
#X obj 648 -3 r a;
#N canvas 0 26 779 472 intervalos 0;
#X obj 103 150 nbx 2 20 -1e+37 1e+37 0 0 empty empty empty 0 -8 1 20
-262130 -4160 -1 4 256;
#X obj 149 150 nbx 2 20 -1e+37 1e+37 0 0 empty empty empty 0 -8 1 20
-262130 -4160 -1 3 256;
#X obj 195 150 nbx 2 20 -1e+37 1e+37 0 0 empty empty empty 0 -8 1 20
-262130 -4160 -1 3 256;
#X obj 241 150 nbx 2 20 -1e+37 1e+37 0 0 empty empty empty 0 -8 1 20
-262130 -4160 -1 4 256;
#X obj 287 150 nbx 2 20 -1e+37 1e+37 0 0 empty empty empty 0 -8 1 20
-262130 -4160 -1 4 256;
#X obj 333 150 nbx 2 20 -1e+37 1e+37 0 0 empty empty empty 0 -8 1 20
-262130 -4160 -1 3 256;
#X obj 379 150 nbx 2 20 -1e+37 1e+37 0 0 empty empty empty 0 -8 1 20
-262130 -4160 -1 3 256;
#X obj 425 150 nbx 2 20 -1e+37 1e+37 0 0 empty empty empty 0 -8 1 20
-262130 -4160 -1 4 256;
#X obj 103 172 nbx 2 20 -1e+37 1e+37 0 0 empty empty empty 0 -8 1 20
-191285 -189173 -1 7 256;
#X obj 104 195 nbx 2 20 -1e+37 1e+37 0 0 empty empty empty 0 -8 1 20
-201689 -191324 -1 0 256;
#X obj 149 172 nbx 2 20 -1e+37 1e+37 0 0 empty empty empty 0 -8 1 20
-191285 -189173 -1 7 256;
#X obj 196 172 nbx 2 20 -1e+37 1e+37 0 0 empty empty empty 0 -8 1 20
-191285 -189173 -1 7 256;
#X obj 242 172 nbx 2 20 -1e+37 1e+37 0 0 empty empty empty 0 -8 1 20
-191285 -189173 -1 7 256;
#X obj 288 172 nbx 2 20 -1e+37 1e+37 0 0 empty empty empty 0 -8 1 20
-191285 -189173 -1 7 256;
#X obj 334 172 nbx 2 20 -1e+37 1e+37 0 0 empty empty empty 0 -8 1 20
-191285 -189173 -1 7 256;
#X obj 381 172 nbx 2 20 -1e+37 1e+37 0 0 empty empty empty 0 -8 1 20
-191285 -189173 -1 6 256;
#X obj 427 172 nbx 2 20 -1e+37 1e+37 0 0 empty empty empty 0 -8 1 20
-191285 -189173 -1 7 256;
#X obj 150 195 nbx 2 20 -1e+37 1e+37 0 0 empty empty empty 0 -8 1 20
-201689 -191324 -1 10 256;
#X obj 196 195 nbx 2 20 -1e+37 1e+37 0 0 empty empty empty 0 -8 1 20
-201689 -191324 -1 10 256;
#X obj 242 195 nbx 2 20 -1e+37 1e+37 0 0 empty empty empty 0 -8 1 20
-201689 -191324 -1 11 256;
#X obj 288 195 nbx 2 20 -1e+37 1e+37 0 0 empty empty empty 0 -8 1 20
-201689 -191324 -1 10 256;
#X obj 334 195 nbx 2 20 -1e+37 1e+37 0 0 empty empty empty 0 -8 1 20
-201689 -191324 -1 10 256;
#X obj 380 195 nbx 2 20 -1e+37 1e+37 0 0 empty empty empty 0 -8 1 20
-201689 -191324 -1 10 256;
#X obj 426 195 nbx 2 20 -1e+37 1e+37 0 0 empty empty empty 0 -8 1 20
-201689 -191324 -1 12 256;
#X obj -163 243 pack f f f f f f f f;
#X obj 46 244 pack f f f f f f f f;
#X obj 254 251 pack f f f f f f f f;
#X obj 176 -195 inlet;
#X obj -80 -8 unpack f f f f f f f f;
#X obj 151 -12 unpack f f f f f f f f;
#X obj 378 -12 unpack f f f f f f f f;
#X obj 103 103 nbx 2 20 -1e+37 1e+37 0 0 empty empty empty 0 -8 1 20
-261889 -210305 -1 0 256;
#X obj 149 103 nbx 2 20 -1e+37 1e+37 0 0 empty empty empty 0 -8 1 20
-261889 -210305 -1 2 256;
#X obj 195 103 nbx 2 20 -1e+37 1e+37 0 0 empty empty empty 0 -8 1 20
-261889 -210305 -1 4 256;
#X obj 241 103 nbx 2 20 -1e+37 1e+37 0 0 empty empty empty 0 -8 1 20
-261889 -210305 -1 5 256;
#X obj 287 103 nbx 2 20 -1e+37 1e+37 0 0 empty empty empty 0 -8 1 20
-261889 -210305 -1 7 256;
#X obj 333 103 nbx 2 20 -1e+37 1e+37 0 0 empty empty empty 0 -8 1 20
-261889 -210305 -1 9 256;
#X obj 379 103 nbx 2 20 -1e+37 1e+37 0 0 empty empty empty 0 -8 1 20
-261889 -210305 -1 11 256;
#X obj 425 103 nbx 2 20 -1e+37 1e+37 0 0 empty empty empty 0 -8 1 20
-261889 -210305 -1 12 256;
#X obj -320 -6 unpack f f f f f f f f;
#X obj -373 222 pack f f f f f f f f;
#X obj -221 280 list-add;
#X msg -44 -210 0 2 4 5 7 9 11 12;
#X obj 176 -103 route 0 1 2 3;
#X obj -377 263 outlet;
#X obj 499 104 vsl 50 20 0 12 0 0 empty empty empty 0 -9 0 10 -198857
-86277 -1 0 1;
#X obj 465 229 int;
#X obj 468 285 pitch;
#X symbolatom 504 104 4 0 0 0 - - -;
#X obj 474 146 hradio 15 1 0 5 empty empty maior 0 -8 0 14 -262144
-1 -1 0;
#N canvas 0 0 450 300 label 0;
#X obj 50 11 inlet;
#X obj 49 206 outlet;
#X msg 47 172 label \$1;
#X msg 4 98 maior;
#X obj 53 145 l2s;
#X msg 69 99 menor;
#X msg 131 99 mixolidio;
#X msg 236 99 dorico;
#X msg 308 99 lidio;
#X obj 91 41 sel 0 1 2 3 4;
#X connect 0 0 9 0;
#X connect 2 0 1 0;
#X connect 3 0 4 0;
#X connect 4 0 2 0;
#X connect 5 0 4 0;
#X connect 6 0 4 0;
#X connect 7 0 4 0;
#X connect 8 0 4 0;
#X connect 9 0 3 0;
#X connect 9 1 5 0;
#X connect 9 2 6 0;
#X connect 9 3 7 0;
#X connect 9 4 8 0;
#X restore 554 145 pd label;
#X obj 475 257 + 36;
#X obj -221 309 outlet;
#X obj -321 -38 r \$0-root;
#X obj 76 -102 s \$0-root;
#X obj -9 280 list-add;
#X obj -9 309 outlet;
#X obj 204 281 list-add;
#X obj 204 310 outlet;
#X obj 526 228 s \$0-prog;
#X obj 353 -206 r \$0-prog;
#N canvas 342 114 450 300 maior 0;
#X obj 49 177 outlet;
#X msg 32 25 0 0 2 4 5 7 9 11 12;
#X obj 53 -75 inlet;
#X obj 164 -55 t b b b b;
#X msg 252 1 2 7 7 7 7 7 7 6 7;
#X msg 254 30 3 12 10 10 11 10 10 10 12;
#X msg 253 -25 1 4 3 3 4 4 3 3 4;
#X text 39 -1 root;
#X text 278 -49 tetrade;
#X connect 1 0 0 0;
#X connect 2 0 3 0;
#X connect 3 0 1 0;
#X connect 3 1 6 0;
#X connect 3 2 4 0;
#X connect 3 3 5 0;
#X connect 4 0 0 0;
#X connect 5 0 0 0;
#X connect 6 0 0 0;
#X restore 353 -126 pd maior;
#X obj 352 -175 sel 0;
#X text 412 -175 implementar outras;
#X obj 424 322 s \$0-rootNOTE;
#X obj 446 -145 r \$0-rootNOTE;
#X obj 476 183 bng 17 250 50 0 \$0-ok empty outra 0 -10 0 20 -1 -262144
-159808;
#X obj -299 98 r \$0-ok;
#X obj -297 133 t b b b b;
#X symbolatom 104 125 4 0 0 0 - - -;
#X symbolatom 150 125 4 0 0 0 - - -;
#X symbolatom 196 124 4 0 0 0 - - -;
#X symbolatom 242 125 4 0 0 0 - - -;
#X symbolatom 288 125 4 0 0 0 - - -;
#X symbolatom 334 126 4 0 0 0 - - -;
#X symbolatom 380 125 4 0 0 0 - - -;
#X symbolatom 427 126 4 0 0 0 - - -;
#X obj 348 -65 unpack s s s s s s s s;
#N canvas 40 107 690 300 nomeescala 0;
#X obj 166 3 inlet;
#X obj 95 232 outlet;
#X obj 70 121 pitch;
#X obj 129 121 pitch;
#X obj 187 121 pitch;
#X obj 246 121 pitch;
#X obj 303 121 pitch;
#X obj 362 121 pitch;
#X obj 420 121 pitch;
#X obj 479 121 pitch;
#X obj 96 201 pack s s s s s s s s;
#X obj 162 73 unpack f f f f f f f f;
#X obj 167 36 list-math + 36;
#X connect 0 0 12 0;
#X connect 2 1 10 0;
#X connect 3 1 10 1;
#X connect 4 1 10 2;
#X connect 5 1 10 3;
#X connect 6 1 10 4;
#X connect 7 1 10 5;
#X connect 8 1 10 6;
#X connect 9 1 10 7;
#X connect 10 0 1 0;
#X connect 11 0 2 0;
#X connect 11 1 3 0;
#X connect 11 2 4 0;
#X connect 11 3 5 0;
#X connect 11 4 6 0;
#X connect 11 5 7 0;
#X connect 11 6 8 0;
#X connect 11 7 9 0;
#X connect 12 0 11 0;
#X restore 352 -93 pd nomeescala;
#X obj 469 109 cnv 8 30 8 empty empty empty 20 12 0 14 -257985 -66577
0;
#X connect 0 0 24 0;
#X connect 1 0 24 1;
#X connect 2 0 24 2;
#X connect 3 0 24 3;
#X connect 4 0 24 4;
#X connect 5 0 24 5;
#X connect 6 0 24 6;
#X connect 7 0 24 7;
#X connect 8 0 25 0;
#X connect 9 0 26 0;
#X connect 10 0 25 1;
#X connect 11 0 25 2;
#X connect 12 0 25 3;
#X connect 13 0 25 4;
#X connect 14 0 25 5;
#X connect 15 0 25 6;
#X connect 16 0 25 7;
#X connect 17 0 26 1;
#X connect 18 0 26 2;
#X connect 19 0 26 3;
#X connect 20 0 26 4;
#X connect 21 0 26 5;
#X connect 22 0 26 6;
#X connect 23 0 26 7;
#X connect 24 0 41 1;
#X connect 25 0 55 1;
#X connect 26 0 57 1;
#X connect 27 0 43 0;
#X connect 28 0 0 0;
#X connect 28 1 1 0;
#X connect 28 2 2 0;
#X connect 28 3 3 0;
#X connect 28 4 4 0;
#X connect 28 5 5 0;
#X connect 28 6 6 0;
#X connect 28 7 7 0;
#X connect 29 0 8 0;
#X connect 29 1 10 0;
#X connect 29 2 11 0;
#X connect 29 3 12 0;
#X connect 29 4 13 0;
#X connect 29 5 14 0;
#X connect 29 6 15 0;
#X connect 29 7 16 0;
#X connect 30 0 9 0;
#X connect 30 1 17 0;
#X connect 30 2 18 0;
#X connect 30 3 19 0;
#X connect 30 4 20 0;
#X connect 30 5 21 0;
#X connect 30 6 22 0;
#X connect 30 7 23 0;
#X connect 31 0 40 0;
#X connect 32 0 40 1;
#X connect 33 0 40 2;
#X connect 34 0 40 3;
#X connect 35 0 40 4;
#X connect 36 0 40 5;
#X connect 37 0 40 6;
#X connect 38 0 40 7;
#X connect 39 0 31 0;
#X connect 39 1 32 0;
#X connect 39 2 33 0;
#X connect 39 3 34 0;
#X connect 39 4 35 0;
#X connect 39 5 36 0;
#X connect 39 6 37 0;
#X connect 39 7 38 0;
#X connect 40 0 44 0;
#X connect 40 0 41 0;
#X connect 40 0 55 0;
#X connect 40 0 57 0;
#X connect 41 0 52 0;
#X connect 43 0 54 0;
#X connect 43 0 78 0;
#X connect 43 1 28 0;
#X connect 43 2 29 0;
#X connect 43 3 30 0;
#X connect 45 0 46 0;
#X connect 46 0 51 0;
#X connect 47 1 48 0;
#X connect 49 0 50 0;
#X connect 49 0 59 0;
#X connect 50 0 49 0;
#X connect 51 0 47 0;
#X connect 51 0 64 0;
#X connect 53 0 39 0;
#X connect 55 0 56 0;
#X connect 57 0 58 0;
#X connect 60 0 62 0;
#X connect 61 0 43 0;
#X connect 62 0 61 0;
#X connect 62 1 61 0;
#X connect 67 0 68 0;
#X connect 68 0 40 0;
#X connect 68 1 24 0;
#X connect 68 2 25 0;
#X connect 68 3 26 0;
#X connect 77 0 69 0;
#X connect 77 1 70 0;
#X connect 77 2 71 0;
#X connect 77 3 72 0;
#X connect 77 4 73 0;
#X connect 77 5 74 0;
#X connect 77 6 75 0;
#X connect 77 7 76 0;
#X connect 78 0 77 0;
#X coords 0 -1 1 1 450 120 2 100 100;
#X restore 13 -11 pd intervalos;
#X connect 4 0 8 0;
#X connect 4 1 9 0;
#X connect 4 2 10 0;
#X connect 4 3 6 0;
#X connect 4 4 30 0;
#X connect 5 0 4 0;
#X connect 6 0 7 3;
#X connect 7 0 0 0;
#X connect 7 0 0 1;
#X connect 8 0 7 0;
#X connect 9 0 7 1;
#X connect 10 0 7 2;
#X connect 11 0 22 0;
#X connect 16 0 17 0;
#X connect 18 0 23 0;
#X connect 19 0 24 0;
#X connect 20 0 21 0;
#X connect 21 0 7 4;
#X connect 22 0 7 4;
#X connect 23 0 7 4;
#X connect 24 0 7 4;
#X connect 26 0 7 4;
#X connect 27 0 5 0;
#X connect 31 0 16 0;
#X connect 32 0 15 0;
#X connect 32 1 15 1;
#X connect 32 2 15 2;
#X connect 32 3 15 3;
