#N canvas 415 219 450 300 10;
#X obj 230 142 qlist;
#X msg 126 23 add 0 teste 1;
#X msg 196 45 add 1000 teste 2;
#X msg 34 78 print;
#X obj 88 170 r teste;
#X obj 89 194 print;
#X msg 43 46 bang;
#X msg 30 125 rewind;
#X msg 88 125 next;
#X msg 225 99 clear;
#X msg 205 70 add 250 teste 3________;
#X connect 1 0 0 0;
#X connect 2 0 0 0;
#X connect 3 0 0 0;
#X connect 4 0 5 0;
#X connect 6 0 0 0;
#X connect 7 0 0 0;
#X connect 8 0 0 0;
#X connect 9 0 0 0;
#X connect 10 0 0 0;
