#N canvas 256 20 629 492 12;
#X obj 66 263 bng 15 250 50 0 empty empty empty 0 -6 0 8 -262144 -1
-1;
#X obj 292 266 bng 15 250 50 0 empty empty empty 0 -6 0 8 -262144 -1
-1;
#X text 287 244 clear;
#X text 63 243 send;
#X obj 66 342 list append;
#X obj 213 317 t l;
#X obj 94 303 list prepend;
#X obj 66 410 t l l;
#X obj 121 410 print start;
#X obj 171 340 print stored;
#X obj 66 486 del;
#X obj 105 486 list append;
#X msg 94 264 250 57;
#X msg 154 264 500 52;
#X msg 215 264 750 55;
#X obj 66 461 unpack;
#X obj 66 435 list split 2;
#X text 147 242 -- add --;
#X obj 185 438 print done;
#X obj 115 517 print pitch;
#X obj 272 477 fluid~;
#X obj 282 504 ezdac~;
#X msg 360 424 init /home/glerm/puredata/sf2/Unison.sf2;
#X obj 391 354 makenote 127 100;
#X msg 282 433 \$3 \$1 \$2;
#X obj 292 402 pack f f 1;
#X text 78 35 sequenciador fluid;
#X msg 128 209 50 60;
#X msg 224 219 100 55;
#X msg 179 190 75 67;
#X connect 0 0 4 0;
#X connect 1 0 6 1;
#X connect 4 0 7 0;
#X connect 5 0 6 1;
#X connect 6 0 5 0;
#X connect 6 0 4 1;
#X connect 6 0 9 0;
#X connect 7 0 16 0;
#X connect 7 1 8 0;
#X connect 10 0 11 0;
#X connect 11 0 16 0;
#X connect 12 0 6 0;
#X connect 13 0 6 0;
#X connect 14 0 6 0;
#X connect 15 0 10 0;
#X connect 15 1 19 0;
#X connect 15 1 23 0;
#X connect 16 0 15 0;
#X connect 16 1 11 1;
#X connect 16 2 18 0;
#X connect 20 0 21 0;
#X connect 20 1 21 1;
#X connect 22 0 20 0;
#X connect 23 0 25 0;
#X connect 23 1 25 1;
#X connect 24 0 20 0;
#X connect 25 0 24 0;
#X connect 27 0 6 0;
#X connect 28 0 6 0;
#X connect 29 0 6 0;
