#N canvas 0 0 800 532 10;
#X obj 408 324 soundfiler;
#X msg 408 279 open dnb.wav;
#X msg 408 302 read -resize \$1 sample;
#N canvas 0 0 450 300 (subpatch) 0;
#X array sample 66150 float 2;
#X coords 0 1 66150 -1 200 140 1;
#X restore 565 33 graph;
#X obj 568 174 hsl 195 15 0 66150 0 0 empty pos empty -2 -8 0 10 -262144
-1 -1 0 1;
#X msg 478 341 \; pos range 0 \$1;
#X obj 408 382 s lenght;
#X obj 468 409 s dur;
#X obj 468 382 / 44.1;
#X obj 445 143 r dur;
#X obj 169 153 r lenght;
#X obj 113 193 f;
#X obj 172 193 f;
#X obj 77 364 vline~;
#X obj 78 427 dac~;
#X obj 77 302 pack 0 0 0;
#X msg 77 337 \$1 \, \$2 \$3;
#X obj 77 73 metro 100;
#X obj 77 46 tgl 15 0 empty empty empty 17 7 0 10 -262144 -1 -1 0 1
;
#X obj 77 107 t b b b;
#X obj 77 194 f;
#X obj 30 353 line;
#X obj 30 398 s pos;
#X obj 113 248 /;
#X obj 172 251 /;
#X floatatom 408 441 5 0 0 0 - - -;
#X floatatom 469 440 5 0 0 0 - - -;
#X floatatom 266 221 5 0 0 0 - - -;
#X obj 277 386 *;
#X floatatom 308 372 5 0 0 0 - - -;
#X obj 248 441 +;
#X obj 309 345 line;
#X floatatom 390 89 5 0 0 0 - - -;
#X obj 361 243 bng 15 250 50 0 empty empty empty 17 7 0 10 -262144
-1 -1;
#X obj 78 394 tabread4~ sample;
#X obj 342 118 metro 100;
#X obj 342 77 tgl 25 0 empty empty empty 17 7 0 10 -258113 -257985
-1 0 1;
#X obj 495 143 loadbang;
#X msg 309 320 0 \, \$1 \$2;
#X obj 313 269 pack 0 0;
#X msg 495 164 150;
#X text 346 81 ON;
#X text 376 70 total time (ms);
#X msg 495 205 \; pd dsp 1;
#X text 238 205 number of grains;
#X connect 0 0 5 0;
#X connect 0 0 6 0;
#X connect 0 0 8 0;
#X connect 0 0 25 0;
#X connect 1 0 2 0;
#X connect 2 0 0 0;
#X connect 8 0 7 0;
#X connect 8 0 26 0;
#X connect 9 0 12 1;
#X connect 9 0 32 0;
#X connect 10 0 11 1;
#X connect 11 0 23 0;
#X connect 12 0 24 0;
#X connect 13 0 34 0;
#X connect 15 0 16 0;
#X connect 16 0 13 0;
#X connect 16 0 21 0;
#X connect 17 0 19 0;
#X connect 18 0 17 0;
#X connect 19 0 20 0;
#X connect 19 1 11 0;
#X connect 19 2 12 0;
#X connect 20 0 15 0;
#X connect 21 0 22 0;
#X connect 23 0 28 0;
#X connect 23 0 30 1;
#X connect 24 0 17 1;
#X connect 24 0 15 2;
#X connect 27 0 23 1;
#X connect 27 0 24 1;
#X connect 27 0 39 0;
#X connect 28 0 20 1;
#X connect 28 0 30 0;
#X connect 29 0 28 1;
#X connect 30 0 15 1;
#X connect 31 0 29 0;
#X connect 32 0 35 1;
#X connect 32 0 39 1;
#X connect 33 0 39 0;
#X connect 34 0 14 0;
#X connect 34 0 14 1;
#X connect 35 0 33 0;
#X connect 36 0 35 0;
#X connect 36 0 18 0;
#X connect 37 0 40 0;
#X connect 37 0 1 0;
#X connect 38 0 31 0;
#X connect 39 0 38 0;
#X connect 40 0 27 0;
#X connect 40 0 43 0;
