#N canvas 0 26 800 493 24;
#X symbolatom 153 149 10 0 0 0 - - -;
#X symbolatom 308 149 10 0 0 0 - - -;
#X symbolatom 457 149 10 0 0 0 - - -;
#X obj 163 215 pack s s s;
#X obj 130 78 pitch;
#X obj 296 73 pitch;
#X obj 489 67 pitch;
#X floatatom 159 -94 5 0 0 0 - - -;
#X obj 49 292 prepend set;
#X msg 57 332 Bb0 Db1 F1;
#X obj 463 -7 + 6;
#X obj 250 -23 + 2;
#X connect 0 0 3 0;
#X connect 1 0 3 1;
#X connect 2 0 3 2;
#X connect 3 0 8 0;
#X connect 4 1 0 0;
#X connect 5 1 1 0;
#X connect 6 1 2 0;
#X connect 7 0 4 0;
#X connect 7 0 10 0;
#X connect 7 0 11 0;
#X connect 8 0 9 0;
#X connect 10 0 6 0;
#X connect 11 0 5 0;
