#N canvas 0 26 779 493 16;
#X obj 130 371 ezdac~;
#X msg 358 -83 0 0 2 3 5 7 8 11;
#X obj 530 50 cnv 15 22 357 empty time empty 20 12 0 14 -203904 -66577
0;
#N canvas 0 0 450 300 (subpatch) 0;
#X array \$0-baixo 8 float 2;
#X coords 0 24 8 0 200 70 1;
#X restore 529 339 graph;
#N canvas 0 101 771 414 timeline 0;
#X obj -32 86 + 530;
#X obj 34 10 inlet;
#X msg -32 122 \; time pos \$1 50;
#X obj -22 53 * 25;
#X obj -30 196 tabread \$0-baixo;
#X obj 152 196 tabread \$0-tenor;
#X obj 321 196 tabread \$0-contralto;
#X obj 531 196 tabread \$0-soprano;
#X obj 235 254 + 60;
#X obj 158 256 + 48;
#X obj 299 255 + 72;
#X obj 88 258 + 36;
#X obj -15 310 outlet;
#X obj 63 312 outlet;
#X obj 142 312 outlet;
#X obj 217 312 outlet;
#X obj 355 373 outlet;
#X obj 321 293 pitch;
#X obj 332 344 pack s s s s;
#X obj 382 293 pitch;
#X obj 444 292 pitch;
#X obj 505 292 pitch;
#X obj 356 324 bng 15 250 50 0 empty empty empty 17 7 0 10 -262144
-1 -1;
#X connect 0 0 2 0;
#X connect 1 0 3 0;
#X connect 1 0 4 0;
#X connect 1 0 5 0;
#X connect 1 0 6 0;
#X connect 1 0 7 0;
#X connect 3 0 0 0;
#X connect 4 0 11 0;
#X connect 5 0 9 0;
#X connect 6 0 8 0;
#X connect 7 0 10 0;
#X connect 8 0 14 0;
#X connect 8 0 20 0;
#X connect 9 0 13 0;
#X connect 9 0 19 0;
#X connect 10 0 15 0;
#X connect 10 0 21 0;
#X connect 11 0 12 0;
#X connect 11 0 17 0;
#X connect 17 1 18 0;
#X connect 18 0 16 0;
#X connect 19 1 18 1;
#X connect 19 1 22 0;
#X connect 20 1 18 2;
#X connect 20 1 22 0;
#X connect 21 1 18 3;
#X connect 21 1 22 0;
#X connect 22 0 18 0;
#X restore 137 174 pd timeline;
#X obj 139 155 hradio 15 1 0 8 empty empty empty 0 -8 0 10 -262144
-1 -1 0;
#X floatatom 229 256 5 0 0 0 - - -;
#X obj 129 309 unison4;
#X floatatom 47 255 5 0 0 0 - - -;
#X floatatom 109 252 5 0 0 0 - - -;
#X floatatom 169 253 5 0 0 0 - - -;
#X floatatom 274 320 5 0 0 0 - - -;
#N canvas 0 0 450 300 (subpatch) 0;
#X array \$0-tenor 8 float 2;
#X coords 0 24 8 0 200 70 1;
#X restore 529 247 graph;
#N canvas 0 0 450 300 (subpatch) 0;
#X array \$0-contralto 8 float 2;
#X coords 0 24 8 0 200 70 1;
#X restore 529 154 graph;
#N canvas 0 0 450 300 (subpatch) 0;
#X array \$0-soprano 8 float 2;
#X coords 0 24 8 0 200 70 1;
#X restore 529 52 graph;
#N canvas 207 101 574 356 vozes 0;
#X obj 24 172 s \$0-baixo;
#X obj 133 171 s \$0-tenor;
#X obj 243 170 s \$0-contralto;
#X obj 393 170 s \$0-soprano;
#X obj 24 141 prepend 0;
#X obj 24 111 inlet;
#X obj 135 142 prepend 0;
#X obj 135 112 inlet;
#X obj 253 138 prepend 0;
#X obj 253 108 inlet;
#X obj 364 139 prepend 0;
#X obj 364 109 inlet;
#X connect 4 0 0 0;
#X connect 5 0 4 0;
#X connect 6 0 1 0;
#X connect 7 0 6 0;
#X connect 8 0 2 0;
#X connect 9 0 8 0;
#X connect 10 0 3 0;
#X connect 11 0 10 0;
#X restore 47 123 pd vozes;
#X msg 28 -31 0 2 4 5 7 9 11 12;
#X obj 647 -3 _;
#X msg 646 25 C2 E3 G4 C6;
#X floatatom 277 348 5 0 0 0 - - -;
#X floatatom 279 376 5 0 0 0 - - -;
#X floatatom 281 402 5 0 0 0 - - -;
#X msg 229 401 4 \$1;
#X msg 222 319 1 \$1;
#X msg 225 347 2 \$1;
#X msg 227 375 3 \$1;
#X text 236 294 timbres;
#X obj 42 7 list-add;
#X obj 70 39 list-add;
#X obj 101 74 list-add;
#N canvas 153 72 450 300 escala 0;
#X obj 44 38 inlet;
#X obj 47 162 prepend set;
#X obj 47 191 outlet;
#X obj 48 101 list-math +;
#X obj 156 64 inlet;
#X connect 0 0 3 0;
#X connect 1 0 2 0;
#X connect 3 0 1 0;
#X connect 4 0 3 1;
#X restore 30 -60 pd escala;
#X msg 31 -87 0 2 4 5 7 9 11 12;
#X floatatom 216 -85 5 0 0 0 - - -;
#X msg 337 401 load sf2;
#N canvas 0 0 450 300 qwerty 0;
#X obj 40 129 key;
#X obj 32 159 sel 113 119 101 114 116 121 117 105;
#X msg 32 188 0;
#X msg 76 188 1;
#X msg 120 188 2;
#X msg 163 189 3;
#X msg 206 190 4;
#X msg 250 190 5;
#X msg 294 190 6;
#X msg 337 191 7;
#X obj 138 219 spigot;
#X obj 141 250 outlet;
#X obj 2 3 tgl 15 1 empty empty empty 17 7 0 10 -262144 -1 -1 1 1;
#X connect 0 0 1 0;
#X connect 1 0 2 0;
#X connect 1 1 3 0;
#X connect 1 2 4 0;
#X connect 1 3 5 0;
#X connect 1 4 6 0;
#X connect 1 5 7 0;
#X connect 1 6 8 0;
#X connect 1 7 9 0;
#X connect 2 0 10 0;
#X connect 3 0 10 0;
#X connect 4 0 10 0;
#X connect 5 0 10 0;
#X connect 6 0 10 0;
#X connect 7 0 10 0;
#X connect 8 0 10 0;
#X connect 9 0 10 0;
#X connect 10 0 11 0;
#X connect 12 0 10 1;
#X coords 0 -1 1 1 20 20 2 0 0;
#X restore 143 127 pd qwerty;
#X text 167 125 liga_teclado;
#X text 698 -2 acorde;
#X obj 247 201 s a;
#X obj 648 -3 r a;
#N canvas 0 26 800 493 intervalos 0;
#X obj 103 103 nbx 2 20 -1e+37 1e+37 0 0 empty empty empty 0 -8 1 20
-262130 -4160 -1 4 256;
#X obj 149 103 nbx 2 20 -1e+37 1e+37 0 0 empty empty empty 0 -8 1 20
-262130 -4160 -1 3 256;
#X obj 195 103 nbx 2 20 -1e+37 1e+37 0 0 empty empty empty 0 -8 1 20
-262130 -4160 -1 3 256;
#X obj 241 103 nbx 2 20 -1e+37 1e+37 0 0 empty empty empty 0 -8 1 20
-262130 -4160 -1 4 256;
#X obj 287 103 nbx 2 20 -1e+37 1e+37 0 0 empty empty empty 0 -8 1 20
-262130 -4160 -1 4 256;
#X obj 333 103 nbx 2 20 -1e+37 1e+37 0 0 empty empty empty 0 -8 1 20
-262130 -4160 -1 3 256;
#X obj 379 103 nbx 2 20 -1e+37 1e+37 0 0 empty empty empty 0 -8 1 20
-262130 -4160 -1 3 256;
#X obj 425 103 nbx 2 20 -1e+37 1e+37 0 0 empty empty empty 0 -8 1 20
-262130 -4160 -1 4 256;
#X obj 103 125 nbx 2 20 -1e+37 1e+37 0 0 empty empty empty 0 -8 1 20
-191285 -189173 -1 7 256;
#X obj 104 148 nbx 2 20 -1e+37 1e+37 0 0 empty empty empty 0 -8 1 20
-201689 -191324 -1 12 256;
#X obj 149 125 nbx 2 20 -1e+37 1e+37 0 0 empty empty empty 0 -8 1 20
-191285 -189173 -1 2 256;
#X obj 196 125 nbx 2 20 -1e+37 1e+37 0 0 empty empty empty 0 -8 1 20
-191285 -189173 -1 7 256;
#X obj 242 125 nbx 2 20 -1e+37 1e+37 0 0 empty empty empty 0 -8 1 20
-191285 -189173 -1 7 256;
#X obj 288 125 nbx 2 20 -1e+37 1e+37 0 0 empty empty empty 0 -8 1 20
-191285 -189173 -1 7 256;
#X obj 334 125 nbx 2 20 -1e+37 1e+37 0 0 empty empty empty 0 -8 1 20
-191285 -189173 -1 7 256;
#X obj 381 125 nbx 2 20 -1e+37 1e+37 0 0 empty empty empty 0 -8 1 20
-191285 -189173 -1 6 256;
#X obj 427 125 nbx 2 20 -1e+37 1e+37 0 0 empty empty empty 0 -8 1 20
-191285 -189173 -1 7 256;
#X obj 150 148 nbx 2 20 -1e+37 1e+37 0 0 empty empty empty 0 -8 1 20
-201689 -191324 -1 10 256;
#X obj 196 148 nbx 2 20 -1e+37 1e+37 0 0 empty empty empty 0 -8 1 20
-201689 -191324 -1 10 256;
#X obj 242 148 nbx 2 20 -1e+37 1e+37 0 0 empty empty empty 0 -8 1 20
-201689 -191324 -1 11 256;
#X obj 288 148 nbx 2 20 -1e+37 1e+37 0 0 empty empty empty 0 -8 1 20
-201689 -191324 -1 10 256;
#X obj 334 148 nbx 2 20 -1e+37 1e+37 0 0 empty empty empty 0 -8 1 20
-201689 -191324 -1 10 256;
#X obj 380 148 nbx 2 20 -1e+37 1e+37 0 0 empty empty empty 0 -8 1 20
-201689 -191324 -1 10 256;
#X obj 426 148 nbx 2 20 -1e+37 1e+37 0 0 empty empty empty 0 -8 1 20
-201689 -191324 -1 12 256;
#X obj -164 221 pack f f f f f f f f;
#X obj 45 222 pack f f f f f f f f;
#X obj 253 221 pack f f f f f f f f;
#X obj -152 254 outlet;
#X obj 46 255 outlet;
#X obj 264 256 outlet;
#X obj -131 -68 inlet;
#X obj 176 -131 inlet;
#X obj 176 -103 route 1 2 3;
#X obj -80 -8 unpack f f f f f f f f;
#X obj 151 -12 unpack f f f f f f f f;
#X obj 378 -8 unpack f f f f f f f f;
#X connect 0 0 24 0;
#X connect 1 0 24 1;
#X connect 2 0 24 2;
#X connect 3 0 24 3;
#X connect 4 0 24 4;
#X connect 5 0 24 5;
#X connect 6 0 24 6;
#X connect 7 0 24 7;
#X connect 8 0 25 0;
#X connect 9 0 26 0;
#X connect 10 0 25 1;
#X connect 11 0 25 2;
#X connect 12 0 25 3;
#X connect 13 0 25 4;
#X connect 14 0 25 5;
#X connect 15 0 25 6;
#X connect 16 0 25 7;
#X connect 17 0 26 1;
#X connect 18 0 26 2;
#X connect 19 0 26 3;
#X connect 20 0 26 4;
#X connect 21 0 26 5;
#X connect 22 0 26 6;
#X connect 23 0 26 7;
#X connect 24 0 27 0;
#X connect 25 0 28 0;
#X connect 26 0 29 0;
#X connect 30 0 24 0;
#X connect 30 0 25 0;
#X connect 30 0 26 0;
#X connect 31 0 32 0;
#X connect 32 0 33 0;
#X connect 32 1 34 0;
#X connect 32 2 35 0;
#X connect 33 0 0 0;
#X connect 33 1 1 0;
#X connect 33 2 2 0;
#X connect 33 3 3 0;
#X connect 33 4 4 0;
#X connect 33 5 5 0;
#X connect 33 6 6 0;
#X connect 33 7 7 0;
#X connect 34 0 8 0;
#X connect 34 1 10 0;
#X connect 34 2 11 0;
#X connect 34 3 12 0;
#X connect 34 4 13 0;
#X connect 34 5 14 0;
#X connect 34 6 15 0;
#X connect 34 7 16 0;
#X connect 35 0 9 0;
#X connect 35 1 17 0;
#X connect 35 2 18 0;
#X connect 35 3 19 0;
#X connect 35 4 20 0;
#X connect 35 5 21 0;
#X connect 35 6 22 0;
#X connect 35 7 23 0;
#X coords 0 -1 1 1 375 72 2 100 100;
#X restore 224 -42 pd intervalos;
#X obj 203 -56 bng 15 250 50 0 empty empty empty 17 7 0 10 -262144
-1 -1;
#X msg 605 -64 2 7 7 7 7 7 7 6 7;
#X msg 609 -37 3 12 10 10 11 10 10 10 12;
#X msg 578 -90 1 4 3 3 4 4 3 3 4;
#X connect 1 0 30 0;
#X connect 4 0 8 0;
#X connect 4 1 9 0;
#X connect 4 2 10 0;
#X connect 4 3 6 0;
#X connect 4 4 37 0;
#X connect 5 0 4 0;
#X connect 6 0 7 3;
#X connect 7 0 0 0;
#X connect 7 0 0 1;
#X connect 8 0 7 0;
#X connect 9 0 7 1;
#X connect 10 0 7 2;
#X connect 11 0 23 0;
#X connect 16 0 15 0;
#X connect 16 0 27 0;
#X connect 16 0 28 0;
#X connect 16 0 29 0;
#X connect 17 0 18 0;
#X connect 19 0 24 0;
#X connect 20 0 25 0;
#X connect 21 0 22 0;
#X connect 22 0 7 4;
#X connect 23 0 7 4;
#X connect 24 0 7 4;
#X connect 25 0 7 4;
#X connect 27 0 15 1;
#X connect 28 0 15 2;
#X connect 29 0 15 3;
#X connect 30 0 16 0;
#X connect 31 0 30 0;
#X connect 32 0 30 1;
#X connect 33 0 7 4;
#X connect 34 0 5 0;
#X connect 38 0 17 0;
#X connect 39 0 27 1;
#X connect 39 1 28 1;
#X connect 39 2 29 1;
#X connect 40 0 39 0;
#X connect 40 0 16 0;
#X connect 41 0 39 1;
#X connect 42 0 39 1;
#X connect 43 0 39 1;
