#N canvas 0 26 779 493 16;
#X obj 130 371 ezdac~;
#X text 406 -59 major;
#X text 591 -58 minor;
#X msg 557 -33 0 0 2 3 5 7 8 11;
#X obj 705 50 cnv 15 22 357 empty time empty 20 12 0 14 -203904 -66577
0;
#N canvas 0 0 450 300 (subpatch) 0;
#X array \$0-baixo 8 float 2;
#X coords 0 24 8 0 200 70 1;
#X restore 529 339 graph;
#N canvas -81 101 771 414 timeline 0;
#X obj -32 86 + 530;
#X obj 34 10 inlet;
#X msg -32 122 \; time pos \$1 50;
#X obj -22 53 * 25;
#X obj -30 196 tabread \$0-baixo;
#X obj 152 196 tabread \$0-tenor;
#X obj 321 196 tabread \$0-contralto;
#X obj 531 196 tabread \$0-soprano;
#X obj 235 254 + 60;
#X obj 158 256 + 48;
#X obj 299 255 + 72;
#X obj 88 258 + 36;
#X obj -15 310 outlet;
#X obj 63 312 outlet;
#X obj 142 312 outlet;
#X obj 217 312 outlet;
#X obj 355 373 outlet;
#X obj 321 293 pitch;
#X obj 332 344 pack s s s s;
#X obj 382 293 pitch;
#X obj 444 292 pitch;
#X obj 505 292 pitch;
#X obj 356 324 bng 15 250 50 0 empty empty empty 17 7 0 10 -262144
-1 -1;
#X connect 0 0 2 0;
#X connect 1 0 3 0;
#X connect 1 0 4 0;
#X connect 1 0 5 0;
#X connect 1 0 6 0;
#X connect 1 0 7 0;
#X connect 3 0 0 0;
#X connect 4 0 11 0;
#X connect 5 0 9 0;
#X connect 6 0 8 0;
#X connect 7 0 10 0;
#X connect 8 0 14 0;
#X connect 8 0 20 0;
#X connect 9 0 13 0;
#X connect 9 0 19 0;
#X connect 10 0 15 0;
#X connect 10 0 21 0;
#X connect 11 0 12 0;
#X connect 11 0 17 0;
#X connect 17 1 18 0;
#X connect 18 0 16 0;
#X connect 19 1 18 1;
#X connect 19 1 22 0;
#X connect 20 1 18 2;
#X connect 20 1 22 0;
#X connect 21 1 18 3;
#X connect 21 1 22 0;
#X connect 22 0 18 0;
#X restore 137 174 pd timeline;
#X obj 139 155 hradio 15 1 0 8 empty empty empty 0 -8 0 10 -262144
-1 -1 7;
#X floatatom 229 256 5 0 0 0 - - -;
#X obj 129 309 unison4;
#X floatatom 47 255 5 0 0 0 - - -;
#X floatatom 109 252 5 0 0 0 - - -;
#X floatatom 169 253 5 0 0 0 - - -;
#X floatatom 274 320 5 0 0 0 - - -;
#N canvas 0 0 450 300 (subpatch) 0;
#X array \$0-tenor 8 float 2;
#X coords 0 24 8 0 200 70 1;
#X restore 529 247 graph;
#N canvas 0 0 450 300 (subpatch) 0;
#X array \$0-contralto 8 float 2;
#X coords 0 24 8 0 200 70 1;
#X restore 529 154 graph;
#N canvas 0 0 450 300 (subpatch) 0;
#X array \$0-soprano 8 float 2;
#X coords 0 24 8 0 200 70 1;
#X restore 529 52 graph;
#N canvas 207 101 574 356 vozes 0;
#X obj 24 172 s \$0-baixo;
#X obj 133 171 s \$0-tenor;
#X obj 243 170 s \$0-contralto;
#X obj 393 170 s \$0-soprano;
#X obj 24 141 prepend 0;
#X obj 24 111 inlet;
#X obj 135 142 prepend 0;
#X obj 135 112 inlet;
#X obj 253 138 prepend 0;
#X obj 253 108 inlet;
#X obj 364 139 prepend 0;
#X obj 364 109 inlet;
#X connect 4 0 0 0;
#X connect 5 0 4 0;
#X connect 6 0 1 0;
#X connect 7 0 6 0;
#X connect 8 0 2 0;
#X connect 9 0 8 0;
#X connect 10 0 3 0;
#X connect 11 0 10 0;
#X restore 47 123 pd vozes;
#X msg 28 -31 0 2 4 5 7 9 11 12;
#X obj 400 -15 _;
#X msg 405 13 C3 E4 G5 C7;
#X floatatom 277 348 5 0 0 0 - - -;
#X floatatom 279 376 5 0 0 0 - - -;
#X floatatom 281 402 5 0 0 0 - - -;
#X msg 229 401 4 \$1;
#X msg 222 319 1 \$1;
#X msg 225 347 2 \$1;
#X msg 227 375 3 \$1;
#X text 236 294 timbres;
#X obj 42 7 list-add;
#X msg 138 3 4 3 3 4 4 3 3 4;
#X obj 70 39 list-add;
#X msg 162 36 7 7 7 7 7 7 6 7;
#X obj 101 74 list-add;
#N canvas 153 72 450 300 escala 0;
#X obj 44 38 inlet;
#X obj 47 162 prepend set;
#X obj 47 191 outlet;
#X obj 48 101 list-math +;
#X obj 156 64 inlet;
#X connect 0 0 3 0;
#X connect 1 0 2 0;
#X connect 3 0 1 0;
#X connect 4 0 3 1;
#X restore 30 -60 pd escala;
#X msg 31 -87 0 2 4 5 7 9 11 12;
#X floatatom 216 -85 5 0 0 0 - - -;
#X msg 199 73 12 10 10 11 10 10 10 12;
#X connect 6 0 10 0;
#X connect 6 1 11 0;
#X connect 6 2 12 0;
#X connect 6 3 8 0;
#X connect 6 4 19 0;
#X connect 7 0 6 0;
#X connect 8 0 9 3;
#X connect 9 0 0 0;
#X connect 9 0 0 1;
#X connect 10 0 9 0;
#X connect 11 0 9 1;
#X connect 12 0 9 2;
#X connect 13 0 25 0;
#X connect 18 0 17 0;
#X connect 18 0 29 0;
#X connect 18 0 31 0;
#X connect 18 0 33 0;
#X connect 19 0 20 0;
#X connect 21 0 26 0;
#X connect 22 0 27 0;
#X connect 23 0 24 0;
#X connect 24 0 9 4;
#X connect 25 0 9 4;
#X connect 26 0 9 4;
#X connect 27 0 9 4;
#X connect 29 0 17 1;
#X connect 30 0 29 1;
#X connect 31 0 17 2;
#X connect 32 0 31 1;
#X connect 33 0 17 3;
#X connect 34 0 18 0;
#X connect 35 0 34 0;
#X connect 36 0 34 1;
#X connect 37 0 33 1;
