#N canvas 0 26 800 493 12;
#X obj 345 37 inlet;
#X obj 466 84 delta;
#X msg 418 54 36 40 38 41 44 47 36;
#X floatatom 687 175 0 0 0 0 - - -;
#X msg 662 115 bang;
#X obj 698 159 + 1;
#X obj 639 162 float;
#X msg 690 119 0;
#X msg 301 109;
#X msg 517 291 -2 -11;
#X msg 384 294 0 4 3 3 3;
#X msg 300 214 set;
#X obj 400 224 prepend add2;
#X obj 539 225 prepend add2;
#X obj 455 188 if >= 0;
#X obj 645 21 list-map;
#X obj 644 55 prepend set;
#X msg 658 84 1 1;
#X obj 741 21 < 0;
#X obj 377 86 list-map;
#X obj 358 121 prepend set;
#X msg 372 149 0 4 -2 3 3 3 -11;
#X msg 643 -19 -2 -11;
#X obj 13 55 list-map;
#X obj 114 54 % 12;
#X obj 14 84 prepend set;
#X msg 12 204 0 4 2 5 8 4 0;
#X obj 96 276 delta;
#X obj 7 278 list-map;
#X obj -12 313 prepend set;
#X msg 2 341 0 4 -2 3 3 -4 -4;
#X obj 213 97 delta;
#X obj 124 99 list-map;
#X obj 105 134 prepend set;
#X msg 119 162 0 4 -2 3 3 8 -16;
#X msg 54 23 36 40 38 41 44 52 36;
#X connect 1 0 19 1;
#X connect 2 0 19 0;
#X connect 4 0 6 0;
#X connect 5 0 3 0;
#X connect 5 0 6 1;
#X connect 6 0 5 0;
#X connect 7 0 6 1;
#X connect 11 0 10 0;
#X connect 11 0 9 0;
#X connect 12 0 10 0;
#X connect 13 0 9 0;
#X connect 14 0 12 0;
#X connect 14 1 13 0;
#X connect 15 0 16 0;
#X connect 15 1 18 0;
#X connect 16 0 17 0;
#X connect 18 0 15 1;
#X connect 19 0 20 0;
#X connect 19 1 1 0;
#X connect 20 0 21 0;
#X connect 22 0 15 0;
#X connect 23 0 25 0;
#X connect 23 1 24 0;
#X connect 24 0 23 1;
#X connect 25 0 26 0;
#X connect 26 0 28 0;
#X connect 27 0 28 1;
#X connect 28 0 29 0;
#X connect 28 1 27 0;
#X connect 29 0 30 0;
#X connect 31 0 32 1;
#X connect 32 0 33 0;
#X connect 32 1 31 0;
#X connect 33 0 34 0;
#X connect 35 0 23 0;
#X connect 35 0 32 0;
