#N canvas 0 26 1024 661 10;
#X obj 176 60 bng 15 250 50 0 empty empty empty 17 7 0 10 -262144 -1
-1;
#X obj 174 208 ezdac~;
#X obj 174 89 bangsamplerec;
#X connect 0 0 2 0;
#X connect 2 0 1 0;
#X connect 2 0 1 1;
