#N canvas 0 26 800 493 36;
#X floatatom 126 170 5 0 0 0 - - -;
#X floatatom 74 27 5 0 0 0 - - -;
#X floatatom 535 188 5 0 0 0 - - -;
#X floatatom 563 46 5 0 0 0 - - -;
#X msg 249 45 0;
#X msg 705 60 0;
#X obj 267 262 pack f f;
#X obj 366 181 bng 15 250 50 0 empty empty empty 17 7 0 10 -262144
-1 -1;
#X obj 275 329 prepend set;
#X msg 272 400 0 120;
#X obj 89 110 minimum;
#X obj 551 117 maximum;
#X connect 0 0 6 0;
#X connect 0 0 10 1;
#X connect 1 0 10 0;
#X connect 2 0 7 0;
#X connect 2 0 6 1;
#X connect 2 0 11 1;
#X connect 3 0 11 0;
#X connect 4 0 10 1;
#X connect 5 0 11 1;
#X connect 6 0 8 0;
#X connect 7 0 6 0;
#X connect 8 0 9 0;
#X connect 10 0 0 0;
#X connect 11 0 2 0;
