#N canvas 0 26 768 579 24;
#X obj 140 106 webcolors;
#X floatatom 100 37 5 0 0 0 - - -;
#X floatatom 206 41 5 0 0 0 - - -;
#X floatatom 289 43 5 0 0 0 - - -;
#X obj 79 229 prepend set;
#X msg 77 274 #7d3532;
#X symbolatom 369 240 10 0 0 0 - - -;
#X msg 343 354 color \$1 0;
#X text 381 202 symbol;
#X text 393 325 message;
#X text 301 13 number;
#X text 272 109 object;
#X obj 548 321 osc~;
#X obj 547 389 dac~;
#X obj 401 448 gcanvas 80 80;
#X connect 0 0 4 0;
#X connect 0 1 6 0;
#X connect 0 1 7 0;
#X connect 1 0 0 0;
#X connect 2 0 0 1;
#X connect 3 0 0 2;
#X connect 4 0 5 0;
#X connect 7 0 14 0;
#X connect 12 0 13 0;
#X connect 12 0 13 1;
