#N canvas 0 26 1024 640 36;
#X obj 180 231 any2bytes;
#X obj 554 139 bytes2any;
#X obj 557 225 _;
#X msg 558 288 puredata;
#X obj 181 315 _;
#X msg 182 378 112 117 114 101 100 97 116 97 0;
#X msg 157 89 puredata;
#X msg 396 28 112 117 114 101 100 97 116 97 0;
#X connect 0 0 4 0;
#X connect 1 0 2 0;
#X connect 2 0 3 0;
#X connect 4 0 5 0;
#X connect 6 0 0 0;
#X connect 7 0 1 0;
