#N canvas 290 202 707 476 16;
#N canvas 376 231 617 148 \$0-col 0;
#X obj 8 17 struct \$0-col float x float y float y0 float vis array
nums \$0-num;
#X obj 8 106 filledpolygon -v vis 788 0 1 -10 -5 45 -5 45 y0 -10 y0
-10 -5;
#X obj 8 71 plot nums 0 0 0 0 0;
#X restore 120 46 pd \$0-col;
#N canvas 314 365 630 157 \$0-num 0;
#X obj 15 17 struct \$0-num float n float y0;
#X obj 15 48 drawnumber n 0 y0(0:1000)(0:1000) 0;
#X restore 120 76 pd \$0-num;
#N canvas 8 53 676 563 data 0;
#X restore 10 -2 pd data;
#X msg 11 46 clear;
#X obj 11 76 s pd-data;
#X floatatom 131 150 5 0 0 0 - - -;
#N canvas 0 0 534 300 \$0-row 0;
#X obj 31 22 struct \$0-row float vis float x float y array matrix
\$0-col;
#X obj 61 59 plot matrix 0 0 0 0 20;
#X restore 566 17 pd \$0-row;
#X text 578 -5 unused;
#X obj 104 355 tgl 15 0 empty empty empty 17 7 0 10 -262144 -1 -1 0
1;
#N canvas 0 0 450 629 init 0;
#X obj 136 221 pointer;
#X obj 76 486 setsize \$0-col nums;
#X obj 123 636 element \$0-col nums;
#X obj 30 461 t a a;
#X obj 30 514 max 1;
#X obj 30 563 until;
#X obj 30 538 t a b;
#X obj 30 588 f;
#X obj 67 587 + 1;
#X obj 30 613 t a a;
#X obj 30 665 set \$0-num y0;
#X obj 83 563 0;
#X msg 136 196 traverse pd-data \, bang;
#X msg 152 138 clear;
#X obj 152 163 s pd-data;
#X obj 31 141 max 1;
#X obj 30 193 until;
#X obj 31 166 t a b;
#X obj 30 218 f;
#X obj 69 218 + 1;
#X obj 87 193 0;
#X obj 31 105 t a b b;
#X obj 30 342 t b a;
#X msg 30 292 \$1 10 0;
#X obj 30 317 append \$0-col x y vis;
#X obj 74 431 set \$0-col y0;
#X obj 30 268 + 30;
#X obj 31 19 inlet;
#X obj 128 14 inlet;
#X obj 128 41 t b a;
#X obj 31 73 f;
#X obj 30 372 f;
#X text 247 395 space between rows;
#X obj 30 638 *;
#X obj 74 403 *;
#X obj 314 336 loadbang;
#X obj 258 316 t a;
#X obj 30 243 * 55;
#X msg 316 368 19;
#X connect 0 0 24 3;
#X connect 2 0 10 1;
#X connect 3 0 4 0;
#X connect 3 1 1 0;
#X connect 4 0 6 0;
#X connect 5 0 7 0;
#X connect 6 0 5 0;
#X connect 6 1 11 0;
#X connect 7 0 8 0;
#X connect 7 0 9 0;
#X connect 8 0 7 1;
#X connect 9 0 33 0;
#X connect 9 1 2 0;
#X connect 11 0 7 1;
#X connect 12 0 0 0;
#X connect 13 0 14 0;
#X connect 15 0 17 0;
#X connect 16 0 18 0;
#X connect 17 0 16 0;
#X connect 17 1 20 0;
#X connect 18 0 19 0;
#X connect 18 0 37 0;
#X connect 19 0 18 1;
#X connect 20 0 18 1;
#X connect 21 0 15 0;
#X connect 21 1 12 0;
#X connect 21 2 13 0;
#X connect 22 0 31 0;
#X connect 22 1 1 1;
#X connect 22 1 2 1;
#X connect 22 1 25 1;
#X connect 23 0 24 0;
#X connect 24 0 22 0;
#X connect 26 0 23 0;
#X connect 27 0 30 0;
#X connect 28 0 29 0;
#X connect 29 0 30 0;
#X connect 29 1 36 0;
#X connect 30 0 21 0;
#X connect 31 0 3 0;
#X connect 31 0 34 0;
#X connect 33 0 10 0;
#X connect 34 0 25 0;
#X connect 35 0 38 0;
#X connect 36 0 31 1;
#X connect 37 0 26 0;
#X connect 38 0 34 1;
#X connect 38 0 33 1;
#X restore 104 309 pd init;
#X floatatom 201 353 5 0 0 0 - - -;
#X floatatom 198 150 5 0 0 0 - - -;
#X text 129 124 cols;
#X text 198 124 rows;
#N canvas 0 0 1004 682 get-col 0;
#X obj 42 229 metro 1000;
#X obj 42 405 set \$0-col vis;
#X obj 89 203 pointer;
#X obj 89 345 pointer;
#X msg 89 316 next;
#X msg 173 344 traverse pd-data \, next;
#X obj 42 40 t a a;
#X obj 42 286 t b b b;
#X msg 89 175 traverse pd-data \, next;
#X obj 89 68 sel 1;
#N canvas 0 0 306 246 clear-box 0;
#X msg 76 69 traverse pd-data;
#X obj 19 41 t b b;
#X obj 76 138 pointer;
#X msg 19 96 next;
#X obj 19 69 until;
#X obj 76 193 set \$0-col vis;
#X msg 76 165 list 0 \$1;
#X obj 19 14 inlet;
#X connect 0 0 2 0;
#X connect 1 0 4 0;
#X connect 1 1 0 0;
#X connect 2 0 6 0;
#X connect 2 1 4 1;
#X connect 3 0 2 0;
#X connect 4 0 3 0;
#X connect 6 0 5 0;
#X connect 7 0 1 0;
#X restore 233 124 pd clear-box;
#X obj 42 375 1;
#X obj 81 375 0;
#X obj 22 614 element \$0-col nums;
#X obj 89 438 getsize \$0-col nums;
#X obj 22 431 f;
#X msg 204 313 traverse pd-data;
#X obj 22 257 t b b;
#X obj 22 458 max 1;
#X obj 22 515 until;
#X obj 22 545 f;
#X obj 85 546 + 1;
#X obj 22 485 t a b;
#X obj 82 515 0;
#X obj 22 641 get \$0-num n;
#X msg 135 515 set;
#X obj 22 697 outlet;
#X obj 42 12 inlet;
#X obj 195 10 inlet;
#X obj 22 572 t a a;
#X obj 85 573 sel;
#X obj 182 643 list;
#X obj 182 670 t a;
#X obj 182 697 spigot;
#X obj 239 611 1;
#X obj 89 95 t b b;
#X text 364 124 this clears the previous selection \, but causes a
studder when there's lots of columns (e.g. \, 60);
#X connect 0 0 17 0;
#X connect 2 0 1 1;
#X connect 3 0 1 1;
#X connect 3 0 13 1;
#X connect 3 0 14 0;
#X connect 3 1 5 0;
#X connect 4 0 3 0;
#X connect 5 0 3 0;
#X connect 6 0 0 0;
#X connect 6 1 9 0;
#X connect 7 0 11 0;
#X connect 7 1 4 0;
#X connect 7 2 12 0;
#X connect 8 0 2 0;
#X connect 9 0 35 0;
#X connect 11 0 1 0;
#X connect 12 0 1 0;
#X connect 13 0 24 0;
#X connect 14 0 15 1;
#X connect 15 0 18 0;
#X connect 16 0 3 0;
#X connect 17 0 15 0;
#X connect 17 1 7 0;
#X connect 18 0 22 0;
#X connect 18 0 30 1;
#X connect 19 0 20 0;
#X connect 20 0 29 0;
#X connect 21 0 20 1;
#X connect 21 0 30 0;
#X connect 22 0 19 0;
#X connect 22 1 23 0;
#X connect 22 1 25 0;
#X connect 22 1 31 1;
#X connect 23 0 20 1;
#X connect 23 0 33 1;
#X connect 24 0 31 0;
#X connect 27 0 6 0;
#X connect 28 0 0 1;
#X connect 29 0 13 0;
#X connect 29 1 21 0;
#X connect 30 0 34 0;
#X connect 31 0 32 0;
#X connect 32 0 31 1;
#X connect 32 0 33 0;
#X connect 33 0 26 0;
#X connect 34 0 33 1;
#X connect 35 0 8 0;
#X connect 35 0 16 0;
#X connect 35 1 10 0;
#X restore 104 380 pd get-col;
#X text 122 352 go;
#X text 262 352 rate (ms);
#X msg 270 -1 \; pd-data write file.txt;
#X msg 271 46 \; pd-data read file.txt;
#X text 89 -2 visualization;
#X obj 104 187 bng 25 250 50 0 empty empty empty 17 7 0 10 -262144
-1 -1;
#X text 133 187 go!;
#X obj 104 407 print col;
#X obj 104 228 f;
#X obj 104 255 pack;
#X obj 104 282 unpack;
#X text 320 243 nbox drawing instructions;
#X obj 315 166 drawpolygon 444 1 -10 y0(0:1000)(-2:998) 41 y0(0:1000)(-2:998)
41 y0(0:1000)(17:1017) -10 y0(0:1000)(17:1017) -5 y0(0:1000)(8:1018)
-10 y0(0:1000)(-2:998) -10 y0(0:1000)(17:1017);
#X text 65 144 1;
#X text 65 185 2;
#X text 64 350 3;
#X text 316 265 ( drop this in pd-\$0-num );
#X connect 3 0 4 0;
#X connect 5 0 23 1;
#X connect 8 0 14 0;
#X connect 10 0 14 1;
#X connect 11 0 24 1;
#X connect 14 0 22 0;
#X connect 20 0 23 0;
#X connect 23 0 24 0;
#X connect 24 0 25 0;
#X connect 25 0 9 0;
#X connect 25 1 9 1;
