#N canvas 190 26 799 657 10;
#X obj 125 318 soundfiler;
#N canvas 0 0 450 300 (subpatch) 0;
#X array \$0-s 109189 float 2;
#X coords 0 1 109189 -1 70 50 1;
#X restore 147 126 graph;
#X obj 427 467 outlet~;
#X obj 5 97 inlet;
#X obj 86 239 openpanel;
#X obj 105 166 bng 30 250 50 0 empty empty empty 17 7 0 10 -203904
-16662 -1;
#X obj 125 348 t b;
#X obj 201 365 pipe 10;
#X obj 246 -7 loadbang;
#X obj 247 237 f \$0;
#X floatatom 262 215 5 0 0 0 - - -;
#X obj 248 256 makefilename %d-s;
#X obj 159 237 symbol;
#X msg 127 291 read -resize \$1 \$2;
#X obj 108 204 t b b;
#X obj 116 270 pack s s;
#X obj 190 438 s \$0-s;
#X obj 331 319 print;
#X msg 204 395 normalize 1;
#X obj 150 110 hsl 65 15 0 1 0 0 empty empty loop_start 10 8 0 8 -159808
-262144 -33289 1900 0;
#X obj 150 177 hsl 65 15 0 1 0 0 empty empty loop_end 10 8 0 8 -232576
-45076 -1 4000 0;
#X obj 225 118 *;
#X obj 252 117 *;
#X obj 252 141 int;
#X obj 225 142 int;
#X obj 230 94 r filesize;
#X obj 239 186 s lstart;
#X obj 252 167 s lend;
#X obj 446 324 mtosr 44100;
#X msg 422 145 type 0;
#X msg 409 91 type 1;
#X floatatom 526 363 6 0 0 0 - - -;
#X floatatom 592 363 6 0 0 0 - - -;
#X text 519 319 loopstart;
#X text 589 320 loopend;
#X obj 427 399 susloop~ 4000 12000;
#X obj 592 339 r lend;
#X obj 526 341 r lstart;
#X obj 427 423 tabread4~ \$0-s;
#X obj 211 335 s filesize;
#X floatatom 105 115 5 0 0 2 - - -;
#X obj 42 97 inlet;
#X floatatom 106 146 5 0 0 2 - - -;
#X text 102 99 ttempo;
#X text 102 130 tpitch;
#X obj 427 446 fx.pitch.shift~;
#X msg 101 78 60;
#X obj 220 33 t b b;
#X obj 347 150 tgl 8 0 empty empty empty 17 7 0 10 -232576 -1 -1 0
1;
#X obj 448 301 r \$0-ttempo;
#X obj 519 422 r \$0-tpich;
#X obj 31 207 s \$0-tpich;
#X obj 13 158 s \$0-ttempo;
#X connect 0 0 6 0;
#X connect 0 0 39 0;
#X connect 3 0 40 0;
#X connect 4 0 15 0;
#X connect 5 0 14 0;
#X connect 6 0 7 0;
#X connect 7 0 18 0;
#X connect 8 0 47 0;
#X connect 9 0 11 0;
#X connect 10 0 9 0;
#X connect 11 0 12 1;
#X connect 12 0 15 1;
#X connect 13 0 0 0;
#X connect 13 0 17 0;
#X connect 14 0 4 0;
#X connect 14 1 12 0;
#X connect 15 0 13 0;
#X connect 18 0 16 0;
#X connect 19 0 21 0;
#X connect 20 0 22 0;
#X connect 21 0 24 0;
#X connect 22 0 23 0;
#X connect 23 0 27 0;
#X connect 24 0 26 0;
#X connect 25 0 21 1;
#X connect 25 0 22 1;
#X connect 28 0 35 0;
#X connect 29 0 35 0;
#X connect 30 0 35 0;
#X connect 31 0 35 1;
#X connect 32 0 35 2;
#X connect 35 0 38 0;
#X connect 36 0 32 0;
#X connect 37 0 31 0;
#X connect 38 0 45 0;
#X connect 40 0 52 0;
#X connect 41 0 42 0;
#X connect 42 0 51 0;
#X connect 45 0 2 0;
#X connect 46 0 40 0;
#X connect 47 0 46 0;
#X connect 47 1 9 0;
#X connect 49 0 28 0;
#X connect 50 0 45 1;
#X coords 0 -1 1 1 120 100 2 100 100;
