#N canvas 0 0 450 300 10;
#X obj 121 100 int;
#X floatatom 151 71 5 0 0 0 - - -;
#X floatatom 120 131 5 0 0 0 - - -;
#X obj 117 73 bng 15 250 50 0 empty empty empty 17 7 0 10 -262144 -1
-1;
#X text 189 72 1) mude;
#X text 156 132 2)so muda com o bang;
#X text 89 56 3)bang!;
#X connect 0 0 2 0;
#X connect 1 0 0 1;
#X connect 3 0 0 0;
