#N canvas 675 262 450 300 10;
#X obj 63 145 readsf~ 4 1e+06;
#X msg 71 76 0;
#X msg 63 48 1;
#X obj 69 272 dac~;
#X msg 45 11 open /home/everton/cela.wav;
#X obj 99 236 *~;
#X floatatom 157 204 5 0 3 0 - - -;
#X obj 49 238 *~;
#X obj 187 170 / 10;
#X floatatom 221 132 5 0 30 0 - - -;
#X obj 234 96 hsl 128 15 0 30 0 0 empty empty empty -2 -6 0 10 -4034
-1 -1 9100 1;
#X connect 0 1 5 0;
#X connect 0 1 7 0;
#X connect 1 0 0 0;
#X connect 2 0 0 0;
#X connect 4 0 0 0;
#X connect 5 0 3 1;
#X connect 6 0 5 1;
#X connect 6 0 7 1;
#X connect 7 0 3 0;
#X connect 8 0 6 0;
#X connect 9 0 8 0;
#X connect 10 0 9 0;
