#N canvas 549 153 851 864 10;
#X obj 234 469 pdp_glx;
#X obj 227 100 bng 15 250 50 0 empty empty empty 20 8 0 8 -262144 -1
-1;
#X msg 123 139 loop \$1;
#X obj 126 120 tgl 15 0 empty empty empty 20 8 0 8 -262144 -1 -1 1
1;
#X msg 119 80 open \$1;
#X obj 118 56 openpanel;
#X obj 103 39 bng 15 250 50 0 empty empty empty 20 8 0 8 -262144 -1
-1;
#X msg 184 101 stop;
#X obj 36 177 pdp_ieee1394;
#X obj 36 145 metro 70;
#X obj 83 104 bng 15 250 50 0 empty empty empty 20 8 0 8 -262144 -1
-1;
#X msg 40 105 stop;
#X obj 716 529 tgl 15 0 empty empty empty 0 -6 0 8 -262144 -1 -1 0
1;
#X obj 716 581 pdp_control;
#X msg 716 554 thread \$1;
#X floatatom 716 642 5 0 0 0 - - -;
#X obj 716 613 route pdp_drop;
#X text 35 641 written by Yves Degoyon ( ydegoyon@free.fr );
#X floatatom 189 169 5 0 0 0 - - -;
#X text 35 577 pdp_canvas : displaying several video sources;
#X text 34 591 constructor : pdp_canvas <width> <height> <nb inputs>
;
#X text 419 495 <-- you can move video sources by dragging them around
;
#X obj 470 99 bng 15 250 50 0 empty empty empty 20 8 0 8 -262144 -1
-1;
#X msg 366 138 loop \$1;
#X obj 367 116 tgl 15 0 empty empty empty 20 8 0 8 -262144 -1 -1 1
1;
#X msg 362 79 open \$1;
#X obj 361 55 openpanel;
#X obj 346 38 bng 15 250 50 0 empty empty empty 20 8 0 8 -262144 -1
-1;
#X msg 427 100 stop;
#X obj 283 178 pdp_ieee1394;
#X obj 290 154 metro 70;
#X obj 337 113 bng 15 250 50 0 empty empty empty 20 8 0 8 -262144 -1
-1;
#X msg 294 114 stop;
#X floatatom 432 168 5 0 0 0 - - -;
#X obj 735 96 bng 15 250 50 0 empty empty empty 20 8 0 8 -262144 -1
-1;
#X msg 631 135 loop \$1;
#X obj 632 113 tgl 15 0 empty empty empty 20 8 0 8 -262144 -1 -1 1
1;
#X msg 627 76 open \$1;
#X obj 626 52 openpanel;
#X obj 611 35 bng 15 250 50 0 empty empty empty 20 8 0 8 -262144 -1
-1;
#X msg 692 97 stop;
#X obj 695 134 metro 70;
#X obj 548 176 pdp_ieee1394;
#X obj 548 152 metro 70;
#X obj 595 111 bng 15 250 50 0 empty empty empty 20 8 0 8 -262144 -1
-1;
#X msg 552 112 stop;
#X floatatom 697 165 5 0 0 0 - - -;
#X text 36 605 note : the maximum number of inputs is 10;
#X text 36 618 ( easily hackable in the code );
#X text 544 397 Change offsets of first video source;
#X obj 548 351 pack f f;
#X floatatom 549 312 5 0 0 0 - - -;
#X floatatom 599 312 5 0 0 0 - - -;
#X obj 589 331 t b f;
#X text 564 294 X;
#X text 609 293 Y;
#X obj 81 315 loadbang;
#X msg 173 540 select \$1 \$2;
#X msg 279 539 drag \$1 \$2;
#X msg 367 538 unselect;
#X msg 154 432 cursor 1;
#X obj 122 198 pdp_scale 320 240;
#X obj 284 202 pdp_scale 320 240;
#X obj 546 199 pdp_scale 320 240;
#X obj 234 497 route press drag release;
#X obj 187 138 metro 40;
#X obj 431 137 metro 40;
#X obj 121 177 pdp_yqt;
#X obj 367 177 pdp_yqt;
#X obj 632 174 pdp_yqt;
#X msg 225 42 play;
#X msg 548 375 offset 3 \$1 \$2;
#X obj 438 353 pack f f;
#X floatatom 439 314 5 0 0 0 - - -;
#X floatatom 489 314 5 0 0 0 - - -;
#X obj 479 333 t b f;
#X text 454 296 X;
#X text 499 295 Y;
#X obj 321 348 pack f f;
#X floatatom 322 309 5 0 0 0 - - -;
#X floatatom 372 309 5 0 0 0 - - -;
#X obj 362 328 t b f;
#X text 337 291 X;
#X text 382 290 Y;
#X msg 321 372 offset 1 \$1 \$2;
#X msg 438 377 offset 2 \$1 \$2;
#X msg 82 341 offset 2 321 0;
#X msg 81 365 offset 3 642 0;
#X msg 112 461 fullscreen;
#X msg 83 393 dim 963 240;
#X obj 234 432 pdp_canvas 963 240 3;
#X connect 0 0 64 0;
#X connect 1 0 65 0;
#X connect 2 0 67 0;
#X connect 3 0 2 0;
#X connect 4 0 67 0;
#X connect 5 0 4 0;
#X connect 6 0 5 0;
#X connect 7 0 65 0;
#X connect 8 0 61 0;
#X connect 9 0 8 0;
#X connect 10 0 9 0;
#X connect 11 0 9 0;
#X connect 12 0 14 0;
#X connect 13 0 16 0;
#X connect 14 0 13 0;
#X connect 16 0 15 0;
#X connect 18 0 67 1;
#X connect 22 0 66 0;
#X connect 23 0 68 0;
#X connect 24 0 23 0;
#X connect 25 0 68 0;
#X connect 26 0 25 0;
#X connect 27 0 26 0;
#X connect 28 0 66 0;
#X connect 29 0 62 0;
#X connect 30 0 29 0;
#X connect 31 0 30 0;
#X connect 32 0 30 0;
#X connect 33 0 68 1;
#X connect 34 0 41 0;
#X connect 35 0 69 0;
#X connect 36 0 35 0;
#X connect 37 0 69 0;
#X connect 38 0 37 0;
#X connect 39 0 38 0;
#X connect 40 0 41 0;
#X connect 41 0 69 0;
#X connect 42 0 63 0;
#X connect 43 0 42 0;
#X connect 44 0 43 0;
#X connect 45 0 43 0;
#X connect 46 0 69 1;
#X connect 50 0 71 0;
#X connect 51 0 50 0;
#X connect 52 0 53 0;
#X connect 53 0 50 0;
#X connect 53 1 50 1;
#X connect 56 0 86 0;
#X connect 56 0 87 0;
#X connect 56 0 89 0;
#X connect 57 0 90 0;
#X connect 58 0 90 0;
#X connect 59 0 90 0;
#X connect 60 0 0 0;
#X connect 61 0 90 1;
#X connect 62 0 90 2;
#X connect 63 0 90 3;
#X connect 64 0 57 0;
#X connect 64 1 58 0;
#X connect 64 2 59 0;
#X connect 65 0 67 0;
#X connect 66 0 68 0;
#X connect 67 0 61 0;
#X connect 68 0 62 0;
#X connect 69 0 63 0;
#X connect 70 0 67 0;
#X connect 70 0 68 0;
#X connect 70 0 69 0;
#X connect 71 0 90 0;
#X connect 72 0 85 0;
#X connect 73 0 72 0;
#X connect 74 0 75 0;
#X connect 75 0 72 0;
#X connect 75 1 72 1;
#X connect 78 0 84 0;
#X connect 79 0 78 0;
#X connect 80 0 81 0;
#X connect 81 0 78 0;
#X connect 81 1 78 1;
#X connect 84 0 90 0;
#X connect 85 0 90 0;
#X connect 86 0 90 0;
#X connect 87 0 90 0;
#X connect 88 0 0 0;
#X connect 89 0 0 0;
#X connect 90 0 60 0;
#X connect 90 0 0 0;
