#N canvas 735 316 392 262 10;
#X declare -path ../abs;
#N canvas 685 353 93 71 abslist 0;
#X msg 7 7 vs-trackgui;
#X msg 7 28 jamx;
#X restore 5 102 pd abslist;
#X text 5 2 Video-Sampler by Johannes Krause \, Max Neupert 2007;
#N canvas 1127 575 454 215 qseq.list 0;
#X obj 6 15 loadbang;
#X obj 6 37 s qseq.listbang;
#X obj 6 79 r qseq.getlist;
#X obj 6 142 s qseq.list;
#X msg 6 101 channel_1 \, channel_2 \, channel_3 \, channel_4;
#X connect 0 0 1 0;
#X connect 2 0 4 0;
#X connect 4 0 3 0;
#X restore 6 82 pd qseq.list;
#N canvas 573 31 379 475 av-sampler-gui 0;
#X obj 9 394 r netpd-receive;
#X msg 220 393 44.1;
#X msg 220 411 32;
#X msg 220 375 48;
#X text 201 355 kHz Samplerate;
#X text 247 373 default;
#X obj 193 433 s samplerate;
#X obj 91 431 nbx 5 14 0 60 0 0 ENVSIZE ENVSIZE-r empty 0 -8 0 10 -262144
-1 -1 0 256;
#X text 92 412 ramping;
#X text 150 427 ms;
#X text 1 353 use the qseq2 sequencer;
#X obj 0 82 vs-trackgui \$0 2;
#X obj 0 -9 vs-trackgui \$0 1;
#X obj 0 264 vs-trackgui \$0 4;
#X obj 0 173 vs-trackgui \$0 3;
#X obj 9 428 print netpd;
#X connect 0 0 15 0;
#X connect 1 0 6 0;
#X connect 2 0 6 0;
#X connect 3 0 6 0;
#X restore 7 21 pd av-sampler-gui;
#N canvas 70 345 343 418 av-sampler 0;
#X obj 4 -174 netpd-x \$0 video-sampler;
#X obj 4 -114 jamx \$0 video-sampler 2;
#X obj 4 -71 unpack f f;
#X obj 4 -94 route 48 49 50 51;
#X obj 4 -51 t b f;
#X obj 35 -6 unpack f f;
#X obj 35 14 t b f;
#X obj 62 58 unpack f f;
#X obj 62 77 t b f;
#X obj 93 117 unpack f f;
#X obj 94 138 t b f;
#X obj 4 -135 netpd-fx \$0 ENVSIZE ENVSIZE-r 3;
#X obj 4 -32 s 1-retrigger;
#X obj 35 33 s 2-retrigger;
#X obj 62 96 s 3-retrigger;
#X obj 94 158 s 4-retrigger;
#X obj 4 -154 netpd-fx \$0 samplerate samplerate-r 48;
#X connect 1 0 3 0;
#X connect 2 0 4 0;
#X connect 3 0 2 0;
#X connect 3 1 5 0;
#X connect 3 2 7 0;
#X connect 3 3 9 0;
#X connect 4 0 12 0;
#X connect 5 0 6 0;
#X connect 6 0 13 0;
#X connect 7 0 8 0;
#X connect 8 0 14 0;
#X connect 9 0 10 0;
#X connect 10 0 15 0;
#X restore 7 41 pd av-sampler;
#X msg 7 61 version 0.0.33;
#X obj 6 123 declare -path ../abs;
