#N canvas 1030 101 460 695 10;
#X obj 176 38 snapshot~;
#X obj 176 -30 tgl 15 0 empty empty empty 0 -6 0 8 -262144 -1 -1 1
1;
#X obj 177 57 snapshot~;
#X obj 178 75 snapshot~;
#X obj 177 94 snapshot~;
#X obj 33 110 / 1;
#X obj 84 132 / 1;
#X obj 141 156 / 1;
#X obj 208 178 / 1;
#X obj 175 -51 r ldb;
#X obj 176 -13 metro 15;
#X obj 176 7 t b b b b;
#X obj 230 -30 nbx 3 14 5 80 0 0 empty empty empty 0 -8 0 10 -262144
-1 -1 10 256;
#X obj 5 239 pack f f;
#X msg 4 111 1;
#X msg 57 132 2;
#X obj 124 415 catch~ right;
#X obj 39 415 catch~ left;
#X obj 39 517 dac~;
#X obj 7 -38 route 1 2 3 4;
#X obj 278 -77 s samplingrate;
#X msg 284 -100 48;
#X msg 112 155 3;
#X msg 177 178 4;
#X obj 4 90 t b f;
#X obj 57 111 t b f;
#X obj 112 134 t b f;
#X obj 177 157 t b f;
#X obj 234 325 nbx 5 14 0 30 0 0 empty \$0-ENV empty 0 -8 0 10 -262144
-1 -1 5 256;
#X obj 245 342 s ENVSIZE;
#X msg 19 323 pd~ stop;
#X msg 5 259 frame \$1 \$2;
#X msg 107 260 control \$1 \$2 \$3;
#X msg 8 -107 bang;
#N canvas 562 316 450 300 init 0;
#X obj 14 -76 loadbang;
#X obj 117 -28 s ldb;
#X msg 14 112 \; pd dsp 1;
#X msg 101 -6 \; samplingrate 48;
#X obj 15 -54 t b b b b b b b;
#X obj 82 50 s \$0-ENV;
#X msg 82 29 5;
#X msg 11 156 \; pd audio-dialog 0 0 0 0 -2 0 0 0 0 0 0 0 2 0 0 0 48000
80 0;
#X connect 0 0 4 0;
#X connect 4 0 2 0;
#X connect 4 3 7 0;
#X connect 4 4 6 0;
#X connect 4 5 3 0;
#X connect 4 6 1 0;
#X connect 6 0 5 0;
#X restore 217 -121 pd init;
#X msg 235 362 envelope \$1;
#X text 6 -127 BREAKUP by Max Neupert 2009;
#X msg 279 -120 44.1;
#X obj 4 392 pd~ -sr 48000 -noutsig 0;
#X text 317 -100 default;
#N canvas 171 448 999 305 control 0;
#X obj 40 -18 inlet;
#X obj 43 254 outlet;
#N canvas 478 22 450 300 init 0;
#X obj 66 243 outlet;
#X restore 79 221 pd init;
#X msg 162 169 1;
#X msg 175 188 2;
#X msg 184 208 3;
#X msg 194 229 4;
#X obj 42 202 list trim;
#X obj 99 255 print send;
#X obj 185 61 hsl 315 15 1 315 0 0 empty empty empty -2 -8 0 10 -262144
-1 -1 0 1;
#X obj 180 139 list prepend in;
#X obj 278 139 list prepend out;
#X obj 382 138 list prepend speed;
#X obj 505 62 vsl 15 70 0 70 0 0 empty empty empty 0 -9 0 10 -262144
-1 -1 0 1;
#X obj 496 138 list prepend volume;
#X obj 185 80 hsl 315 15 1 315 0 0 empty empty empty -2 -8 0 10 -262144
-1 -1 0 1;
#X obj 185 99 hsl 315 15 1 315 0 0 empty empty empty -2 -8 0 10 -262144
-1 -1 0 1;
#X obj 732 137 list prepend pan;
#X obj 737 106 hsl 10 15 -1 1 0 0 empty empty empty -2 -8 0 10 -262144
-1 -1 0 1;
#X obj 618 139 list prepend pause;
#X obj 832 139 list prepend mute;
#X obj 834 116 tgl 15 0 empty empty empty 17 7 0 10 -262144 -1 -1 0
1;
#X obj 184 117 hsl 315 15 1 315 0 0 empty empty empty -2 -8 0 10 -262144
-1 -1 0 1;
#X obj 41 180 list prepend 1;
#X obj 155 -17 inlet;
#X floatatom 370 222 5 0 0 0 - - -;
#X floatatom 743 179 5 0 0 0 - - -;
#X floatatom 533 185 5 0 0 0 - - -;
#X floatatom 445 179 5 0 0 0 - - -;
#X floatatom 445 197 5 0 0 0 - - -;
#X connect 0 0 23 0;
#X connect 2 0 1 0;
#X connect 3 0 23 1;
#X connect 4 0 23 1;
#X connect 5 0 23 1;
#X connect 6 0 23 1;
#X connect 7 0 1 0;
#X connect 9 0 10 0;
#X connect 10 0 23 0;
#X connect 11 0 23 0;
#X connect 12 0 23 0;
#X connect 13 0 14 0;
#X connect 13 0 27 0;
#X connect 14 0 23 0;
#X connect 15 0 11 0;
#X connect 16 0 12 0;
#X connect 16 0 28 0;
#X connect 17 0 23 0;
#X connect 18 0 17 0;
#X connect 18 0 26 0;
#X connect 19 0 23 0;
#X connect 20 0 23 0;
#X connect 21 0 20 0;
#X connect 22 0 19 0;
#X connect 22 0 25 0;
#X connect 23 0 7 0;
#X connect 24 0 23 1;
#X connect 28 0 29 0;
#X restore 7 -64 pd control;
#N canvas 225 167 642 584 random 0;
#X obj 11 524 outlet;
#X obj 12 465 pack s f f f f f f;
#X obj 79 248 random 316;
#X obj 83 272 + 1;
#X obj 155 250 random 316;
#X obj 155 274 + 1;
#X obj 232 251 random 316;
#X obj 232 275 + 1;
#X obj 309 252 random 316;
#X obj 310 275 + 1;
#X obj 387 274 random 71;
#X msg 12 490 file \$1 \, in \$2 \, out \$3 \, speed \$4 \, pause \$5
\, volume \$6 \, pan \$7;
#X obj 465 318 - 1;
#X obj 465 275 random 100;
#X obj 465 296 / 50;
#X obj 12 200 t b b b b b b b;
#X obj 148 200 outlet;
#X obj 11 123 t f b;
#X msg 11 75 clear;
#X obj 12 146 + 1;
#X msg 58 54 4;
#X obj 58 75 until;
#X obj 12 166 t b f;
#X obj 12 8 inlet;
#X msg 245 305 0;
#X msg 210 374 faust;
#X obj 12 328 f;
#X obj 42 327 + 1;
#X obj 74 326 % 4;
#X msg 28 395 oboe;
#X obj 12 352 sel 0 1 2 3;
#X msg 93 383 kusch2;
#X obj 12 30 t b b;
#X msg 64 406 klarinette3-2;
#X msg 219 392 faust2;
#X msg 237 404 faust3;
#X msg 261 417 faust4;
#X msg 365 419 schellenreif;
#X msg 467 418 pauke4-2;
#X msg 537 418 cymbal;
#X msg 292 461 pauke4;
#X obj 11 102 urne 4;
#X connect 1 0 11 0;
#X connect 2 0 3 0;
#X connect 3 0 1 1;
#X connect 4 0 5 0;
#X connect 5 0 1 2;
#X connect 6 0 7 0;
#X connect 7 0 1 3;
#X connect 8 0 9 0;
#X connect 10 0 1 5;
#X connect 11 0 0 0;
#X connect 12 0 1 6;
#X connect 13 0 14 0;
#X connect 14 0 12 0;
#X connect 15 0 26 0;
#X connect 15 1 2 0;
#X connect 15 2 4 0;
#X connect 15 3 6 0;
#X connect 15 4 8 0;
#X connect 15 5 10 0;
#X connect 15 6 13 0;
#X connect 17 0 19 0;
#X connect 18 0 41 0;
#X connect 19 0 22 0;
#X connect 20 0 21 0;
#X connect 21 0 41 0;
#X connect 22 0 15 0;
#X connect 22 1 16 0;
#X connect 23 0 32 0;
#X connect 24 0 1 4;
#X connect 25 0 1 0;
#X connect 26 0 27 0;
#X connect 26 0 30 0;
#X connect 27 0 28 0;
#X connect 28 0 26 1;
#X connect 29 0 1 0;
#X connect 30 0 37 0;
#X connect 30 1 38 0;
#X connect 30 2 39 0;
#X connect 30 3 40 0;
#X connect 31 0 1 0;
#X connect 32 0 18 0;
#X connect 32 1 20 0;
#X connect 33 0 1 0;
#X connect 34 0 1 0;
#X connect 35 0 1 0;
#X connect 36 0 1 0;
#X connect 37 0 1 0;
#X connect 38 0 1 0;
#X connect 39 0 1 0;
#X connect 40 0 1 0;
#X connect 41 0 17 0;
#X restore 7 -86 pd random;
#X obj 161 221 nbx 5 14 -1e+37 1e+37 0 0 empty empty empty 0 -8 0 10
-262144 -1 -1 30 256;
#X msg 161 239 fps \$1;
#N canvas 491 259 875 556 score 0;
#X obj 64 29 tgl 15 0 empty empty empty 17 7 0 10 -262144 -1 -1 0 1
;
#X obj 106 8 loadbang;
#X msg 106 29 1;
#X obj 151 76 + 1;
#X floatatom 119 100 5 0 0 0 - - -;
#X obj 106 50 metro 1000;
#X text 168 99 timeline;
#X obj 180 76 % 216;
#X obj 194 515 outlet;
#X msg 304 13 1;
#N canvas 25 65 426 522 quiet 0;
#X obj 34 7 inlet;
#X obj 103 143 s QUIET;
#X obj 34 46 sel on off;
#X msg 34 204 \; pd dsp 1;
#X msg 83 166 \; pd dsp 0;
#X msg 104 116 0 20;
#X msg 66 117 1 20;
#X obj 83 91 del 25;
#X obj 35 91 del 25;
#X obj 34 27 symbol;
#X obj 91 69 t b b b;
#X obj 327 417 outlet;
#X msg 218 347 3 volume \$1;
#X msg 239 326 4 volume \$1;
#X msg 179 388 1 volume \$1;
#X msg 198 368 2 volume \$1;
#X obj 178 300 t f f f f;
#X msg 178 94 0;
#X obj 34 69 t b b;
#X connect 0 0 9 0;
#X connect 2 0 18 0;
#X connect 2 1 10 0;
#X connect 5 0 1 0;
#X connect 6 0 1 0;
#X connect 7 0 4 0;
#X connect 8 0 3 0;
#X connect 9 0 2 0;
#X connect 10 0 7 0;
#X connect 10 1 5 0;
#X connect 10 2 17 0;
#X connect 12 0 11 0;
#X connect 13 0 11 0;
#X connect 14 0 11 0;
#X connect 15 0 11 0;
#X connect 16 0 14 0;
#X connect 16 1 15 0;
#X connect 16 2 12 0;
#X connect 16 3 13 0;
#X connect 17 0 16 0;
#X connect 18 0 8 0;
#X connect 18 1 6 0;
#X restore 634 194 pd quiet;
#X msg 567 174 on;
#X msg 633 171 off;
#N canvas 863 89 450 432 select-files 0;
#X obj 163 10 inlet;
#X obj 36 311 outlet;
#N canvas 650 299 461 499 kuschset 0;
#X obj 31 394 outlet;
#X obj 31 243 route 0 1 2 3;
#X msg 97 272 \$1 file kusch4;
#X msg 76 294 \$1 file kusch3;
#X msg 31 337 \$1 file kusch1;
#X obj 31 48 inlet;
#X obj 31 130 urne 4;
#X msg 81 111 clear;
#X obj 32 68 t b b;
#X msg 31 89 4;
#X obj 31 110 until;
#X obj 32 152 + 1;
#X obj 30 223 list append;
#X obj 30 173 t b f;
#X obj 31 195 random 4;
#X msg 53 315 \$1 file kusch2;
#X connect 1 0 4 0;
#X connect 1 1 15 0;
#X connect 1 2 3 0;
#X connect 1 3 2 0;
#X connect 2 0 0 0;
#X connect 3 0 0 0;
#X connect 4 0 0 0;
#X connect 5 0 8 0;
#X connect 6 0 11 0;
#X connect 7 0 6 0;
#X connect 8 0 9 0;
#X connect 8 1 7 0;
#X connect 9 0 10 0;
#X connect 10 0 6 0;
#X connect 11 0 13 0;
#X connect 12 0 1 0;
#X connect 13 0 14 0;
#X connect 13 1 12 1;
#X connect 14 0 12 0;
#X connect 15 0 0 0;
#X restore 163 286 pd kuschset;
#N canvas 618 319 461 502 kusch1 0;
#X obj 6 352 outlet;
#X obj 13 209 route 0 1 2 3;
#X msg 108 261 \$1 file kusch1;
#X obj 11 13 inlet;
#X obj 11 95 urne 4;
#X msg 61 76 clear;
#X obj 12 33 t b b;
#X msg 11 54 4;
#X obj 11 75 until;
#X obj 12 117 + 1;
#X msg 108 281 \$1 file kusch1;
#X obj 13 188 list append;
#X obj 13 138 t b f;
#X obj 14 160 random 4;
#X msg 108 301 \$1 file kusch2;
#X msg 108 322 \$1 file kusch2;
#X connect 1 0 2 0;
#X connect 1 1 10 0;
#X connect 1 2 14 0;
#X connect 1 3 15 0;
#X connect 2 0 0 0;
#X connect 3 0 6 0;
#X connect 4 0 9 0;
#X connect 5 0 4 0;
#X connect 6 0 7 0;
#X connect 6 1 5 0;
#X connect 7 0 8 0;
#X connect 8 0 4 0;
#X connect 9 0 12 0;
#X connect 10 0 0 0;
#X connect 11 0 1 0;
#X connect 12 0 13 0;
#X connect 12 1 11 1;
#X connect 13 0 11 0;
#X connect 14 0 0 0;
#X connect 15 0 0 0;
#X restore 179 262 pd kusch1;
#N canvas 747 191 452 425 percussion 0;
#X obj 19 384 outlet;
#X obj 11 13 inlet;
#X obj 11 95 urne 4;
#X msg 61 76 clear;
#X obj 12 33 t b b;
#X msg 11 54 4;
#X obj 11 75 until;
#X msg 63 253 \$1 file basstrommel_solo;
#X msg 63 273 \$1 file cymbal;
#X msg 63 293 \$1 file pauke4-2;
#X msg 63 314 \$1 file schellenreif;
#X obj 12 117 + 1;
#X obj 12 188 list append;
#X obj 12 138 t b f;
#X obj 13 160 random 5;
#X obj 13 215 route 0 1 2 3 4;
#X msg 64 336 \$1 file pauke4;
#X connect 1 0 4 0;
#X connect 2 0 11 0;
#X connect 3 0 2 0;
#X connect 4 0 5 0;
#X connect 4 1 3 0;
#X connect 5 0 6 0;
#X connect 6 0 2 0;
#X connect 7 0 0 0;
#X connect 8 0 0 0;
#X connect 9 0 0 0;
#X connect 10 0 0 0;
#X connect 11 0 13 0;
#X connect 12 0 15 0;
#X connect 13 0 14 0;
#X connect 13 1 12 1;
#X connect 14 0 12 0;
#X connect 15 0 7 0;
#X connect 15 1 8 0;
#X connect 15 2 9 0;
#X connect 15 3 10 0;
#X connect 15 4 16 0;
#X connect 16 0 0 0;
#X restore 197 237 pd percussion;
#N canvas 666 124 451 524 brass 0;
#X obj 6 413 outlet;
#X obj 11 13 inlet;
#X obj 11 95 urne 4;
#X msg 61 76 clear;
#X obj 12 33 t b b;
#X msg 11 54 4;
#X obj 11 75 until;
#X obj 12 117 + 1;
#X msg 115 274 \$1 file tuba;
#X msg 115 294 \$1 file tuba2;
#X msg 115 314 \$1 file klarinette3-2;
#X msg 115 335 \$1 file klarinette3;
#X obj 12 188 list append;
#X obj 12 138 t b f;
#X obj 13 160 random 5;
#X msg 115 361 \$1 file horn5;
#X obj 12 207 route 0 1 2 3 4;
#X connect 1 0 4 0;
#X connect 2 0 7 0;
#X connect 3 0 2 0;
#X connect 4 0 5 0;
#X connect 4 1 3 0;
#X connect 5 0 6 0;
#X connect 6 0 2 0;
#X connect 7 0 13 0;
#X connect 8 0 0 0;
#X connect 9 0 0 0;
#X connect 10 0 0 0;
#X connect 11 0 0 0;
#X connect 12 0 16 0;
#X connect 13 0 14 0;
#X connect 13 1 12 1;
#X connect 14 0 12 0;
#X connect 15 0 0 0;
#X connect 16 0 8 0;
#X connect 16 1 9 0;
#X connect 16 2 10 0;
#X connect 16 3 11 0;
#X connect 16 4 15 0;
#X restore 211 213 pd brass;
#N canvas 870 162 568 650 wood 0;
#X obj 49 530 outlet;
#X obj 11 13 inlet;
#X obj 11 95 urne 4;
#X msg 61 76 clear;
#X obj 12 33 t b b;
#X msg 11 54 4;
#X obj 11 75 until;
#X obj 12 117 + 1;
#X msg 138 307 \$1 file oboe;
#X msg 138 327 \$1 file fagott2;
#X msg 138 347 \$1 file horn5;
#X msg 138 368 \$1 file trompete3;
#X obj 12 188 list append;
#X obj 12 138 t b f;
#X msg 139 411 \$1 file klarinette3-2;
#X msg 138 388 \$1 file klarinette3;
#X obj 12 207 route 0 1 2 3 4 5;
#X obj 13 160 random 6;
#X connect 1 0 4 0;
#X connect 2 0 7 0;
#X connect 3 0 2 0;
#X connect 4 0 5 0;
#X connect 4 1 3 0;
#X connect 5 0 6 0;
#X connect 6 0 2 0;
#X connect 7 0 13 0;
#X connect 8 0 0 0;
#X connect 9 0 0 0;
#X connect 10 0 0 0;
#X connect 11 0 0 0;
#X connect 12 0 16 0;
#X connect 13 0 17 0;
#X connect 13 1 12 1;
#X connect 14 0 0 0;
#X connect 15 0 0 0;
#X connect 16 0 8 0;
#X connect 16 1 9 0;
#X connect 16 2 10 0;
#X connect 16 3 11 0;
#X connect 16 4 15 0;
#X connect 16 5 14 0;
#X connect 17 0 12 0;
#X restore 229 189 pd wood;
#N canvas 835 102 507 640 strings 0;
#X obj 37 421 outlet;
#X obj 11 13 inlet;
#X obj 11 95 urne 4;
#X msg 61 76 clear;
#X obj 12 33 t b b;
#X msg 11 54 4;
#X obj 11 75 until;
#X obj 12 117 + 1;
#X msg 151 274 \$1 file chelli3;
#X msg 151 294 \$1 file geige3;
#X msg 151 314 \$1 file bass2;
#X msg 151 335 \$1 file bass;
#X obj 12 188 list append;
#X obj 12 138 t b f;
#X obj 13 160 random 5;
#X obj 12 207 route 0 1 2 3 4;
#X msg 151 356 \$1 file bass2_2;
#X connect 1 0 4 0;
#X connect 2 0 7 0;
#X connect 3 0 2 0;
#X connect 4 0 5 0;
#X connect 4 1 3 0;
#X connect 5 0 6 0;
#X connect 6 0 2 0;
#X connect 7 0 13 0;
#X connect 8 0 0 0;
#X connect 9 0 0 0;
#X connect 10 0 0 0;
#X connect 11 0 0 0;
#X connect 12 0 15 0;
#X connect 13 0 14 0;
#X connect 13 1 12 1;
#X connect 14 0 12 0;
#X connect 15 0 8 0;
#X connect 15 1 9 0;
#X connect 15 2 10 0;
#X connect 15 3 11 0;
#X connect 15 4 16 0;
#X connect 16 0 0 0;
#X restore 250 168 pd strings;
#X obj 164 122 sel 0 1 2 3 4 5 6;
#N canvas 916 142 524 654 hands 0;
#X obj 43 480 outlet;
#X obj 11 13 inlet;
#X obj 11 95 urne 4;
#X msg 61 76 clear;
#X obj 12 33 t b b;
#X msg 11 54 4;
#X obj 11 75 until;
#X obj 12 117 + 1;
#X obj 12 207 route 0 1 2 3;
#X msg 157 333 \$1 file faust;
#X msg 157 353 \$1 file faust4;
#X msg 157 373 \$1 file big_claps;
#X msg 157 394 \$1 file klatsch;
#X obj 12 188 list append;
#X obj 12 138 t b f;
#X obj 13 160 random 4;
#X connect 1 0 4 0;
#X connect 2 0 7 0;
#X connect 3 0 2 0;
#X connect 4 0 5 0;
#X connect 4 1 3 0;
#X connect 5 0 6 0;
#X connect 6 0 2 0;
#X connect 7 0 14 0;
#X connect 8 0 9 0;
#X connect 8 1 10 0;
#X connect 8 2 11 0;
#X connect 8 3 12 0;
#X connect 9 0 0 0;
#X connect 10 0 0 0;
#X connect 11 0 0 0;
#X connect 12 0 0 0;
#X connect 13 0 8 0;
#X connect 14 0 15 0;
#X connect 14 1 13 1;
#X connect 15 0 13 0;
#X restore 265 146 pd hands;
#X obj 164 31 urne 7;
#X msg 237 7 clear;
#X obj 165 54 t f b;
#X obj 196 73 f;
#X obj 225 73 + 1;
#X obj 253 73 % 7;
#X obj 196 94 sel 6;
#X connect 0 0 10 0;
#X connect 2 0 1 0;
#X connect 3 0 1 0;
#X connect 4 0 1 0;
#X connect 5 0 1 0;
#X connect 6 0 1 0;
#X connect 7 0 1 0;
#X connect 8 0 2 0;
#X connect 8 1 3 0;
#X connect 8 2 4 0;
#X connect 8 3 5 0;
#X connect 8 4 6 0;
#X connect 8 5 7 0;
#X connect 8 6 9 0;
#X connect 9 0 1 0;
#X connect 10 0 12 0;
#X connect 11 0 10 0;
#X connect 12 0 8 0;
#X connect 12 1 13 0;
#X connect 13 0 14 0;
#X connect 13 0 16 0;
#X connect 14 0 15 0;
#X connect 15 0 13 1;
#X connect 16 0 11 0;
#X restore -79 436 pd select-files;
#N canvas 833 411 546 377 start 0;
#X obj 25 21 inlet;
#X obj 25 339 outlet;
#X obj 25 55 t b b;
#X obj 345 341 outlet;
#X obj 24 115 score_start;
#X msg 344 279 35 10;
#X connect 0 0 2 0;
#X connect 2 0 4 0;
#X connect 2 1 5 0;
#X connect 4 0 1 0;
#X connect 5 0 3 0;
#X restore -47 217 pd start;
#X obj 36 350 out_voice 1;
#X obj 365 333 in_voice 4;
#X obj 142 352 out_voice 2;
#X obj 247 351 out_voice 3;
#X obj 365 354 out_voice 4;
#X obj 36 331 in_voice 1;
#X obj 142 332 in_voice 2;
#X obj 247 330 in_voice 3;
#X obj 365 373 speed_voice 4;
#X obj 142 372 speed_voice 2;
#X obj 36 370 speed_voice 1;
#X obj 248 370 speed_voice 3;
#X obj 365 392 volume_voice 4;
#X obj 36 390 volume_voice 1;
#X obj 141 390 volume_voice 2;
#X obj 248 390 volume_voice 3;
#X msg -55 410 bang;
#X obj 36 413 pause_voice 1;
#X obj 365 413 pause_voice 4;
#X obj 249 411 pause_voice 3;
#X obj 142 410 pause_voice 2;
#X obj 249 435 pan_voice 3;
#N canvas 761 359 450 395 a-teil 0;
#X obj 40 16 inlet;
#X obj 45 339 outlet;
#X obj 134 340 outlet;
#X obj 43 42 t b b b;
#X obj 340 346 outlet;
#X obj 41 125 score_a-teil;
#X obj 133 126 score_start;
#X msg 338 133 30 10;
#X connect 0 0 3 0;
#X connect 3 0 5 0;
#X connect 3 1 6 0;
#X connect 3 2 7 0;
#X connect 5 0 1 0;
#X connect 6 0 2 0;
#X connect 7 0 4 0;
#X restore 17 217 pd a-teil;
#N canvas 960 384 450 395 b-teil 0;
#X obj 40 16 inlet;
#X obj 45 339 outlet;
#X obj 112 338 outlet;
#X obj 179 338 outlet;
#X obj 340 335 outlet;
#X obj 43 42 t b b b b;
#X obj 41 125 score_b-teil;
#X obj 132 126 score_a-teil;
#X obj 225 126 score_start;
#X msg 342 125 29 15;
#X connect 0 0 5 0;
#X connect 5 0 6 0;
#X connect 5 1 7 0;
#X connect 5 2 8 0;
#X connect 5 3 9 0;
#X connect 6 0 1 0;
#X connect 7 0 2 0;
#X connect 8 0 3 0;
#X connect 9 0 4 0;
#X restore 88 218 pd b-teil;
#N canvas 960 384 450 395 c-teil 0;
#X obj 40 16 inlet;
#X obj 43 42 t b b b b;
#X obj 45 339 outlet;
#X obj 112 338 outlet;
#X obj 251 339 outlet;
#X obj 186 338 outlet;
#X obj 132 126 score_b-teil;
#X obj 226 127 score_a-teil;
#X obj 41 125 score_c-teil;
#X obj 318 127 score_start;
#X connect 0 0 1 0;
#X connect 1 0 8 0;
#X connect 1 1 6 0;
#X connect 1 2 7 0;
#X connect 1 3 9 0;
#X connect 6 0 3 0;
#X connect 7 0 5 0;
#X connect 8 0 2 0;
#X connect 9 0 4 0;
#X restore 158 219 pd c-teil;
#N canvas 862 332 535 410 d-teil 0;
#X obj 40 16 inlet;
#X obj 45 339 outlet;
#X obj 112 338 outlet;
#X obj 251 339 outlet;
#X obj 186 338 outlet;
#X obj 409 338 outlet;
#X obj 43 42 t b b b b b;
#X obj 226 127 score_b-teil;
#X obj 318 127 score_a-teil;
#X obj 41 125 score_c-teil;
#X obj 132 126 score_c-teil;
#X msg 411 126 28 15;
#X connect 0 0 6 0;
#X connect 6 0 9 0;
#X connect 6 1 10 0;
#X connect 6 2 7 0;
#X connect 6 3 8 0;
#X connect 6 4 11 0;
#X connect 7 0 4 0;
#X connect 8 0 3 0;
#X connect 9 0 1 0;
#X connect 10 0 2 0;
#X connect 11 0 5 0;
#X restore 228 220 pd d-teil;
#N canvas 792 328 539 404 e-teil 0;
#X obj 40 16 inlet;
#X obj 45 339 outlet;
#X obj 112 338 outlet;
#X obj 251 339 outlet;
#X obj 186 338 outlet;
#X obj 43 42 t b b b b b;
#X obj 440 342 outlet;
#X obj 318 127 score_b-teil;
#X obj 132 126 score_c-teil;
#X obj 41 125 score_c-teil;
#X obj 226 127 score_c-teil;
#X msg 421 129 25 18;
#X connect 0 0 5 0;
#X connect 5 0 9 0;
#X connect 5 1 8 0;
#X connect 5 2 10 0;
#X connect 5 3 7 0;
#X connect 5 4 11 0;
#X connect 7 0 3 0;
#X connect 8 0 2 0;
#X connect 9 0 1 0;
#X connect 10 0 4 0;
#X connect 11 0 6 0;
#X restore 299 220 pd e-teil;
#N canvas 957 338 462 406 f-teil 0;
#X obj 40 16 inlet;
#X obj 45 339 outlet;
#X obj 132 339 outlet;
#X obj 317 339 outlet;
#X obj 225 338 outlet;
#X obj 43 42 t b b b b b;
#X obj 411 338 outlet;
#X obj 318 127 score_b-teil;
#X obj 41 125 score_c-teil;
#X obj 132 126 score_c-teil;
#X obj 226 127 score_c-teil;
#X msg 411 128 26 20;
#X connect 0 0 5 0;
#X connect 5 0 8 0;
#X connect 5 1 9 0;
#X connect 5 2 10 0;
#X connect 5 3 7 0;
#X connect 5 4 11 0;
#X connect 7 0 3 0;
#X connect 8 0 1 0;
#X connect 9 0 2 0;
#X connect 10 0 4 0;
#X connect 11 0 6 0;
#X restore 369 221 pd f-teil;
#N canvas 957 338 450 395 g-teil 0;
#X obj 40 16 inlet;
#X obj 43 42 t b b b b;
#X obj 45 339 outlet;
#X obj 112 338 outlet;
#X obj 251 339 outlet;
#X obj 186 338 outlet;
#X obj 132 126 score_c-teil;
#X obj 41 125 score_c-teil;
#X obj 226 127 score_c-teil;
#X obj 318 127 score_c-teil;
#X connect 0 0 1 0;
#X connect 1 0 7 0;
#X connect 1 1 6 0;
#X connect 1 2 8 0;
#X connect 1 3 9 0;
#X connect 6 0 3 0;
#X connect 7 0 2 0;
#X connect 8 0 5 0;
#X connect 9 0 4 0;
#X restore 440 221 pd g-teil;
#N canvas 811 407 450 395 finale 0;
#X obj 41 26 inlet;
#X obj 41 52 t b b b b;
#X obj 42 339 outlet;
#X obj 112 338 outlet;
#X obj 251 339 outlet;
#X obj 186 338 outlet;
#X obj 318 127 score_finale;
#X obj 41 125 score_finale;
#X obj 132 126 score_finale;
#X obj 226 127 score_finale;
#X connect 0 0 1 0;
#X connect 1 0 7 0;
#X connect 1 1 8 0;
#X connect 1 2 9 0;
#X connect 1 3 6 0;
#X connect 6 0 4 0;
#X connect 7 0 2 0;
#X connect 8 0 3 0;
#X connect 9 0 5 0;
#X restore 513 220 pd finale;
#X msg 305 32 180;
#X obj 601 510 outlet fps;
#X msg 627 223 10 50;
#X obj 36 435 pan_voice 1;
#X obj 142 434 pan_voice 2;
#X obj 365 436 pan_voice 4;
#X msg 306 51 210;
#X obj 107 76 f 214;
#X obj 106 133 sel 1 10 25 70 100 120 140 170 190 212 215;
#X connect 0 0 5 0;
#X connect 1 0 2 0;
#X connect 2 0 5 0;
#X connect 3 0 7 0;
#X connect 5 0 52 0;
#X connect 7 0 52 1;
#X connect 9 0 52 0;
#X connect 10 0 8 0;
#X connect 11 0 10 0;
#X connect 12 0 10 0;
#X connect 13 0 8 0;
#X connect 14 0 20 0;
#X connect 14 1 46 0;
#X connect 15 0 25 0;
#X connect 16 0 19 0;
#X connect 17 0 24 0;
#X connect 18 0 26 0;
#X connect 19 0 23 0;
#X connect 20 0 15 0;
#X connect 21 0 17 0;
#X connect 22 0 18 0;
#X connect 23 0 27 0;
#X connect 24 0 29 0;
#X connect 25 0 28 0;
#X connect 26 0 30 0;
#X connect 27 0 33 0;
#X connect 28 0 32 0;
#X connect 29 0 35 0;
#X connect 30 0 34 0;
#X connect 31 0 13 0;
#X connect 32 0 48 0;
#X connect 33 0 50 0;
#X connect 34 0 36 0;
#X connect 35 0 49 0;
#X connect 36 0 8 0;
#X connect 37 0 20 0;
#X connect 37 1 21 0;
#X connect 37 2 46 0;
#X connect 38 0 20 0;
#X connect 38 1 21 0;
#X connect 38 2 22 0;
#X connect 38 3 46 0;
#X connect 39 0 20 0;
#X connect 39 1 21 0;
#X connect 39 2 22 0;
#X connect 39 3 16 0;
#X connect 40 0 20 0;
#X connect 40 1 21 0;
#X connect 40 2 22 0;
#X connect 40 3 16 0;
#X connect 40 4 46 0;
#X connect 41 0 20 0;
#X connect 41 1 21 0;
#X connect 41 2 22 0;
#X connect 41 3 16 0;
#X connect 41 4 46 0;
#X connect 42 0 20 0;
#X connect 42 1 21 0;
#X connect 42 2 22 0;
#X connect 42 3 16 0;
#X connect 42 4 46 0;
#X connect 43 0 20 0;
#X connect 43 1 21 0;
#X connect 43 2 22 0;
#X connect 43 3 16 0;
#X connect 44 0 20 0;
#X connect 44 1 21 0;
#X connect 44 2 22 0;
#X connect 44 3 16 0;
#X connect 45 0 52 0;
#X connect 47 0 46 0;
#X connect 48 0 8 0;
#X connect 49 0 8 0;
#X connect 50 0 8 0;
#X connect 51 0 52 0;
#X connect 52 0 3 0;
#X connect 52 0 4 0;
#X connect 52 0 53 0;
#X connect 53 0 13 0;
#X connect 53 1 14 0;
#X connect 53 1 11 0;
#X connect 53 2 37 0;
#X connect 53 3 38 0;
#X connect 53 4 39 0;
#X connect 53 5 40 0;
#X connect 53 6 41 0;
#X connect 53 7 42 0;
#X connect 53 8 43 0;
#X connect 53 9 44 0;
#X connect 53 10 12 0;
#X connect 53 10 47 0;
#X restore 109 -94 pd score;
#X obj 142 459 line~;
#X obj 124 488 *~;
#X obj 39 492 *~;
#X obj 142 438 r QUIET;
#X obj 7 -8 vs-audio-track 1;
#X obj 162 -74 unpack f f;
#X obj 6 13 vs-audio-track 2;
#X obj 6 35 vs-audio-track 3;
#X obj 6 58 vs-audio-track 4;
#X msg 19 302 pd~ start -lib Gem -lib maxlib -lib ext13 visual.pd;
#X obj 20 281 r ldb;
#X text 254 273 -stderr -nogui;
#X connect 0 0 24 0;
#X connect 1 0 10 0;
#X connect 2 0 25 0;
#X connect 3 0 26 0;
#X connect 4 0 27 0;
#X connect 5 0 13 1;
#X connect 6 0 13 1;
#X connect 7 0 13 1;
#X connect 8 0 13 1;
#X connect 9 0 1 0;
#X connect 10 0 11 0;
#X connect 11 0 0 0;
#X connect 11 1 2 0;
#X connect 11 2 3 0;
#X connect 11 3 4 0;
#X connect 12 0 10 1;
#X connect 13 0 31 0;
#X connect 14 0 13 0;
#X connect 15 0 13 0;
#X connect 16 0 46 0;
#X connect 17 0 47 0;
#X connect 19 0 49 0;
#X connect 19 1 51 0;
#X connect 19 2 52 0;
#X connect 19 3 53 0;
#X connect 21 0 20 0;
#X connect 22 0 13 0;
#X connect 23 0 13 0;
#X connect 24 0 14 0;
#X connect 24 1 5 0;
#X connect 25 0 15 0;
#X connect 25 1 6 0;
#X connect 26 0 22 0;
#X connect 26 1 7 0;
#X connect 27 0 23 0;
#X connect 27 1 8 0;
#X connect 28 0 29 0;
#X connect 28 0 35 0;
#X connect 30 0 38 0;
#X connect 31 0 38 0;
#X connect 32 0 38 0;
#X connect 33 0 41 0;
#X connect 35 0 38 0;
#X connect 37 0 20 0;
#X connect 40 0 19 0;
#X connect 40 0 32 0;
#X connect 41 0 40 0;
#X connect 41 1 40 1;
#X connect 42 0 43 0;
#X connect 43 0 38 0;
#X connect 44 0 32 0;
#X connect 44 0 19 0;
#X connect 44 1 50 0;
#X connect 45 0 46 1;
#X connect 45 0 47 1;
#X connect 46 0 18 1;
#X connect 47 0 18 0;
#X connect 48 0 45 0;
#X connect 49 0 0 0;
#X connect 49 1 5 1;
#X connect 50 0 42 0;
#X connect 50 1 12 0;
#X connect 51 0 2 0;
#X connect 51 1 6 1;
#X connect 52 0 3 0;
#X connect 52 1 7 1;
#X connect 53 0 4 0;
#X connect 53 1 8 1;
#X connect 54 0 38 0;
#X connect 55 0 54 0;
