#N canvas 841 399 450 300 10;
#X obj 31 80 line;
#X obj 31 17 inlet;
#X obj 32 140 outlet;
#X msg 31 100 out \$1;
#X obj 32 40 route out;
#X obj 32 120 list prepend \$1;
#X connect 0 0 3 0;
#X connect 1 0 4 0;
#X connect 3 0 5 0;
#X connect 4 0 0 0;
#X connect 4 1 2 0;
#X connect 5 0 2 0;
