#N canvas 841 399 450 300 10;
#X obj 32 86 line;
#X obj 31 17 inlet;
#X obj 33 146 outlet;
#X obj 32 36 route pause;
#X msg 32 106 pause \$1;
#X obj 33 126 list prepend \$1;
#X connect 0 0 4 0;
#X connect 1 0 3 0;
#X connect 3 0 0 0;
#X connect 3 1 2 0;
#X connect 4 0 5 0;
#X connect 5 0 2 0;
