#N canvas 0 22 450 300 10;
#X obj 36 36 inlet;
#X obj 33 157 outlet;
#X obj 34 110 del;
#X obj 35 63 t b b;
#X obj 68 86 random \$1;
#X text 180 48 random delay;
#X text 182 68 initialize with max value;
#X connect 0 0 3 0;
#X connect 2 0 1 0;
#X connect 3 0 2 0;
#X connect 3 1 4 0;
#X connect 4 0 2 1;
