#N canvas 738 410 652 379 10;
#X obj 186 33 inlet;
#X obj 226 355 outlet;
#X obj 186 77 t b b b b b b;
#X msg 108 164 0;
#X obj 436 99 random 200;
#X obj 438 142 t f f;
#X obj 440 225 +;
#X obj 439 167 t f b;
#X obj 472 200 random 110;
#X obj 437 121 + 1;
#X msg -8 163 0;
#X msg 226 164 0;
#X obj 186 55 randel 40;
#X msg 321 166 155;
#X msg -8 248 volume \$1 2000;
#X msg 108 247 pause \$1 2000;
#X msg 225 247 pan \$1 2000;
#X msg 321 246 speed \$1 2000;
#X msg 440 246 out \$1 2000;
#X msg 485 168 in \$1 2000;
#X connect 0 0 12 0;
#X connect 2 0 10 0;
#X connect 2 1 3 0;
#X connect 2 2 11 0;
#X connect 2 3 13 0;
#X connect 3 0 15 0;
#X connect 4 0 9 0;
#X connect 5 0 7 0;
#X connect 5 1 19 0;
#X connect 6 0 18 0;
#X connect 7 0 6 0;
#X connect 7 1 8 0;
#X connect 8 0 6 1;
#X connect 9 0 5 0;
#X connect 10 0 14 0;
#X connect 11 0 16 0;
#X connect 12 0 2 0;
#X connect 13 0 17 0;
#X connect 14 0 1 0;
#X connect 15 0 1 0;
#X connect 16 0 1 0;
#X connect 17 0 1 0;
