#N canvas 769 325 559 338 10;
#X msg 423 170 in \$1;
#X obj 377 143 t f f;
#X obj 378 227 +;
#X obj 377 169 t f b;
#X obj 410 202 random 110;
#X msg 378 248 out \$1;
#X obj 173 5 inlet;
#X obj 179 305 outlet;
#X obj 377 122 + 1;
#X msg 275 223 speed \$1;
#X msg 11 223 volume \$1;
#X msg 104 222 pause \$1;
#X msg 179 222 pan \$1;
#X obj 180 134 random 20;
#X obj 180 156 + 40;
#X obj 180 197 - 1;
#X obj 175 52 t b b b b b;
#X obj 174 30 randel 1000;
#X obj 12 139 random 20;
#X obj 11 167 + 20;
#X obj 376 100 random 100;
#X obj 275 138 random 30;
#X obj 275 201 + 285;
#X obj 179 177 / 50;
#X obj 104 137 random 35;
#X obj 103 168 + 40;
#X obj 12 98 del 2000;
#X connect 0 0 7 0;
#X connect 1 0 3 0;
#X connect 1 1 0 0;
#X connect 2 0 5 0;
#X connect 3 0 2 0;
#X connect 3 1 4 0;
#X connect 4 0 2 1;
#X connect 5 0 7 0;
#X connect 6 0 17 0;
#X connect 8 0 1 0;
#X connect 9 0 7 0;
#X connect 10 0 7 0;
#X connect 12 0 7 0;
#X connect 13 0 14 0;
#X connect 14 0 23 0;
#X connect 15 0 12 0;
#X connect 16 0 26 0;
#X connect 16 1 24 0;
#X connect 16 2 13 0;
#X connect 16 3 21 0;
#X connect 16 4 20 0;
#X connect 17 0 16 0;
#X connect 18 0 19 0;
#X connect 19 0 10 0;
#X connect 20 0 8 0;
#X connect 21 0 22 0;
#X connect 22 0 9 0;
#X connect 23 0 15 0;
#X connect 24 0 25 0;
#X connect 25 0 11 0;
#X connect 26 0 18 0;
