#N canvas 738 410 652 379 10;
#X obj 186 55 randel 19000;
#X obj 186 33 inlet;
#X obj 226 355 outlet;
#X obj 226 225 - 1;
#X obj -7 192 + 20;
#X msg 321 246 speed \$1 20000;
#X msg 225 247 pan \$1 20000;
#X msg 108 247 pause \$1 20000;
#X msg -8 248 volume \$1 20000;
#X obj -7 164 random 45;
#X obj 321 224 + 100;
#X obj 186 77 t b b b b b b;
#X obj 321 203 random 60;
#X msg 108 164 0;
#X obj 225 184 random 100;
#X obj 436 99 random 200;
#X obj 438 142 t f f;
#X obj 440 225 +;
#X obj 439 163 t f b;
#X obj 437 121 + 1;
#X msg 440 246 out \$1 20000;
#X msg 485 164 in \$1 20000;
#X obj 472 184 random 50;
#X obj 472 204 - 25;
#X obj 225 205 / 50;
#X connect 0 0 11 0;
#X connect 1 0 0 0;
#X connect 3 0 6 0;
#X connect 4 0 8 0;
#X connect 5 0 2 0;
#X connect 6 0 2 0;
#X connect 8 0 2 0;
#X connect 9 0 4 0;
#X connect 10 0 5 0;
#X connect 11 0 9 0;
#X connect 11 1 13 0;
#X connect 11 2 14 0;
#X connect 11 3 12 0;
#X connect 11 5 15 0;
#X connect 12 0 10 0;
#X connect 13 0 7 0;
#X connect 14 0 24 0;
#X connect 15 0 19 0;
#X connect 16 0 18 0;
#X connect 16 1 21 0;
#X connect 17 0 20 0;
#X connect 18 0 17 0;
#X connect 18 1 22 0;
#X connect 19 0 16 0;
#X connect 20 0 2 0;
#X connect 22 0 23 0;
#X connect 23 0 17 1;
#X connect 24 0 3 0;
