#N canvas 726 22 579 347 10;
#X obj 184 24 randel 19000;
#X obj 426 125 t f f;
#X obj 427 150 t f b;
#X obj 460 183 random 110;
#X obj 183 3 inlet;
#X obj 224 324 outlet;
#X obj 425 104 + 1;
#X obj 223 193 - 1;
#X obj 185 46 t b b b b b;
#X obj -10 160 + 20;
#X msg 320 220 speed \$1 20000;
#X msg 428 229 out \$1 20000;
#X msg 473 151 in \$1 20000;
#X msg 223 217 pan \$1 20000;
#X msg 107 216 pause \$1 20000;
#X msg -11 216 volume \$1 20000;
#X obj -10 132 random 30;
#X obj 108 139 random 12;
#X obj 222 130 random 40;
#X obj 222 152 + 30;
#X obj 320 177 random 60;
#X obj 320 198 + 150;
#X obj 428 208 -;
#X obj 424 82 random 300;
#X obj 223 173 / 50;
#X obj 108 173 + 30;
#X connect 0 0 8 0;
#X connect 1 0 2 0;
#X connect 1 1 12 0;
#X connect 2 0 22 0;
#X connect 2 1 3 0;
#X connect 3 0 22 1;
#X connect 4 0 0 0;
#X connect 6 0 1 0;
#X connect 7 0 13 0;
#X connect 8 0 16 0;
#X connect 8 1 17 0;
#X connect 8 2 18 0;
#X connect 8 3 20 0;
#X connect 8 4 23 0;
#X connect 9 0 15 0;
#X connect 10 0 5 0;
#X connect 11 0 5 0;
#X connect 12 0 5 0;
#X connect 13 0 5 0;
#X connect 15 0 5 0;
#X connect 16 0 9 0;
#X connect 17 0 25 0;
#X connect 18 0 19 0;
#X connect 19 0 24 0;
#X connect 20 0 21 0;
#X connect 21 0 10 0;
#X connect 22 0 11 0;
#X connect 23 0 6 0;
#X connect 24 0 7 0;
#X connect 25 0 14 0;
