#N canvas 155 425 598 360 10;
#X obj 189 27 randel 19000;
#X obj 447 90 random 200;
#X obj 449 133 t f f;
#X obj 451 216 +;
#X obj 450 158 t f b;
#X obj 483 191 random 110;
#X obj 189 5 inlet;
#X obj 228 327 outlet;
#X obj 448 112 + 1;
#X obj 228 195 - 1;
#X obj 189 49 t b b b b b;
#X obj -6 196 + 20;
#X msg 324 219 speed \$1 20000;
#X msg 451 237 out \$1 20000;
#X msg 496 159 in \$1 20000;
#X msg 227 219 pan \$1 20000;
#X msg 111 219 pause \$1 20000;
#X msg -7 220 volume \$1 20000;
#X obj -6 135 random 25;
#X obj 112 133 random 18;
#X obj 227 132 random 20;
#X obj 227 154 + 40;
#X obj 324 176 random 80;
#X obj 324 197 + 220;
#X obj 228 175 / 50;
#X obj 111 173 + 25;
#X connect 0 0 10 0;
#X connect 1 0 8 0;
#X connect 2 0 4 0;
#X connect 2 1 14 0;
#X connect 3 0 13 0;
#X connect 4 0 3 0;
#X connect 4 1 5 0;
#X connect 5 0 3 1;
#X connect 6 0 0 0;
#X connect 8 0 2 0;
#X connect 9 0 15 0;
#X connect 10 0 18 0;
#X connect 10 1 19 0;
#X connect 10 2 20 0;
#X connect 10 3 22 0;
#X connect 10 4 1 0;
#X connect 11 0 17 0;
#X connect 12 0 7 0;
#X connect 13 0 7 0;
#X connect 14 0 7 0;
#X connect 15 0 7 0;
#X connect 17 0 7 0;
#X connect 18 0 11 0;
#X connect 19 0 25 0;
#X connect 20 0 21 0;
#X connect 21 0 24 0;
#X connect 22 0 23 0;
#X connect 23 0 12 0;
#X connect 24 0 9 0;
#X connect 25 0 16 0;
