#N canvas 593 311 415 457 10;
#X obj 5 -270 cnv 15 100 60 empty empty empty 20 12 0 14 -195568 -66577
0;
#N canvas 192 278 599 287 gemwin 0;
#X obj 67 97 outlet;
#X obj 67 10 inlet;
#X msg 67 70 set destroy;
#X msg 132 112 create \, 1;
#X msg 156 71 set create;
#X obj 67 41 route create;
#X msg 204 113 0 \, destroy;
#X obj 345 116 inlet;
#X obj 170 13 loadbang;
#X msg 265 237 dimen 1680 1050 \, offset -1680 -20;
#X msg 334 205 reset;
#X msg 276 181 border 0;
#X msg 355 180 border 1;
#X msg 372 28 dimen 800 600;
#X obj 132 154 gemwin 20;
#X obj 67 212 r AUTOFPS;
#X msg 250 269 dimen 400 300;
#X obj 170 34 t b b b;
#X msg 317 91 fullscreen 2;
#X msg 245 68 reset \, dimen 1024 768 \, border 0 \, offset 0 -50 \,
menubar 0;
#X obj 103 129 tgl 15 0 empty empty empty 17 7 0 10 -262144 -1 -1 1
1;
#X msg 311 144 color 0 0 0;
#X connect 1 0 5 0;
#X connect 2 0 0 0;
#X connect 3 0 14 0;
#X connect 4 0 0 0;
#X connect 5 0 2 0;
#X connect 5 0 3 0;
#X connect 5 1 4 0;
#X connect 5 1 6 0;
#X connect 6 0 14 0;
#X connect 7 0 14 0;
#X connect 8 0 17 0;
#X connect 9 0 14 0;
#X connect 10 0 14 0;
#X connect 11 0 14 0;
#X connect 12 0 14 0;
#X connect 13 0 14 0;
#X connect 15 0 14 0;
#X connect 16 0 14 0;
#X connect 17 0 2 0;
#X connect 17 1 3 0;
#X connect 17 2 19 0;
#X connect 18 0 14 0;
#X connect 19 0 14 0;
#X connect 20 0 14 0;
#X connect 21 0 14 0;
#X restore 10 -231 pd gemwin;
#X msg 10 -250 destroy;
#X text 6 -271 Create window:;
#X floatatom 13 -1 11 0 0 0 - - -;
#X obj 14 46 vs-autoframerate;
#X obj 78 -119 vs-video-track 1;
#X obj 186 -141 route 1 2 3 4;
#X obj 187 -165 r control;
#X obj 11 -165 r frame;
#X obj 12 -142 route 4 3 2 1;
#N canvas 5 45 407 226 init 0;
#X obj 8 -1 loadbang;
#X obj 49 50 s loadbng;
#X msg 7 136 0;
#X obj 7 77 del 1000;
#X msg 7 176 \; pd dsp \$1;
#X msg 30 107 1;
#X text 86 3 das scheint notwendig zu sein um;
#X text 85 20 pd~ zu initianlsieren;
#X obj 8 26 t b b b b;
#X obj 92 196 outlet;
#X msg 91 168 25;
#X connect 0 0 8 0;
#X connect 2 0 4 0;
#X connect 3 0 2 0;
#X connect 5 0 4 0;
#X connect 8 0 3 0;
#X connect 8 1 5 0;
#X connect 8 2 1 0;
#X connect 8 3 10 0;
#X connect 10 0 9 0;
#X restore 15 25 pd init;
#X obj 303 -164 r envelope;
#X obj 303 -142 s ENVSIZE;
#X text 3 -289 BREAKUP by Max Neupert 2009;
#X obj 311 -12 r fps;
#X obj 13 -22 speedlimit 250;
#X obj 78 -98 vs-video-track 2;
#X obj 79 -56 vs-video-track 4;
#X obj 78 -77 vs-video-track 3;
#X connect 1 0 2 0;
#X connect 2 0 1 0;
#X connect 7 0 6 1;
#X connect 7 1 17 1;
#X connect 7 2 19 1;
#X connect 7 3 18 1;
#X connect 8 0 7 0;
#X connect 9 0 10 0;
#X connect 10 0 16 0;
#X connect 10 0 18 0;
#X connect 10 1 19 0;
#X connect 10 2 17 0;
#X connect 10 3 6 0;
#X connect 11 0 5 0;
#X connect 12 0 13 0;
#X connect 15 0 5 0;
#X connect 16 0 4 0;
