#N canvas 535 109 465 593 10;
#X obj 42 407 send AUTOFPS;
#N canvas 64 153 450 300 ms2fps 0;
#X obj 103 22 inlet;
#X obj 103 186 outlet;
#X obj 103 117 / 1000;
#X obj 102 63 t b f;
#X msg 102 89 1000;
#X connect 0 0 3 0;
#X connect 2 0 1 0;
#X connect 3 0 4 0;
#X connect 3 1 2 1;
#X connect 4 0 2 0;
#X restore 131 76 pd ms2fps;
#X obj 131 57 timer;
#X obj 223 57 realtime;
#X obj 131 20 t b b;
#X obj 245 20 t b b;
#N canvas 64 153 450 300 ms2fps 0;
#X obj 103 22 inlet;
#X obj 103 186 outlet;
#X obj 103 117 / 1000;
#X obj 102 63 t b f;
#X msg 102 89 1000;
#X connect 0 0 3 0;
#X connect 2 0 1 0;
#X connect 3 0 4 0;
#X connect 3 1 2 1;
#X connect 4 0 2 0;
#X restore 223 76 pd ms2fps;
#X obj 87 4 cnv 19 30 19 empty \$0-logical-fps 27 5 10 0 11 -228992
-66577 0;
#X obj 131 169 send \$0-logical-fps;
#X msg 131 150 label \$1;
#X text 6 4 logical fps;
#X text 0 26 realtime fps;
#X obj 87 25 cnv 19 30 19 empty \$0-real-fps 75 5 10 0 11 -225271 -66577
0;
#X msg 223 149 label \$1;
#X obj 267 354 send \$0-real-fps;
#X msg 42 388 frame \$1;
#X obj 169 196 -;
#X obj 168 358 print jitter;
#X obj 168 338 spigot;
#X obj 217 338 tgl 15 0 empty empty empty 17 7 0 10 -262144 -1 -1 0
1;
#X obj 131 1 gemhead -1000;
#X obj 245 1 gemhead 1;
#X obj 87 55 nbx 3 14 1 100 0 0 \$0-target-fps \$0-target-fps-r empty
0 -8 0 10 -262144 -1 -1 27 256;
#X obj 267 249 < -10;
#X text 13 53 target fps;
#X obj 11 133 r \$0-target-fps;
#X msg 267 313 color 6 2;
#X msg 332 313 color 13 0;
#X obj 267 287 sel 0 1;
#X obj 267 268 change;
#X obj 68 294 sel 0 1;
#X obj 42 362 f;
#X obj 72 362 + 2;
#X msg 96 314 -2;
#X msg 69 314 0;
#X obj 137 429 <;
#X obj 159 389 + 5;
#X floatatom 137 453 5 0 0 0 - - -;
#X obj 341 3 inlet;
#X obj 223 111 speedlimit 200;
#X obj 131 111 speedlimit 200;
#X obj 169 294 speedlimit 200;
#X obj 267 229 maxlib/average 8;
#X obj 223 130 ext13/ftos;
#X obj 131 131 ext13/ftos;
#X connect 1 0 16 1;
#X connect 1 0 40 0;
#X connect 2 0 1 0;
#X connect 3 0 6 0;
#X connect 4 0 2 0;
#X connect 4 0 31 0;
#X connect 4 1 3 0;
#X connect 5 0 2 1;
#X connect 5 1 3 1;
#X connect 6 0 16 0;
#X connect 6 0 39 0;
#X connect 9 0 8 0;
#X connect 13 0 14 0;
#X connect 15 0 0 0;
#X connect 16 0 36 0;
#X connect 16 0 41 0;
#X connect 16 0 42 0;
#X connect 18 0 17 0;
#X connect 19 0 18 1;
#X connect 20 0 4 0;
#X connect 21 0 5 0;
#X connect 23 0 29 0;
#X connect 23 0 30 0;
#X connect 25 0 31 1;
#X connect 25 0 35 1;
#X connect 26 0 14 0;
#X connect 27 0 14 0;
#X connect 28 0 26 0;
#X connect 28 1 27 0;
#X connect 29 0 28 0;
#X connect 30 0 34 0;
#X connect 30 1 33 0;
#X connect 31 0 32 0;
#X connect 31 0 15 0;
#X connect 32 0 31 1;
#X connect 33 0 32 1;
#X connect 34 0 32 1;
#X connect 35 0 37 0;
#X connect 36 0 35 0;
#X connect 38 0 22 0;
#X connect 39 0 43 0;
#X connect 40 0 44 0;
#X connect 41 0 18 0;
#X connect 42 0 23 0;
#X connect 43 0 13 0;
#X connect 44 0 9 0;
#X coords 0 -1 1 1 125 80 2 0 0;
