#N canvas 437 22 961 820 10;
#X obj 25 275 tgl 15 0 empty empty empty 17 7 0 10 -262144 -1 -1 1
1;
#X obj 84 274 +;
#X obj -50 406 pack f f;
#X obj -50 424 t l b;
#X obj 84 239 t b f;
#X obj 184 131 -;
#X obj 189 113 t b f;
#X obj 184 257 abs;
#X obj 189 167 t b f;
#X obj -50 490 vline~;
#X obj 25 292 metro 500;
#X obj 184 239 * 1;
#X obj 189 221 t b f;
#X obj 40 197 r ldb;
#X obj 191 203 r \$0-speed;
#X obj 307 216 soundfiler;
#X obj 307 98 t b b a b;
#X obj 307 174 pack s s s s;
#X msg 329 136 symbol -resize;
#X msg 307 155 symbol read;
#X obj 307 194 list trim;
#X obj 307 -13 symbol;
#X obj -39 4 *;
#X obj 16 3 *;
#X obj -39 46 int;
#X obj 16 45 int;
#X obj 72 -40 * 1.9;
#X obj 72 -21 + 0.1;
#X obj 72 28 s \$0-speed;
#X obj 126 -16 s \$0-volume;
#X obj -30 348 r \$0-out;
#X obj 185 77 r \$0-out;
#X obj 189 95 r \$0-in;
#X obj -39 69 s \$0-in;
#X obj 16 70 s \$0-out;
#X obj 105 407 r \$0-in;
#X obj 316 -33 s \$0-pan;
#X obj 127 -58 / 70;
#N canvas 0 22 450 300 (subpatch) 0;
#X array \$0-sample 81685 float 2;
#X coords 0 1 81685 -1 200 140 1;
#X restore 539 -61 graph;
#X obj 376 117 symbol \$0-sample;
#X obj -50 527 tabread4~ \$0-sample;
#X obj 84 126 r \$0-pause;
#X obj 379 -33 s \$0-pause;
#N canvas 605 113 268 278 panning 0;
#X obj 36 10 inlet~;
#X obj 36 216 outlet~;
#X obj 143 218 outlet~;
#X obj 52 117 * -1;
#X obj 159 175 line~;
#X obj 52 174 line~;
#X obj 159 12 r \$0-pan;
#X obj 159 137 + 0.5;
#X obj 52 136 + 0.5;
#X obj 159 157 pack 1 10;
#X obj 52 155 pack 1 10;
#X obj 36 194 *~;
#X obj 143 196 *~;
#X connect 0 0 11 0;
#X connect 0 0 12 0;
#X connect 3 0 8 0;
#X connect 4 0 12 1;
#X connect 5 0 11 1;
#X connect 6 0 3 0;
#X connect 6 0 7 0;
#X connect 7 0 9 0;
#X connect 8 0 10 0;
#X connect 9 0 4 0;
#X connect 10 0 5 0;
#X connect 11 0 1 0;
#X connect 12 0 2 0;
#X restore -50 605 pd panning;
#N canvas 674 395 363 345 volume 0;
#X obj 11 10 inlet~;
#X obj 11 173 outlet~;
#X obj 11 154 *~;
#X obj 52 135 line~;
#X obj 52 116 pack 0 10;
#X obj 60 10 r \$0-volume;
#X obj 26 90 f;
#X obj 145 10 r \$0-mute;
#X obj 66 43 sel 0 1;
#X msg 97 67 0;
#X obj 52 90 spigot 1;
#X msg 66 67 1;
#X text 137 68 mute logic;
#X obj 204 190 switch~;
#X obj 203 98 sel 0;
#X msg 203 125 0;
#X msg 235 125 1;
#X obj 204 161 change;
#X connect 0 0 2 0;
#X connect 2 0 1 0;
#X connect 3 0 2 1;
#X connect 4 0 3 0;
#X connect 5 0 6 1;
#X connect 5 0 10 0;
#X connect 5 0 14 0;
#X connect 6 0 4 0;
#X connect 7 0 8 0;
#X connect 8 0 6 0;
#X connect 8 0 11 0;
#X connect 8 1 9 0;
#X connect 9 0 4 0;
#X connect 9 0 10 1;
#X connect 9 0 17 0;
#X connect 10 0 4 0;
#X connect 11 0 10 1;
#X connect 11 0 17 0;
#X connect 14 0 15 0;
#X connect 14 1 16 0;
#X connect 15 0 17 0;
#X connect 16 0 17 0;
#X connect 17 0 13 0;
#X restore -50 585 pd volume;
#X obj 84 146 * 50;
#X obj 25 325 t b b b;
#N canvas 1504 715 233 268 smooth-out 0;
#X obj 78 59 == 0;
#X obj 27 19 inlet;
#X obj 78 19 inlet;
#X obj 27 104 t b b;
#X obj 57 126 s \$0-smooth-out;
#X obj 27 204 outlet;
#X obj 130 42 outlet;
#X obj 27 178 del 10;
#X obj 64 151 r ENVSIZE;
#X obj 27 81 spigot 1;
#X connect 0 0 9 1;
#X connect 1 0 9 0;
#X connect 2 0 0 0;
#X connect 2 0 6 0;
#X connect 3 0 7 0;
#X connect 3 1 4 0;
#X connect 7 0 5 0;
#X connect 8 0 7 1;
#X connect 9 0 3 0;
#X restore -62 197 pd smooth-out;
#N canvas 1432 529 432 234 envelopes 0;
#X obj 51 11 inlet~;
#X obj 51 196 outlet~;
#X obj 51 175 *~;
#X obj 192 11 inlet time;
#X obj 117 11 inlet out;
#X obj 66 154 vline~;
#X obj 119 32 t b;
#X obj 193 32 t b f;
#X obj 192 84 del;
#X obj 289 85 r \$0-smooth-out;
#X msg 192 119 0 5;
#X obj 220 58 - 10;
#X msg 117 105 1 5;
#X obj 309 11 r ENVSIZE;
#X msg 223 83 set 0 \$1;
#X msg 125 84 set 1 \$1;
#X connect 0 0 2 0;
#X connect 2 0 1 0;
#X connect 3 0 7 0;
#X connect 4 0 6 0;
#X connect 5 0 2 1;
#X connect 6 0 12 0;
#X connect 7 0 8 0;
#X connect 7 1 11 0;
#X connect 8 0 10 0;
#X connect 9 0 10 0;
#X connect 10 0 5 0;
#X connect 11 0 8 1;
#X connect 12 0 5 0;
#X connect 13 0 14 0;
#X connect 13 0 11 1;
#X connect 13 0 15 0;
#X connect 14 0 10 0;
#X connect 15 0 12 0;
#X restore -50 557 pd envelopes;
#X obj -62 125 r channel_\$1;
#X obj -62 167 pipe;
#X obj 138 665 outlet~;
#X obj 310 667 outlet;
#X obj 72 -59 / 315;
#X obj 16 -59 / 315;
#X obj -39 -60 / 315;
#X obj 185 185 / 48;
#X obj 457 -33 s \$0-mute;
#X obj -50 630 throw~ left;
#X obj 35 630 throw~ right;
#X obj 307 78 makefilename clips/%s.aiff;
#X obj -39 -79 route in out speed volume looping lock;
#X obj 307 -56 route file pan pause mute;
#X obj -24 -32 r \$0-length;
#X obj 314 237 s \$0-length;
#X obj -39 -101 inlet;
#X obj 189 149 r samplingrate;
#X obj 307 8 sel --none--;
#X obj 376 29 t a a;
#X obj 43 372 f;
#X obj -49 372 f;
#X obj -19 460 f;
#X obj 15 24 + 0.5;
#X obj -40 24 + 0.5;
#X connect 0 0 10 0;
#X connect 1 0 10 1;
#X connect 2 0 3 0;
#X connect 3 0 9 0;
#X connect 3 1 71 0;
#X connect 4 0 1 0;
#X connect 4 1 1 1;
#X connect 5 0 56 0;
#X connect 6 0 5 0;
#X connect 6 1 5 1;
#X connect 7 0 1 0;
#X connect 7 0 69 1;
#X connect 8 0 56 0;
#X connect 8 1 56 1;
#X connect 9 0 40 0;
#X connect 9 0 51 0;
#X connect 10 0 46 0;
#X connect 11 0 7 0;
#X connect 12 0 11 0;
#X connect 12 1 11 1;
#X connect 13 0 0 0;
#X connect 14 0 12 0;
#X connect 15 0 52 0;
#X connect 15 0 64 0;
#X connect 16 0 19 0;
#X connect 16 1 18 0;
#X connect 16 2 17 2;
#X connect 16 3 39 0;
#X connect 17 0 20 0;
#X connect 18 0 17 1;
#X connect 19 0 17 0;
#X connect 20 0 15 0;
#X connect 21 0 67 0;
#X connect 22 0 73 0;
#X connect 23 0 72 0;
#X connect 24 0 33 0;
#X connect 25 0 34 0;
#X connect 26 0 27 0;
#X connect 27 0 28 0;
#X connect 30 0 70 1;
#X connect 31 0 5 0;
#X connect 32 0 6 0;
#X connect 35 0 71 1;
#X connect 37 0 29 0;
#X connect 39 0 17 3;
#X connect 40 0 48 0;
#X connect 41 0 45 0;
#X connect 43 0 58 0;
#X connect 43 1 59 0;
#X connect 44 0 43 0;
#X connect 45 0 4 0;
#X connect 45 0 50 1;
#X connect 46 0 70 0;
#X connect 46 1 69 0;
#X connect 47 0 46 0;
#X connect 47 1 0 0;
#X connect 48 0 44 0;
#X connect 49 0 50 0;
#X connect 50 0 47 0;
#X connect 53 0 26 0;
#X connect 54 0 23 0;
#X connect 55 0 22 0;
#X connect 56 0 11 0;
#X connect 60 0 16 0;
#X connect 61 0 55 0;
#X connect 61 1 54 0;
#X connect 61 2 53 0;
#X connect 61 3 37 0;
#X connect 61 4 47 1;
#X connect 61 6 62 0;
#X connect 62 0 21 0;
#X connect 62 1 36 0;
#X connect 62 2 42 0;
#X connect 62 3 57 0;
#X connect 63 0 22 1;
#X connect 63 0 23 1;
#X connect 65 0 61 0;
#X connect 66 0 8 0;
#X connect 67 1 68 0;
#X connect 68 0 60 0;
#X connect 68 1 67 1;
#X connect 69 0 2 1;
#X connect 69 0 48 2;
#X connect 70 0 2 0;
#X connect 71 0 9 0;
#X connect 71 0 48 1;
#X connect 72 0 25 0;
#X connect 73 0 24 0;
