#N canvas 520 26 853 679 10;
#X obj 86 377 GEMglColor4f 1 1 1 1;
#X obj 86 93 GEMglNormal3f 0 0 1;
#X obj 86 317 GEMglTexCoord2sv;
#X obj 86 261 GEMglTexCoord2sv;
#X obj 86 415 GEMglTexCoord2sv;
#X obj 86 476 GEMglTexCoord2sv;
#X msg 701 238 0 0;
#X obj 86 282 GEMglVertex3f 4 3 0;
#X obj 86 436 GEMglVertex3f -4 -3 0;
#X obj 86 338 GEMglVertex3f 4 -3 0;
#X obj 480 141 /;
#X floatatom 414 122 5 0 0 0 - - -;
#X obj 465 164 *;
#X obj 650 56 pack f f;
#X msg 684 288 0 \$2;
#X msg 667 392 \$1 \$2;
#X msg 650 446 \$1 0;
#X obj 445 279 * -1;
#X obj 408 270 * -1;
#N canvas 680 307 523 480 texturing 0;
#X obj 27 78 pix_texture;
#X obj 114 125 GLdefine GL_SMOOTH;
#X obj 27 185 GEMglBegin;
#X obj 27 145 GEMglShadeModel;
#X obj 27 98 alpha;
#X obj 84 165 GLdefine GL_QUADS;
#X msg 34 58 mode 1;
#X obj 27 11 inlet gemlist;
#X obj 27 218 outlet gemlist;
#X obj 86 36 loadbang;
#X connect 0 0 4 0;
#X connect 1 0 3 1;
#X connect 2 0 8 0;
#X connect 3 0 2 0;
#X connect 4 0 3 0;
#X connect 5 0 2 1;
#X connect 6 0 0 0;
#X connect 7 0 0 0;
#X connect 9 0 5 0;
#X connect 9 0 1 0;
#X connect 9 0 6 0;
#X restore 86 71 pd texturing;
#X obj 623 5 inlet b;
#X obj 695 6 inlet h;
#X obj 86 11 inlet Gemlist;
#X obj 86 532 GEMglEnd;
#X obj 207 197 unpack f f;
#X obj 86 497 GEMglVertex3f -4 3 0;
#X text 355 504 segmented patchcords would help here;
#X obj 445 302 t f f;
#X obj 408 347 t f f;
#X obj 208 10 inlet alpha;
#X obj 465 185 t f f f;
#X obj 414 141 t f f f f;
#X obj 623 29 t b f;
#X obj 86 231 GEMglColor4f 1 1 1 1;
#X text 19 281 right top;
#X text 25 485 left top;
#X text 14 429 left bottom;
#X text 5 338 right bottom;
#X msg 480 119 \$2 \$1;
#X msg 731 452 0 0;
#X msg 740 387 0 \$2;
#X msg 764 279 \$1 \$2;
#X msg 762 229 \$1 0;
#X obj 650 130 t l l l l;
#X msg 414 103 5.33;
#X connect 0 0 4 0;
#X connect 1 0 33 0;
#X connect 2 0 9 0;
#X connect 3 0 7 0;
#X connect 4 0 8 0;
#X connect 5 0 25 0;
#X connect 6 0 3 1;
#X connect 7 0 2 0;
#X connect 8 0 5 0;
#X connect 9 0 0 0;
#X connect 10 0 12 1;
#X connect 11 0 31 0;
#X connect 12 0 30 0;
#X connect 13 0 38 0;
#X connect 13 0 43 0;
#X connect 14 0 2 1;
#X connect 15 0 4 1;
#X connect 16 0 5 1;
#X connect 17 0 27 0;
#X connect 18 0 28 0;
#X connect 19 0 1 0;
#X connect 20 0 32 0;
#X connect 21 0 13 1;
#X connect 22 0 19 0;
#X connect 24 0 33 4;
#X connect 24 1 0 4;
#X connect 25 0 23 0;
#X connect 27 0 8 2;
#X connect 27 1 9 2;
#X connect 28 0 25 1;
#X connect 28 1 8 1;
#X connect 29 0 24 0;
#X connect 30 0 17 0;
#X connect 30 1 25 2;
#X connect 30 2 7 2;
#X connect 31 0 7 1;
#X connect 31 1 9 1;
#X connect 31 2 18 0;
#X connect 31 3 12 0;
#X connect 32 0 44 0;
#X connect 32 1 13 0;
#X connect 33 0 3 0;
#X connect 38 0 10 0;
#X connect 39 0 5 1;
#X connect 40 0 4 1;
#X connect 41 0 2 1;
#X connect 42 0 3 1;
#X connect 43 0 40 0;
#X connect 43 1 39 0;
#X connect 43 2 42 0;
#X connect 43 3 41 0;
#X connect 44 0 11 0;
