#N canvas 858 260 623 786 10;
#X obj 64 314 pix_film;
#X obj 64 108 gemhead;
#X obj 64 605 pix_texture;
#X obj 64 663 rectangle 4 3;
#X obj 120 154 makefilename %s.mov;
#X msg 120 176 open \$1;
#X obj 115 225 snapshot~;
#X obj 64 199 t a b;
#X obj 86 334 unpack 0 0 0;
#X obj 115 289 int;
#X obj 196 616 /;
#X floatatom 149 599 5 0 0 0 - - -;
#X obj 180 636 *;
#X obj 150 616 t f f;
#X msg 149 578 2.5;
#X obj 64 511 alpha;
#X obj 64 562 colorRGB;
#X obj 115 247 / 1;
#X obj 115 268 * 1;
#X obj 115 542 line;
#X obj 64 417 translateXYZ 0 0 0.\$1;
#X obj 149 557 t b f;
#X obj 259 413 loadbang;
#X msg 259 434 0;
#X connect 0 0 20 0;
#X connect 0 1 8 0;
#X connect 1 0 7 0;
#X connect 2 0 3 0;
#X connect 4 0 5 0;
#X connect 5 0 0 0;
#X connect 6 0 17 0;
#X connect 7 0 0 0;
#X connect 7 1 6 0;
#X connect 8 0 18 1;
#X connect 8 1 21 0;
#X connect 8 2 10 1;
#X connect 9 0 0 1;
#X connect 10 0 12 1;
#X connect 11 0 13 0;
#X connect 12 0 3 1;
#X connect 13 0 3 2;
#X connect 13 1 12 0;
#X connect 14 0 11 0;
#X connect 15 0 16 0;
#X connect 16 0 2 0;
#X connect 17 0 18 0;
#X connect 18 0 9 0;
#X connect 19 0 16 4;
#X connect 20 0 15 0;
#X connect 21 0 14 0;
#X connect 21 1 10 0;
#X connect 22 0 23 0;
#X connect 23 0 16 4;
