#N canvas 115 347 441 378 10;
#X obj 181 -96 cnv 11 165 11 empty \$0-sample_display klatsch 3 5 0
10 -224695 -66577 0;
#X obj 170 -96 bng 11 250 50 0 \$0-loadfile \$0-loadfile-r empty 0
-6 0 8 -262144 -1 -1;
#X text 143 -99 load;
#X obj 334 -23 tgl 11 0 \$2-looping \$2-looping-r empty 0 -6 0 8 -262144
-258305 -1 0 1;
#X obj 170 -85 bng 11 250 50 0 \$2-retrigger \$2-retrigger-r empty
0 -6 0 8 -262144 -258699 -262144;
#X text 286 -25 looping;
#X text 125 -89 trigger;
#X obj 199 -23 tgl 11 0 \$2-lock \$2-lock-r empty 0 -6 0 8 -262144
-258305 -1 0 1;
#X text 171 -25 lock;
#X text -9 -26 pause;
#X obj -8 88 netpd-fx \$1 \$2-in \$2-in-r 1;
#X obj -8 145 netpd-fx \$1 \$2-lock \$2-lock-r 0;
#X obj -8 164 netpd-fx \$1 \$2-looping \$2-looping-r 0;
#X text -9 -6 video-samper by Johannes Krause \, Max Neupert 2007;
#X obj -8 183 netpd-fx \$1 \$2-pan \$2-pan-r 0;
#X obj 348 -95 hsl 17 11 -0.5 0.5 0 0 \$2-pan \$2-pan-r empty -2 -6
0 8 -262144 -1 -1 800 1;
#X obj -8 202 netpd-fx \$1 \$2-pause \$2-pause-r 0;
#X obj -8 107 netpd-fx \$1 \$2-out \$2-out-r 315;
#X obj 25 -23 nbx 4 11 0 6000 0 0 \$2-pause \$2-pause-r empty 0 -8
0 10 -262144 -1 -1 0 256;
#X obj 28 -34 hsl 315 11 315 1 0 0 \$2-speed \$2-speed-r empty -2 -6
0 8 -262144 -1 -1 15750 1;
#X text 26 -37 x0.1;
#X text -9 -38 speed;
#X text 328 -37 x2;
#X text 187 -37 x1;
#X obj 345 -82 vsl 22 56 0 67 0 0 \$2-volume \$2-volume-r empty 0 -9
0 10 -262144 -1 -1 2600 1;
#X text 9 -79 IN;
#X text 4 -67 OUT;
#X obj 25 -65 cnv 10 100 10 empty empty empty 20 12 0 14 -262144 -66577
0;
#X obj 246 -85 bng 11 250 50 0 \$0-key \$0-key-r empty 0 -6 0 8 -262144
-258699 -262144;
#X obj 258 -85 cnv 10 40 10 empty \$0-keyname-r 1 3 5 0 10 -224695
-66577 0;
#X text 182 -89 keybinding;
#X obj 185 -43 image ../files/klatsch.gif;
#X obj 28 -74 hsl 315 11 1 315 0 0 \$2-in \$2-in-r empty -2 -6 0 8
-262144 -1 -1 0 1;
#X obj 28 -63 hsl 315 11 1 315 0 0 \$2-out-local \$2-out-r empty -2
-6 0 8 -262144 -33289 -262144 31400 1;
#X obj -8 126 netpd-fx \$1 \$2-speed \$2-speed-r 157.5;
#X msg -9 35 version 0.0.29;
#X text -9 11 uses the netpd.org environment;
#N canvas 800 534 265 191 sample_display 0;
#X msg 10 146 label \$1;
#X obj 11 45 splitfilename;
#X obj 10 165 s \$0-sample_display;
#X obj 11 26 openpanel;
#X obj 11 7 r \$0-loadfile;
#X obj 10 77 splitfilename .;
#X obj 10 96 s \$2-file;
#X obj 10 127 netpd-fx \$1 \$2-file \$2-file-r klatsch;
#X connect 0 0 2 0;
#X connect 1 1 5 0;
#X connect 3 0 1 0;
#X connect 4 0 3 0;
#X connect 5 0 6 0;
#X connect 7 0 0 0;
#X restore 250 52 pd sample_display;
#N canvas 191 464 163 163 trigger_display_hack 0;
#X obj 5 6 r channel_\$2;
#X obj 5 117 s \$2-retrigger-r;
#X msg 32 92 color 13 13 0;
#X obj 5 28 t b b;
#X msg 5 70 color 0 13 0;
#X obj 5 49 del 25;
#X connect 0 0 3 0;
#X connect 2 0 1 0;
#X connect 3 0 5 0;
#X connect 3 1 2 0;
#X connect 4 0 1 0;
#X connect 5 0 4 0;
#X restore 250 71 pd trigger_display_hack;
#N canvas 777 141 483 645 lock_in_and_out 0;
#X obj 20 43 r netpd-receive;
#X text 19 8 unfinished lock function;
#X obj 241 182 -;
#X obj 78 188 spigot;
#X obj 111 163 == 0;
#X obj 79 96 r \$2-out-local;
#X obj 20 70 route \$2-lock \$2-out \$2-in;
#X obj 126 188 spigot;
#X obj 127 322 +;
#X floatatom 165 356 5 0 0 0 - - -;
#X obj 241 135 sel 1;
#X msg 149 130 set \$1;
#X msg 182 160 315;
#X obj 74 420 s \$2-out;
#X obj 243 114 change;
#X obj 345 173 print sel;
#X floatatom 282 224 5 0 0 0 - - -;
#X obj 22 561 s \$2-out-r;
#X msg 22 503 color 0 12 0;
#X msg 32 529 color 13 0 0;
#X obj 23 469 sel 0 1;
#X obj 5 113 tgl 15 0 empty empty empty 17 7 0 10 -262144 -1 -1 0 1
;
#X connect 0 0 6 0;
#X connect 2 0 8 1;
#X connect 2 0 16 0;
#X connect 4 0 3 1;
#X connect 5 0 3 0;
#X connect 5 0 13 0;
#X connect 6 0 4 0;
#X connect 6 0 7 1;
#X connect 6 0 14 0;
#X connect 6 0 20 0;
#X connect 6 0 21 0;
#X connect 6 1 11 0;
#X connect 6 2 7 0;
#X connect 6 2 2 1;
#X connect 7 0 8 0;
#X connect 8 0 9 0;
#X connect 8 0 13 0;
#X connect 10 0 12 0;
#X connect 10 0 15 0;
#X connect 11 0 12 0;
#X connect 12 0 2 0;
#X connect 14 0 10 0;
#X connect 18 0 17 0;
#X connect 19 0 17 0;
#X connect 20 0 18 0;
#X connect 20 1 19 0;
#X restore 250 91 pd lock_in_and_out;
#N canvas 485 266 249 306 volume_color 1;
#X obj 5 230 s \$2-volume-r;
#X obj 14 94 t b f;
#X obj 5 116 +;
#X obj 5 135 t b f;
#X obj 5 72 * -256;
#X obj 48 72 * -1;
#X obj 5 192 - 1;
#X msg 5 211 color \$1 22 22;
#X msg 5 154 -1.67117e+07;
#X obj 5 173 + 1;
#X obj 5 43 * -2;
#X obj 5 24 - 115;
#X msg 29 192 color 0 22 22;
#X obj 29 173 loadbang;
#X obj 5 5 netpd-fx \$1 \$2-volume \$2-volume-r 0;
#X connect 1 0 2 0;
#X connect 1 1 2 1;
#X connect 2 0 3 0;
#X connect 3 0 8 0;
#X connect 3 1 9 1;
#X connect 4 0 2 0;
#X connect 5 0 1 0;
#X connect 6 0 7 0;
#X connect 7 0 0 0;
#X connect 8 0 9 0;
#X connect 9 0 6 0;
#X connect 10 0 4 0;
#X connect 10 0 5 0;
#X connect 11 0 10 0;
#X connect 12 0 0 0;
#X connect 13 0 12 0;
#X connect 14 0 11 0;
#X restore 250 111 pd volume_color;
#N canvas 715 261 334 398 midi-control 0;
#X obj 8 3 notein;
#X obj 63 374 s \$2-volume-r;
#X obj 80 248 s \$2-speed-r;
#X obj 53 172 mtof;
#X obj 53 210 t b f;
#X obj 53 297 s channel_\$2;
#X obj 80 229 * 157;
#X obj 53 191 expr 440/$f1;
#X obj 150 4 loadbang;
#X obj 150 23 \$2;
#X obj 150 42 * 12;
#X obj 8 153 route -1;
#X obj 293 112 + 13;
#X obj 8 134 expr if ($f1 > $f2 && $f1 < $f3 \, $f1-$f2+63 \, -1);
#X obj 24 317 route 0;
#X obj 63 336 / 127;
#X obj 63 355 * 67;
#X msg 24 114 set \$1;
#X msg 24 297 0;
#X obj 53 267 t b b;
#X obj 150 61 + 35;
#X obj 8 74 spigot;
#X msg 69 54 1;
#X msg 41 54 0;
#X obj 41 35 sel 0;
#X connect 0 0 21 0;
#X connect 0 1 17 0;
#X connect 0 1 24 0;
#X connect 3 0 7 0;
#X connect 4 0 19 0;
#X connect 4 1 6 0;
#X connect 6 0 2 0;
#X connect 7 0 4 0;
#X connect 8 0 9 0;
#X connect 9 0 10 0;
#X connect 10 0 20 0;
#X connect 11 1 3 0;
#X connect 12 0 13 2;
#X connect 13 0 11 0;
#X connect 14 1 15 0;
#X connect 15 0 16 0;
#X connect 16 0 1 0;
#X connect 17 0 18 0;
#X connect 18 0 14 0;
#X connect 19 0 5 0;
#X connect 19 1 18 0;
#X connect 20 0 12 0;
#X connect 20 0 13 1;
#X connect 21 0 13 0;
#X connect 22 0 21 1;
#X connect 23 0 21 1;
#X connect 24 0 23 0;
#X connect 24 1 22 0;
#X restore 250 150 pd midi-control;
#N canvas 676 481 234 241 keys 0;
#X obj 11 7 keyname;
#X obj 56 125 spigot 0;
#X msg 83 102 0;
#X msg 112 102 1;
#X msg 51 26 set \$1;
#X msg 11 52 ??;
#X obj 11 26 sel 1;
#X obj 56 144 symbol;
#X obj 10 125 symbol;
#X obj 10 188 sel k;
#X obj 11 71 t b a a;
#X obj 112 7 r \$0-key;
#X msg 129 189 label \$1;
#X obj 129 208 s \$0-keyname-r;
#X obj 10 207 s channel_\$2;
#X obj 166 7 loadbang;
#X obj 166 125 \$2;
#X obj 166 144 ftos;
#X connect 0 0 6 0;
#X connect 0 1 4 0;
#X connect 1 0 7 0;
#X connect 2 0 1 1;
#X connect 3 0 1 1;
#X connect 4 0 5 0;
#X connect 5 0 10 0;
#X connect 6 0 5 0;
#X connect 7 0 9 1;
#X connect 7 0 12 0;
#X connect 8 0 9 0;
#X connect 9 0 14 0;
#X connect 10 0 2 0;
#X connect 10 1 8 0;
#X connect 10 2 1 0;
#X connect 11 0 3 0;
#X connect 12 0 13 0;
#X connect 15 0 16 0;
#X connect 16 0 17 0;
#X connect 17 0 12 0;
#X connect 17 0 9 1;
#X restore 249 131 pd keys;
#N canvas 525 306 205 236 show_sample_image 0;
#X obj 6 -106 r netpd-receive;
#X obj 6 -68 symbol;
#X obj 6 -87 route \$2-file;
#X obj 6 -7 outlet;
#X msg 5 -29 open \$1;
#X obj 5 -49 makefilename ../files/%s.gif;
#X connect 0 0 2 0;
#X connect 1 0 5 0;
#X connect 2 0 1 0;
#X connect 4 0 3 0;
#X connect 5 0 4 0;
#X restore 251 32 pd show_sample_image;
#N canvas 738 468 450 300 solo_mute 0;
#X restore 250 171 pd solo_mute;
#X obj -8 222 netpd-fx \$1 \$2-mute \$2mute-r 0;
#X obj 345 -23 tgl 11 0 \$2-mute \$2-mute-r empty 0 -6 0 8 -262144
-258305 -1 0 1;
#X obj 356 -23 tgl 11 0 \$2-solo \$2-solo-r empty 0 -6 0 8 -262144
-258305 -1 0 1;
#X text 346 -26 M;
#X text 357 -26 S;
#X connect 43 0 31 0;
#X coords 0 -1 1 1 379 89 1 -10 -98;
