#N canvas 171 367 521 389 10;
#X obj 181 -96 cnv 11 165 11 empty \$0-sample_display klatsch 3 5 0
10 -224695 -66577 0;
#X obj 170 -96 bng 11 250 50 0 \$0-loadfile \$0-loadfile-r empty 0
-6 0 8 -262144 -1 -1;
#X text 143 -99 load;
#X obj 334 -23 tgl 11 0 \$2-looping \$2-looping-r empty 0 -6 0 8 -262144
-258305 -1 0 1;
#X obj 170 -85 bng 11 250 50 0 \$2-retrigger \$2-retrigger-r empty
0 -6 0 8 -262144 -258699 -262144;
#X text 286 -25 looping;
#X text 125 -89 trigger;
#X obj 199 -23 tgl 11 0 \$2-lock \$2-lock-r empty 0 -6 0 8 -262144
-258305 -1 0 1;
#X text 171 -25 lock;
#X text -9 -26 pause;
#X obj -8 69 netpd-fx \$1 \$2-volume \$2-volume-r 0;
#X obj -8 88 netpd-fx \$1 \$2-in \$2-in-r 1;
#X obj -8 145 netpd-fx \$1 \$2-lock \$2-lock-r 0;
#X obj -8 164 netpd-fx \$1 \$2-looping \$2-looping-r 0;
#X text -9 -6 video-samper by Johannes Krause \, Max Neupert 2007;
#N canvas 800 534 265 191 sample_display 0;
#X msg 10 146 label \$1;
#X obj 11 45 splitfilename;
#X obj 10 165 s \$0-sample_display;
#X obj 11 26 openpanel;
#X obj 11 7 r \$0-loadfile;
#X obj 10 77 splitfilename .;
#X obj 10 96 s \$2-file;
#X obj 10 127 netpd-fx \$1 \$2-file \$2-file-r klatsch;
#X connect 0 0 2 0;
#X connect 1 1 5 0;
#X connect 3 0 1 0;
#X connect 4 0 3 0;
#X connect 5 0 6 0;
#X connect 7 0 0 0;
#X restore 248 35 pd sample_display;
#X obj -8 183 netpd-fx \$1 \$2-pan \$2-pan-r 0;
#X obj 348 -23 hsl 13 11 -0.5 0.5 0 0 \$2-pan \$2-pan-r empty -2 -6
0 8 -262144 -1 -1 600 1;
#X obj -8 126 netpd-fx \$1 \$2-speed \$2-speed-r 107;
#X obj -8 202 netpd-fx \$1 \$2-pause \$2-pause-r 0;
#N canvas 191 464 163 163 trigger_display_hack 0;
#X obj 12 11 r channel_\$2;
#X obj 12 122 s \$2-retrigger-r;
#X msg 39 97 color 13 13 0;
#X obj 12 33 t b b;
#X obj 12 54 del 20;
#X msg 12 75 color 0 13 0;
#X connect 0 0 3 0;
#X connect 2 0 1 0;
#X connect 3 0 4 0;
#X connect 3 1 2 0;
#X connect 4 0 5 0;
#X connect 5 0 1 0;
#X restore 248 54 pd trigger_display_hack;
#N canvas 777 141 483 645 lock_in_and_out 0;
#X obj 20 43 r netpd-receive;
#X text 19 8 unfinished lock function;
#X obj 241 182 -;
#X obj 78 188 spigot;
#X obj 111 163 == 0;
#X obj 79 96 r \$2-out-local;
#X obj 20 70 route \$2-lock \$2-out \$2-in;
#X obj 126 188 spigot;
#X obj 127 322 +;
#X floatatom 165 356 5 0 0 0 - - -;
#X obj 241 135 sel 1;
#X msg 149 130 set \$1;
#X msg 182 160 315;
#X obj 74 420 s \$2-out;
#X obj 243 114 change;
#X obj 345 173 print sel;
#X floatatom 282 224 5 0 0 0 - - -;
#X obj 22 561 s \$2-out-r;
#X msg 22 503 color 0 12 0;
#X msg 32 529 color 13 0 0;
#X obj 23 469 sel 0 1;
#X obj 5 113 tgl 15 0 empty empty empty 17 7 0 10 -262144 -1 -1 0 1
;
#X connect 0 0 6 0;
#X connect 2 0 8 1;
#X connect 2 0 16 0;
#X connect 4 0 3 1;
#X connect 5 0 3 0;
#X connect 5 0 13 0;
#X connect 6 0 4 0;
#X connect 6 0 7 1;
#X connect 6 0 14 0;
#X connect 6 0 20 0;
#X connect 6 0 21 0;
#X connect 6 1 11 0;
#X connect 6 2 7 0;
#X connect 6 2 2 1;
#X connect 7 0 8 0;
#X connect 8 0 9 0;
#X connect 8 0 13 0;
#X connect 10 0 12 0;
#X connect 10 0 15 0;
#X connect 11 0 12 0;
#X connect 12 0 2 0;
#X connect 14 0 10 0;
#X connect 18 0 17 0;
#X connect 19 0 17 0;
#X connect 20 0 18 0;
#X connect 20 1 19 0;
#X restore 248 74 pd lock_in_and_out;
#X msg -9 35 version 0.0.28;
#X obj -8 107 netpd-fx \$1 \$2-out \$2-out-r 315;
#X obj 25 -23 nbx 4 11 0 6000 0 0 \$2-pause \$2-pause-r empty 0 -8
0 10 -262144 -1 -1 0 256;
#X text -9 11 uses the netpd.org environment;
#N canvas 485 266 119 285 volume_color 0;
#X obj 5 5 r \$2-volume;
#X obj 5 262 s \$2-volume-r;
#X obj 14 125 t b f;
#X obj 5 148 +;
#X obj 5 167 t b f;
#X obj 5 104 * -256;
#X obj 48 104 * -1;
#X obj 5 224 - 1;
#X msg 5 243 color \$1 22 22;
#X msg 5 186 -1.67117e+07;
#X obj 5 205 + 1;
#X obj 5 59 * -2;
#X obj 5 40 - 115;
#X connect 0 0 12 0;
#X connect 2 0 3 0;
#X connect 2 1 3 1;
#X connect 3 0 4 0;
#X connect 4 0 9 0;
#X connect 4 1 10 1;
#X connect 5 0 3 0;
#X connect 6 0 2 0;
#X connect 7 0 8 0;
#X connect 8 0 1 0;
#X connect 9 0 10 0;
#X connect 10 0 7 0;
#X connect 11 0 5 0;
#X connect 11 0 6 0;
#X connect 12 0 11 0;
#X restore 248 95 pd volume_color;
#X obj 28 -34 hsl 315 11 315 1 0 0 \$2-speed \$2-speed-r empty -2 -6
0 8 -262144 -1 -1 20800 1;
#X text 26 -37 x0.1;
#X text -9 -38 speed;
#N canvas 616 240 219 234 show_sample 0;
#X obj 6 -106 r netpd-receive;
#X obj 6 86 soundfiler;
#X obj 6 -29 t b b a b;
#X obj 6 47 pack s s s s;
#X msg 28 9 symbol -resize;
#X msg 6 28 symbol read;
#X obj 6 67 list trim;
#X obj 6 -68 symbol;
#X obj 6 -49 makefilename ../files/%s.aiff;
#X obj 6 -87 route \$2-file;
#X obj 75 -10 symbol \$2-smp_display;
#X connect 0 0 9 0;
#X connect 2 0 5 0;
#X connect 2 1 4 0;
#X connect 2 2 3 2;
#X connect 2 3 10 0;
#X connect 3 0 6 0;
#X connect 4 0 3 1;
#X connect 5 0 3 0;
#X connect 6 0 1 0;
#X connect 7 0 8 0;
#X connect 8 0 2 0;
#X connect 9 0 7 0;
#X connect 10 0 3 3;
#X restore 247 115 pd show_sample;
#X text 328 -37 x2;
#X text 187 -37 x1;
#X obj 345 -94 vsl 18 68 0 67 0 0 \$2-volume \$2-volume-r empty 0 -9
0 10 -260784 -1 -1 0 1;
#X text 9 -79 IN;
#X text 4 -67 OUT;
#X obj 25 -65 cnv 10 100 10 empty empty empty 20 12 0 14 -262144 -66577
0;
#X obj 25 -52 cnv 15 320 18 empty empty empty 20 12 0 14 -183353 -66577
0;
#N canvas 0 22 450 300 (subpatch) 0;
#X array \$2-smp_display 32360 float 2;
#X coords 0 0.8 32360 -0.8 320 18 1;
#X restore 25 -52 graph;
#X obj 28 -74 hsl 315 11 1 315 0 0 \$2-in \$2-in-r empty -2 -6 0 8
-262144 -1 -1 0 1;
#X obj 28 -63 hsl 315 11 1 315 0 0 \$2-out-local \$2-out-r empty -2
-6 0 8 -262144 -33289 -262144 31400 1;
#N canvas 676 481 187 290 keys 0;
#X obj 11 7 keyname;
#X obj 56 124 spigot 0;
#X obj 12 258 bng 15 250 50 0 empty empty empty 17 7 0 10 -262144 -1
-1;
#X msg 82 101 0;
#X msg 114 101 1;
#X msg 51 27 set \$1;
#X msg 11 53 ??;
#X obj 11 27 sel 1;
#X obj 56 155 symbol;
#X obj 12 124 symbol;
#X obj 12 189 sel k;
#X obj 11 81 t b a a;
#X obj 114 7 r \$0-key;
#X msg 56 190 label \$1;
#X obj 56 209 s \$0-keyname-r;
#X obj 46 257 s channel_\$2;
#X connect 0 0 7 0;
#X connect 0 1 5 0;
#X connect 1 0 8 0;
#X connect 3 0 1 1;
#X connect 4 0 1 1;
#X connect 5 0 6 0;
#X connect 6 0 11 0;
#X connect 7 0 6 0;
#X connect 8 0 10 1;
#X connect 8 0 13 0;
#X connect 9 0 10 0;
#X connect 10 0 2 0;
#X connect 10 0 15 0;
#X connect 11 0 3 0;
#X connect 11 1 9 0;
#X connect 11 2 1 0;
#X connect 12 0 4 0;
#X connect 13 0 14 0;
#X restore 248 135 pd keys;
#X obj 246 -85 bng 11 250 50 0 \$0-key \$0-key-r empty 0 -6 0 8 -262144
-258699 -262144;
#X obj 258 -85 cnv 10 40 10 empty \$0-keyname-r 4 3 5 0 10 -224695
-66577 0;
#X text 182 -89 keybinding;
#X coords 0 -1 1 1 375 89 1 -10 -98;
