#N canvas 669 42 632 575 10;
#X msg 399 178 open \$1;
#X obj 177 310 int;
#X obj 177 249 / 1;
#X obj 177 270 * 1;
#X obj 361 329 line;
#X obj 13 48 translateXYZ 0 0 0.\$1;
#X obj 363 80 / 70;
#X msg 361 309 0 16;
#X obj 329 258 t b b;
#X obj 329 281 f;
#X obj 361 281 del 50;
#X obj 177 201 t f b;
#X msg 410 281 set 0 \$1;
#X obj 411 259 r ENVSIZE;
#N canvas 851 280 192 241 transparency 0;
#X obj 12 202 outlet;
#X obj 87 9 inlet pan;
#X obj 12 11 inlet alpha;
#X obj 13 139 *;
#X obj 40 110 t b f;
#X obj 91 136 *;
#X obj 107 113 t b f;
#X obj 12 181 pack f f;
#X obj 86 30 expr $f1 + 0.5 \; 1 - ($f1 + 0.5);
#X obj 13 48 t f f;
#X connect 1 0 8 0;
#X connect 2 0 9 0;
#X connect 3 0 7 0;
#X connect 4 0 3 0;
#X connect 4 1 3 1;
#X connect 5 0 7 1;
#X connect 6 0 5 0;
#X connect 6 1 5 1;
#X connect 7 0 0 0;
#X connect 8 0 4 0;
#X connect 8 1 6 0;
#X connect 9 0 3 0;
#X connect 9 1 5 0;
#X restore 329 358 pd transparency;
#X obj 12 135 t a b;
#X obj 12 103 spigot 1;
#X obj 13 8 gemhead;
#X obj 177 159 f;
#X obj 177 180 change;
#X obj 319 32 route file volume pan mute;
#X obj 399 157 makefilename clips/%s.mov;
#X obj 452 53 == 0;
#X obj 12 429 vs-opengl;
#X obj 81 9 inlet frame;
#X obj 319 9 inlet control;
#X obj 319 54 symbol;
#X obj 319 116 sel --none--;
#X obj 399 137 t a a;
#X obj 229 9 gemhead;
#X obj 12 351 pix_buffer_read \$1-cache;
#X obj 230 248 unpack f f f;
#X obj 230 205 pix_buffer_filmopen \$1-cache;
#X floatatom 12 496 5 0 0 0 - - -;
#X msg 12 455 bang;
#X obj 177 290 + 0.5;
#X obj 177 329 max 0;
#X obj 11 475 pix_buffer \$1-cache 600;
#X connect 0 0 32 0;
#X connect 1 0 36 0;
#X connect 2 0 3 0;
#X connect 3 0 35 0;
#X connect 4 0 14 0;
#X connect 5 0 16 0;
#X connect 6 0 9 1;
#X connect 7 0 4 0;
#X connect 8 0 9 0;
#X connect 8 1 10 0;
#X connect 9 0 14 0;
#X connect 10 0 7 0;
#X connect 11 0 2 0;
#X connect 11 1 8 0;
#X connect 12 0 7 0;
#X connect 13 0 12 0;
#X connect 14 0 23 1;
#X connect 15 0 30 0;
#X connect 15 1 18 0;
#X connect 16 0 15 0;
#X connect 17 0 5 0;
#X connect 18 0 19 0;
#X connect 19 0 11 0;
#X connect 20 0 26 0;
#X connect 20 1 6 0;
#X connect 20 2 14 1;
#X connect 20 3 22 0;
#X connect 21 0 0 0;
#X connect 22 0 16 1;
#X connect 24 0 18 1;
#X connect 25 0 20 0;
#X connect 26 0 27 0;
#X connect 27 1 28 0;
#X connect 28 0 21 0;
#X connect 28 1 27 1;
#X connect 29 0 32 0;
#X connect 30 0 23 0;
#X connect 31 0 3 1;
#X connect 31 1 23 2;
#X connect 31 2 23 3;
#X connect 32 0 31 0;
#X connect 34 0 37 0;
#X connect 35 0 1 0;
#X connect 36 0 30 1;
#X connect 37 0 33 0;
