#N canvas 0 26 779 493 16;
#N canvas 0 0 450 300 (subpatch) 0;
#X array seq 5 float 3;
#A 0 60 52 67 48 56;
#X coords 0 72 5 48 200 140 1;
#X restore 100 75 graph;
#X obj 345 142 tabread seq;
#X floatatom 391 214 5 0 0 0 - - -;
#X floatatom 377 67 5 0 0 0 - - -;
#X obj 264 308 dac~;
#X obj 263 251 osc~;
#X obj 401 270 mtof;
#X obj 32 31 dsp;
#X obj 33 13 tgl 15 0 empty empty empty 17 7 0 10 -262144 -1 -1 0 1
;
#X obj 537 18 metro 250;
#X obj 506 5 tgl 15 0 empty empty empty 17 7 0 10 -262144 -1 -1 0 1
;
#X obj 533 75 counter 4;
#X obj 56 303 pack f f;
#X obj 97 274 bng 15 250 50 0 empty empty empty 17 7 0 10 -262144 -1
-1;
#X floatatom 49 238 5 0 0 0 - - -;
#X floatatom 117 245 5 0 0 0 - - -;
#X obj 665 104 random 12;
#X obj 552 135 + 48;
#X obj 552 100 random 24;
#X obj 546 194 + 4;
#X obj 416 495 textfile;
#X msg 700 352 print;
#X msg 698 325 rewind;
#X msg 700 379 bang;
#X msg 699 405 clear;
#X msg 249 362 read /home/glerm/hacklab/x.txt;
#X msg 249 390 write /home/glerm/hacklab/x.txt;
#X msg 548 472 set eu no lugar;
#X obj 102 407 tabdump seq;
#X obj 93 384 bng 15 250 50 0 empty empty empty 17 7 0 10 -262144 -1
-1;
#X obj 96 436 prepend add;
#X msg 6 338 \; seq 0 60 \$1 67 48 \$2;
#X msg 272 566 60 52 67 48 56;
#X text 545 647 ______________;
#X obj 404 530 prepend set;
#X obj 540 530 bng 15 250 50 0 empty empty empty 17 7 0 10 -262144
-1 -1;
#X obj 205 42 bng 15 250 50 0 preset empty preset 17 7 0 10 -262144
-1 -1;
#X obj 609 293 r preset;
#X obj 450 611 s seq;
#X obj 457 571 prepend 0;
#X obj 489 64 bng 15 250 50 0 empty empty empty 17 7 0 10 -262144 -1
-1;
#X obj 382 97 sel 4;
#X connect 1 0 2 0;
#X connect 2 0 6 0;
#X connect 3 0 1 0;
#X connect 3 0 41 0;
#X connect 5 0 4 0;
#X connect 5 0 4 1;
#X connect 6 0 5 0;
#X connect 8 0 7 0;
#X connect 9 0 11 0;
#X connect 9 0 18 0;
#X connect 9 0 36 0;
#X connect 10 0 9 0;
#X connect 11 0 3 0;
#X connect 12 0 31 0;
#X connect 13 0 12 0;
#X connect 14 0 12 0;
#X connect 15 0 12 1;
#X connect 15 0 13 0;
#X connect 17 0 14 0;
#X connect 17 0 19 0;
#X connect 18 0 17 0;
#X connect 19 0 15 0;
#X connect 20 0 34 0;
#X connect 20 0 39 0;
#X connect 20 1 35 0;
#X connect 20 1 22 0;
#X connect 21 0 20 0;
#X connect 22 0 20 0;
#X connect 23 0 20 0;
#X connect 24 0 20 0;
#X connect 25 0 20 0;
#X connect 26 0 20 0;
#X connect 27 0 20 0;
#X connect 28 0 30 0;
#X connect 29 0 28 0;
#X connect 30 0 20 0;
#X connect 34 0 32 0;
#X connect 37 0 23 0;
#X connect 39 0 38 0;
#X connect 40 0 11 0;
#X connect 41 0 36 0;
