#N canvas 0 26 779 472 36;
#X obj 110 477 fluid~;
#X obj 109 535 ezdac~;
#X floatatom 38 157 5 0 0 0 - - -;
#X msg 255 542 load \$1;
#X obj 258 488 openpanel;
#X obj 260 468 bng 15 250 50 0 empty empty empty 17 7 0 10 -262144
-1 -1;
#X msg 16 396 \$3 \$1 \$2;
#X obj 16 335 pack 0 0 1;
#X msg 423 393 \$3 \$1 \$2;
#X floatatom 426 182 5 0 0 0 - - -;
#X floatatom 844 160 5 0 0 0 - - -;
#X msg 784 392 \$3 \$1 \$2;
#X obj 422 332 pack 0 0 2;
#X obj 841 308 pack 0 0 3;
#X floatatom 584 444 5 0 0 0 - - -;
#X obj 16 244 makenote 127 1000;
#X obj 423 241 makenote 127 500;
#X floatatom 753 449 5 0 0 0 - - -;
#X msg 715 505 p 3 \$1;
#X obj 841 219 makenote 127 500;
#X obj 40 -67 r p1;
#X obj 281 -65 r p2;
#X obj 561 -59 r p3;
#N canvas 0 26 779 493 logica_harmonia 0;
#X obj 144 297 s p2;
#X obj 43 294 s p1;
#X obj 245 297 s p3;
#X floatatom 31 201 5 0 0 0 - - -;
#X obj 190 -213 list-dripslow;
#X floatatom 673 -148 5 0 0 0 - - -;
#X obj 553 -168 % 12;
#X floatatom 155 203 5 0 0 0 - - -;
#X msg 500 -242 60 96 48;
#X obj 133 -122 metro 250;
#X obj 136 -148 tgl 15 0 empty empty empty 17 7 0 10 -262144 -1 -1
0 1;
#X floatatom 65 -14 5 0 0 0 - - -;
#X floatatom 297 208 5 0 0 0 - - -;
#X obj 536 251 prepend set;
#X msg 588 194 3 5 0;
#X msg 590 139 0 5 7;
#X msg 52 -71 0;
#X floatatom 113 71 5 0 0 0 - - -;
#X obj 241 -5 unpack f f f;
#X floatatom 250 80 5 0 0 0 - - -;
#X floatatom 380 81 5 0 0 0 - - -;
#X obj 305 144 +;
#X obj 201 130 +;
#X obj 58 132 +;
#X msg 564 45 60 96 48;
#X msg 197 -58 69 78 49;
#X msg 570 104 60 66 96;
#X msg 550 -57 66 69 73;
#X msg 553 -111 66 81 73;
#X msg 561 -5 66 69 73;
#X obj 430 194 - 24;
#X floatatom 438 257 5 0 0 0 - - -;
#X floatatom 429 135 5 0 0 0 - - -;
#X msg 365 -129 66 73 45;
#X msg 341 -179 69 78 49;
#X connect 3 0 1 0;
#X connect 4 1 8 0;
#X connect 5 0 6 0;
#X connect 7 0 0 0;
#X connect 8 0 4 1;
#X connect 9 0 4 0;
#X connect 9 0 16 0;
#X connect 9 0 18 0;
#X connect 10 0 9 0;
#X connect 11 0 21 0;
#X connect 11 0 22 0;
#X connect 11 0 23 0;
#X connect 12 0 2 0;
#X connect 13 0 25 0;
#X connect 14 0 13 0;
#X connect 15 0 13 0;
#X connect 16 0 11 0;
#X connect 17 0 23 1;
#X connect 18 0 17 0;
#X connect 18 1 19 0;
#X connect 18 2 20 0;
#X connect 19 0 22 1;
#X connect 20 0 21 1;
#X connect 21 0 12 0;
#X connect 22 0 7 0;
#X connect 23 0 3 0;
#X connect 24 0 13 0;
#X connect 25 0 18 0;
#X connect 26 0 13 0;
#X connect 27 0 13 0;
#X connect 28 0 13 0;
#X connect 30 0 31 0;
#X connect 32 0 30 0;
#X connect 33 0 13 0;
#X connect 34 0 13 0;
#X restore 98 -172 pd logica_harmonia;
#X obj 81 0 pitch;
#X symbolatom 102 60 10 0 0 0 - - -;
#X obj 322 8 pitch;
#X symbolatom 343 68 10 0 0 0 - - -;
#X obj 582 13 pitch;
#X symbolatom 603 73 10 0 0 0 - - -;
#X msg 546 501 p 2 \$1;
#X text 642 394 8;
#X text 869 457 32;
#X connect 0 0 1 0;
#X connect 0 1 1 1;
#X connect 2 0 15 0;
#X connect 3 0 0 0;
#X connect 4 0 3 0;
#X connect 5 0 4 0;
#X connect 6 0 0 0;
#X connect 7 0 6 0;
#X connect 8 0 0 0;
#X connect 9 0 16 0;
#X connect 10 0 19 0;
#X connect 11 0 0 0;
#X connect 12 0 8 0;
#X connect 13 0 11 0;
#X connect 14 0 30 0;
#X connect 15 0 7 0;
#X connect 15 1 7 1;
#X connect 16 0 12 0;
#X connect 16 1 12 1;
#X connect 17 0 18 0;
#X connect 18 0 0 0;
#X connect 19 0 13 0;
#X connect 19 1 13 1;
#X connect 20 0 2 0;
#X connect 20 0 24 0;
#X connect 21 0 26 0;
#X connect 21 0 9 0;
#X connect 22 0 28 0;
#X connect 22 0 10 0;
#X connect 24 1 25 0;
#X connect 26 1 27 0;
#X connect 28 1 29 0;
#X connect 30 0 0 0;
