#N canvas 0 26 800 472 10;
#X obj 213 137 syn-xfm;
#X obj 217 289 dac~;
#X floatatom 212 112 5 0 0 0 - - -;
#X obj 218 89 mtof;
#X obj 27 -13 mimosa-piano;
#X msg 332 98 1 \$1;
#X floatatom 448 101 5 0 0 0 - - -;
#X floatatom 86 -50 5 0 0 0 - - -;
#X msg 283 -71 44 60 65 37 53;
#X obj 196 -47 list-dripslow;
#X obj 198 -72 metro 250;
#X obj 189 -92 tgl 15 0 empty empty empty 17 7 0 10 -262144 -1 -1 0
1;
#X obj 376 -63 prepend set;
#X msg 467 -80 48 60 32;
#X msg 474 -57 48 60 66 32 54;
#X msg 469 -101 48 60 65 32 53;
#X msg 572 -77 44 60 65 37 53;
#X msg 573 -96 48 67 65 32 72;
#X floatatom 261 -95 5 0 0 0 - - -;
#X obj 286 81 autoscale 0 1;
#X obj 565 188 dsp;
#X obj 563 167 tgl 15 0 empty empty empty 17 7 0 10 -262144 -1 -1 0
1;
#X connect 0 0 1 0;
#X connect 0 0 1 1;
#X connect 2 0 0 0;
#X connect 2 0 19 0;
#X connect 3 0 2 0;
#X connect 4 0 3 0;
#X connect 5 0 0 1;
#X connect 6 0 5 0;
#X connect 7 0 4 0;
#X connect 8 0 9 1;
#X connect 9 0 7 0;
#X connect 9 1 8 0;
#X connect 10 0 9 0;
#X connect 11 0 10 0;
#X connect 12 0 8 0;
#X connect 13 0 12 0;
#X connect 14 0 12 0;
#X connect 15 0 12 0;
#X connect 16 0 12 0;
#X connect 17 0 12 0;
#X connect 18 0 10 1;
#X connect 19 0 6 0;
#X connect 21 0 20 0;
