#N canvas 0 26 779 493 36;
#X obj 29 -44 table \$0-x;
#X obj 279 226 soundfiler;
#X obj 155 54 openpanel;
#X obj 390 0 i \$0;
#X obj 369 53 makefilename %d-x;
#X obj 411 -107 inlet;
#X obj 366 -54 t b b;
#X obj 311 111 pack s s;
#X msg 231 163 read -resize \$1 \$2;
#X obj 56 231 inlet;
#X obj 55 356 outlet~;
#X obj 56 295 tabplay~ \$0-x;
#X connect 2 0 7 0;
#X connect 3 0 4 0;
#X connect 4 0 7 1;
#X connect 5 0 6 0;
#X connect 6 0 2 0;
#X connect 6 1 3 0;
#X connect 7 0 8 0;
#X connect 8 0 1 0;
#X connect 9 0 11 0;
#X connect 11 0 10 0;
