#N canvas 0 26 1024 640 24;
#X obj 58 23 table x;
#N canvas 0 0 450 300 (subpatch) 0;
#X array y 7 float 3;
#A 0 -5 0 12 9 7 0 -7;
#X coords 0 -12 7 12 200 140 1;
#X restore 316 128 graph;
#X obj 170 186 tabwrite y;
#X obj 256 36 vradio 15 1 0 8 empty empty empty 0 -8 0 10 -262144 -1
-1 3;
#X floatatom 183 72 5 0 0 0 - - -;
#X obj 342 63 cnv 15 100 60 empty tela empty 20 12 0 14 -241291 -262144
0;
#X obj 644 127 s tela;
#X msg 652 75 color \$1;
#X floatatom 650 34 5 0 0 0 - - -;
#X msg 481 419 \; tela color \$1;
#X floatatom 535 379 5 0 0 0 - - -;
#X msg 449 39 \; pd dsp \$1;
#X obj 384 38 tgl 15 0 empty onoff empty 17 7 0 10 -262144 -1 -1 0
1;
#X obj 359 436 dac~;
#X obj 358 390 osc~ 440;
#X obj 94 255 tabread y;
#X obj 345 286 mtof;
#X floatatom 367 340 5 0 0 0 - - -;
#X floatatom 81 220 5 0 0 0 - - -;
#X floatatom 93 306 5 0 0 0 - - -;
#X obj 452 288 pitch;
#X symbolatom 547 328 10 0 0 0 - - -;
#X obj 32 142 counter 7;
#X obj 32 93 metro 250;
#X obj 33 74 tgl 15 0 onoff empty empty 17 7 0 10 -262144 -1 -1 0 1
;
#N canvas 0 26 800 472 salvar 0;
#X obj 28 229 textfile;
#X msg 86 99 rewind;
#X msg 192 355 bang;
#X msg 98 176 clear;
#X msg 69 53 print;
#X obj 59 8 prepend;
#X floatatom 392 79 5 0 0 0 - - -;
#X symbolatom 460 111 10 0 0 0 - - -;
#X msg 481 231;
#X msg 575 193 set;
#X obj 397 159 prepend add2;
#X msg 198 40 add 1 3 cachassa 4 quentao;
#X msg 214 96 add2 pinhao;
#X msg 224 140 add semente;
#X obj 560 288 prepend set;
#X msg 560 340 -5 0 3 4 7 0 -7;
#X obj 215 246 bng 15 250 50 0 empty empty empty 17 7 0 10 -262144
-1 -1;
#X obj 336 298 tabdump y;
#X obj 336 268 bng 15 250 50 0 empty salvar empty 17 7 0 10 -262144
-1 -1;
#X obj 336 344 prepend set;
#X msg 336 396 -5 0 3 4 7 0 -7;
#X obj 258 197 prepend add;
#X msg 201 -5 write /home/glerm/hacklab/sequence.mimosa;
#X msg 195 -42 read /home/glerm/hacklab/sequence.mimosa;
#X obj 36 331 s y;
#X obj 32 283 prepend 0;
#X obj 198 305 r load;
#X connect 0 0 14 0;
#X connect 0 0 25 0;
#X connect 0 1 16 0;
#X connect 0 1 1 0;
#X connect 1 0 0 0;
#X connect 2 0 0 0;
#X connect 3 0 0 0;
#X connect 4 0 0 0;
#X connect 6 0 10 0;
#X connect 7 0 10 0;
#X connect 9 0 8 0;
#X connect 10 0 8 0;
#X connect 11 0 0 0;
#X connect 12 0 0 0;
#X connect 13 0 0 0;
#X connect 14 0 15 0;
#X connect 17 0 19 0;
#X connect 17 0 21 0;
#X connect 18 0 17 0;
#X connect 19 0 20 0;
#X connect 21 0 0 0;
#X connect 22 0 0 0;
#X connect 23 0 0 0;
#X connect 25 0 24 0;
#X connect 26 0 2 0;
#X restore 609 3 pd salvar;
#X obj 532 186 bng 30 250 50 0 salvar empty salvar 0 -13 0 30 -262144
-260097 -258113;
#X obj 534 249 bng 30 250 50 0 load empty load 0 -13 0 30 -262144 -260097
-159808;
#X obj 771 388 soundfiler;
#X msg 1610 109;
#X obj 838 236 openpanel;
#X obj 830 199 bng 15 250 50 0 empty empty empty 17 7 0 10 -262144
-1 -1;
#X symbolatom 754 34 50 0 0 0 - - -;
#X msg 832 298 read -resize \$1 x;
#X msg 37 349 \; y 0 -5 0 3 4 7 0 -7;
#X obj 242 302 + 72;
#X connect 3 0 2 1;
#X connect 4 0 2 0;
#X connect 7 0 6 0;
#X connect 8 0 7 0;
#X connect 10 0 9 0;
#X connect 12 0 11 0;
#X connect 14 0 13 0;
#X connect 14 0 13 1;
#X connect 15 0 19 0;
#X connect 15 0 35 0;
#X connect 16 0 17 0;
#X connect 17 0 14 0;
#X connect 18 0 15 0;
#X connect 20 1 21 0;
#X connect 22 0 18 0;
#X connect 23 0 22 0;
#X connect 24 0 23 0;
#X connect 30 0 33 0;
#X connect 30 0 32 0;
#X connect 31 0 30 0;
#X connect 33 0 28 0;
#X connect 35 0 16 0;
#X connect 35 0 20 0;
