#N canvas 142 230 844 476 10;
#X obj -80 -45 hsl 128 15 0 127 0 0 empty empty empty -2 -8 0 10 -239581
-1 -1 0 1;
#X msg -6 -7 clear;
#X obj 52 -30 bng 15 250 50 0 empty empty empty 17 7 0 10 -262144 -1
-1;
#X msg -7 13 tempo 1;
#X msg -7 33 tempo 2;
#X msg -6 53 tempo 0.5;
#X obj -79 127 hsl 128 15 0 127 0 0 empty empty empty -2 -8 0 10 -239581
-1 -1 0 1;
#X msg -6 75 write qflux.txt;
#X msg -5 96 read qflux.txt;
#X obj 105 -39 hsl 128 15 0 1 0 0 empty empty empty -2 -8 0 10 -232157
-1 -1 0 1;
#X obj 304 7 bng 20 250 50 0 empty empty play_flux 22 7 0 10 -262144
-1 -1;
#X msg 233 47 tempo 1;
#X msg 233 67 tempo 2;
#X msg 234 87 tempo 0.5;
#X obj 105 151 hsl 128 15 0 1 0 0 empty empty empty -2 -8 0 10 -232157
-1 -1 10400 1;
#X obj 102 9 qflux anyname;
#X msg 234 109 write qflux2.txt;
#X msg 235 130 read qflux2.txt;
#X msg 236 -40 clear;
#X text 274 -41 before start;
#X obj 417 67 osc~;
#X msg 395 208 \; pd dsp \$1;
#X obj 396 189 tgl 15 0 empty empty empty 17 7 0 10 -262144 -1 -1 1
1;
#X obj 102 172 s qfluxexample;
#X obj 420 -23 hsl 128 15 0 1 0 0 empty empty empty -2 -8 0 10 -232157
-1 -1 10400 1;
#X obj 110 -21 s qfluxexample;
#X obj 420 17 mtof;
#X obj 417 -4 * 127;
#X obj 417 -45 r qfluxexample;
#X obj -82 -15 qflux id1;
#X msg 303 29 loop 1;
#X msg 304 48 loop 0;
#X obj 451 95 osc~;
#X obj 574 -20 metro 100;
#X obj 459 54 f;
#X obj 571 -45 tgl 15 0 empty empty empty 17 7 0 10 -262144 -1 -1 1
1;
#X obj 459 74 / 2;
#X floatatom 626 -43 5 0 0 0 - - -;
#X obj 592 1 tgl 15 0 empty empty empty 17 7 0 10 -262144 -1 -1 1 1
;
#X floatatom 647 3 5 0 0 0 - - -;
#X obj 595 25 metro 200;
#X obj 565 107 unison4;
#X obj 572 78 i;
#X obj 532 27 - 36;
#X obj 630 183 unison4;
#X obj 619 50 tgl 15 0 empty empty empty 17 7 0 10 -262144 -1 -1 1
1;
#X obj 649 157 i;
#X obj 649 122 - 24;
#X obj 621 74 metro 350;
#X floatatom 673 52 5 0 0 0 - - -;
#X floatatom 694 170 5 0 0 0 - - -;
#X msg 692 195 1 \$1;
#X obj 463 157 ezdac~;
#X obj 417 42 / 16;
#X connect 0 0 29 0;
#X connect 1 0 29 1;
#X connect 2 0 29 1;
#X connect 3 0 29 1;
#X connect 4 0 29 1;
#X connect 5 0 29 1;
#X connect 7 0 29 1;
#X connect 8 0 29 1;
#X connect 9 0 15 0;
#X connect 9 0 25 0;
#X connect 10 0 15 1;
#X connect 11 0 15 1;
#X connect 12 0 15 1;
#X connect 13 0 15 1;
#X connect 14 0 23 0;
#X connect 15 0 14 0;
#X connect 16 0 15 1;
#X connect 17 0 15 1;
#X connect 18 0 15 1;
#X connect 20 0 52 1;
#X connect 22 0 21 0;
#X connect 24 0 27 0;
#X connect 26 0 34 1;
#X connect 26 0 53 0;
#X connect 27 0 26 0;
#X connect 27 0 43 0;
#X connect 27 0 47 0;
#X connect 28 0 24 0;
#X connect 29 0 6 0;
#X connect 30 0 15 1;
#X connect 31 0 15 1;
#X connect 32 0 52 0;
#X connect 33 0 34 0;
#X connect 34 0 36 0;
#X connect 35 0 33 0;
#X connect 36 0 32 0;
#X connect 37 0 33 1;
#X connect 38 0 40 0;
#X connect 39 0 40 1;
#X connect 40 0 42 0;
#X connect 41 0 52 0;
#X connect 42 0 41 0;
#X connect 42 0 41 2;
#X connect 43 0 42 0;
#X connect 44 0 52 1;
#X connect 45 0 48 0;
#X connect 46 0 44 0;
#X connect 47 0 46 1;
#X connect 48 0 46 0;
#X connect 49 0 48 1;
#X connect 50 0 51 0;
#X connect 51 0 44 4;
#X connect 53 0 20 0;
