#N canvas 0 26 779 472 24;
#X obj 94 97 probalizer 200 200 12 100 1 0 84 1 0 2 0 3 45 4 0 5 0
6 24 7 0 8 0 9 46 10 9 11 0;
#X msg 216 53 zero;
#X obj 96 323 - 1;
#X obj 405 395 ezdac~;
#X obj 382 125 pitch;
#X symbolatom 404 170 10 0 0 0 - - -;
#X obj 93 63 bng 15 250 50 0 empty empty empty 17 7 0 10 -262144 -1
-1;
#X obj 92 20 metro 145;
#X obj 55 16 tgl 15 0 empty empty empty 17 7 0 10 -262144 -1 -1 0 1
;
#X floatatom 343 213 5 0 0 0 - - -;
#X floatatom 189 -32 5 0 0 0 - - -;
#X obj 561 93 probalizer 200 200 100 100 1 0 0 1 0 2 0 3 18 4 0 5 0
6 0 7 21 8 88 9 0 10 0 11 10 12 0 13 0 14 0 15 20 16 64 17 0 18 0 19
0 20 21 21 0 22 0 23 18 24 32 25 0 26 27 27 0 28 14 29 0 30 14 31 22
32 1 33 0 34 0 35 0 36 0 37 0 38 0 39 0 40 0 41 0 42 0 43 0 44 0 45
0 46 0 47 0 48 0 49 0 50 0 51 0 52 0 53 0 54 0 55 0 56 0 57 0 58 0
59 0 60 0 61 0 62 0 63 0 64 0 65 0 66 0 67 9 68 0 69 0 70 0 71 0 72
0 73 0 74 0 75 0 76 7 77 0 78 0 79 0 80 0 81 0 82 0 83 0 84 0 85 0
86 0 87 13 88 0 89 0 90 0 91 0 92 0 93 0 94 5 95 0 96 0 97 0 98 0 99
0;
#X msg 512 48 zero;
#X floatatom 559 381 5 0 0 0 - - -;
#X obj 552 339 * 100;
#X obj 94 379 + 36;
#X obj 216 411 * 12;
#X obj 215 376 + 2;
#X floatatom 218 450 5 0 0 0 - - -;
#X floatatom 477 115 5 0 0 0 - - -;
#X obj 367 340 unison;
#X floatatom 453 22 5 0 0 0 - - -;
#X obj 463 298 unison;
#X obj 303 260 moses 48;
#X obj 214 335 random 6;
#X obj 435 236 moses 72;
#X obj 321 -34 serialize 12;
#X obj 640 320 mtof;
#X obj 642 358 syn-xfm;
#X obj 706 317 - 0;
#X msg 714 56 3 \$1;
#X obj 671 -4 snapshot~;
#X obj 645 -47 phasor~ 0.25;
#X obj 567 34 clip 0.2 0.7;
#X obj 71 -55 r rrr;
#X connect 0 0 2 0;
#X connect 1 0 0 0;
#X connect 2 0 15 0;
#X connect 4 0 9 0;
#X connect 4 0 23 0;
#X connect 4 1 5 0;
#X connect 4 4 19 0;
#X connect 6 0 0 0;
#X connect 6 0 11 0;
#X connect 6 0 24 0;
#X connect 6 0 31 0;
#X connect 7 0 6 0;
#X connect 8 0 7 0;
#X connect 10 0 7 1;
#X connect 11 0 14 0;
#X connect 12 0 11 0;
#X connect 13 0 22 3;
#X connect 13 0 20 2;
#X connect 14 0 13 0;
#X connect 15 0 4 0;
#X connect 16 0 15 1;
#X connect 16 0 18 0;
#X connect 17 0 16 0;
#X connect 20 0 3 0;
#X connect 21 0 20 3;
#X connect 22 0 3 1;
#X connect 23 0 20 0;
#X connect 23 0 29 0;
#X connect 23 1 22 0;
#X connect 23 1 25 0;
#X connect 24 0 17 0;
#X connect 25 1 26 0;
#X connect 26 0 22 0;
#X connect 27 0 28 0;
#X connect 28 0 3 1;
#X connect 28 0 3 0;
#X connect 29 0 27 0;
#X connect 30 0 28 1;
#X connect 31 0 33 0;
#X connect 32 0 31 0;
#X connect 33 0 30 0;
#X connect 34 0 6 0;
