#N canvas 0 26 1024 661 10;
#N canvas 0 0 450 300 Yosc~ 0;
#X obj 123 104 canvasindex;
#X obj 124 80 loadbang;
#X obj 108 134 f;
#X obj 54 60 key;
#X obj 54 87 sel 89;
#X obj 237 202 outlet~;
#X obj 109 156 s -Y-;
#X obj 239 174 osc~;
#X obj 239 147 inlet;
#X connect 0 0 2 1;
#X connect 1 0 0 0;
#X connect 2 0 6 0;
#X connect 3 0 4 0;
#X connect 4 0 2 0;
#X connect 7 0 5 0;
#X connect 8 0 7 0;
#X restore 29 168 pd Yosc~;
#N canvas 542 243 450 300 Ydac~ 0;
#X obj 75 129 canvasindex;
#X obj 70 15 r -Y-;
#X obj 202 171 inlet~;
#X obj 75 93 loadbang;
#X obj 60 163 f;
#X obj 27 47 t f b;
#X obj 201 207 dac~;
#X obj 56 248 send \$0-canvas;
#X obj 48 195 pack;
#X msg 56 223 connect \$1 0 \$2 0;
#X connect 0 0 4 1;
#X connect 1 0 5 0;
#X connect 2 0 6 0;
#X connect 2 0 6 1;
#X connect 3 0 0 0;
#X connect 4 0 8 1;
#X connect 5 0 8 0;
#X connect 5 1 4 0;
#X connect 8 0 9 0;
#X connect 9 0 7 0;
#X restore 39 361 pd Ydac~;
#X obj 851 10 namecanvas \$0-canvas;
#X floatatom 31 149 5 0 0 0 - - -;
#X obj 921 72 dsp;
#X obj 924 46 tgl 15 0 empty empty empty 17 7 0 10 -262144 -1 -1 1
1;
#N canvas 0 0 450 300 Yosc~ 0;
#X obj 123 104 canvasindex;
#X obj 124 80 loadbang;
#X obj 108 134 f;
#X obj 54 60 key;
#X obj 54 87 sel 89;
#X obj 237 202 outlet~;
#X obj 109 156 s -Y-;
#X obj 239 174 osc~;
#X obj 239 147 inlet;
#X connect 0 0 2 1;
#X connect 1 0 0 0;
#X connect 2 0 6 0;
#X connect 3 0 4 0;
#X connect 4 0 2 0;
#X connect 7 0 5 0;
#X connect 8 0 7 0;
#X restore 111 169 pd Yosc~;
#X floatatom 113 150 5 0 0 0 - - -;
#N canvas 0 0 450 300 Yosc~ 0;
#X obj 123 104 canvasindex;
#X obj 124 80 loadbang;
#X obj 108 134 f;
#X obj 54 60 key;
#X obj 54 87 sel 89;
#X obj 237 202 outlet~;
#X obj 109 156 s -Y-;
#X obj 239 174 osc~;
#X obj 239 147 inlet;
#X connect 0 0 2 1;
#X connect 1 0 0 0;
#X connect 2 0 6 0;
#X connect 3 0 4 0;
#X connect 4 0 2 0;
#X connect 7 0 5 0;
#X connect 8 0 7 0;
#X restore 198 169 pd Yosc~;
#X floatatom 200 150 5 0 0 0 - - -;
#N canvas 0 0 450 300 Yosc~ 0;
#X obj 123 104 canvasindex;
#X obj 124 80 loadbang;
#X obj 108 134 f;
#X obj 54 60 key;
#X obj 54 87 sel 89;
#X obj 237 202 outlet~;
#X obj 109 156 s -Y-;
#X obj 239 174 osc~;
#X obj 239 147 inlet;
#X connect 0 0 2 1;
#X connect 1 0 0 0;
#X connect 2 0 6 0;
#X connect 3 0 4 0;
#X connect 4 0 2 0;
#X connect 7 0 5 0;
#X connect 8 0 7 0;
#X restore 280 170 pd Yosc~;
#X floatatom 282 151 5 0 0 0 - - -;
#N canvas 0 0 450 300 Yosc~ 0;
#X obj 123 104 canvasindex;
#X obj 124 80 loadbang;
#X obj 108 134 f;
#X obj 54 60 key;
#X obj 54 87 sel 89;
#X obj 237 202 outlet~;
#X obj 109 156 s -Y-;
#X obj 239 174 osc~;
#X obj 239 147 inlet;
#X connect 0 0 2 1;
#X connect 1 0 0 0;
#X connect 2 0 6 0;
#X connect 3 0 4 0;
#X connect 4 0 2 0;
#X connect 7 0 5 0;
#X connect 8 0 7 0;
#X restore 363 173 pd Yosc~;
#X floatatom 365 154 5 0 0 0 - - -;
#N canvas 0 0 450 300 Yosc~ 0;
#X obj 123 104 canvasindex;
#X obj 124 80 loadbang;
#X obj 108 134 f;
#X obj 54 60 key;
#X obj 54 87 sel 89;
#X obj 237 202 outlet~;
#X obj 109 156 s -Y-;
#X obj 239 174 osc~;
#X obj 239 147 inlet;
#X connect 0 0 2 1;
#X connect 1 0 0 0;
#X connect 2 0 6 0;
#X connect 3 0 4 0;
#X connect 4 0 2 0;
#X connect 7 0 5 0;
#X connect 8 0 7 0;
#X restore 445 174 pd Yosc~;
#X floatatom 447 155 5 0 0 0 - - -;
#X floatatom 458 77 5 0 0 0 - - -;
#X obj 450 131 + 110;
#X obj 560 133 line;
#X msg 558 109 0 \$1;
#X obj 580 64 pipe;
#X msg 569 37 250;
#X obj 662 75 prepend set;
#X floatatom 664 47 5 0 0 0 - - -;
#N canvas 0 0 450 300 Yosc~ 0;
#X obj 123 104 canvasindex;
#X obj 124 80 loadbang;
#X obj 108 134 f;
#X obj 54 60 key;
#X obj 54 87 sel 89;
#X obj 237 202 outlet~;
#X obj 109 156 s -Y-;
#X obj 239 174 osc~;
#X obj 239 147 inlet;
#X connect 0 0 2 1;
#X connect 1 0 0 0;
#X connect 2 0 6 0;
#X connect 3 0 4 0;
#X connect 4 0 2 0;
#X connect 7 0 5 0;
#X connect 8 0 7 0;
#X restore 528 173 pd Yosc~;
#X floatatom 525 154 5 0 0 0 - - -;
#X obj 516 132 * 5;
#N canvas 0 0 450 300 Yosc~ 0;
#X obj 123 104 canvasindex;
#X obj 124 80 loadbang;
#X obj 108 134 f;
#X obj 54 60 key;
#X obj 54 87 sel 89;
#X obj 237 202 outlet~;
#X obj 109 156 s -Y-;
#X obj 239 174 osc~;
#X obj 239 147 inlet;
#X connect 0 0 2 1;
#X connect 1 0 0 0;
#X connect 2 0 6 0;
#X connect 3 0 4 0;
#X connect 4 0 2 0;
#X connect 7 0 5 0;
#X connect 8 0 7 0;
#X restore 574 216 pd Yosc~;
#X floatatom 591 190 5 0 0 0 - - -;
#X obj 598 166 * 0.5;
#X obj 166 114 * 2;
#X obj 167 87 mtof;
#X msg 153 52 69;
#X obj 77 117 / 2;
#X obj 164 23 qwerty ----------;
#X msg 243 55 57;
#X msg 278 57 81;
#X msg 184 52 72;
#X msg 595 110 110 \$1;
#X obj 490 39 sel 110;
#X msg 213 51 74;
#X obj 251 112 * 3;
#X obj 326 109 * 6;
#X msg 308 57 76;
#X connect 0 0 1 0;
#X connect 0 0 1 0;
#X connect 0 0 1 0;
#X connect 3 0 0 0;
#X connect 3 0 41 0;
#X connect 3 0 42 0;
#X connect 5 0 4 0;
#X connect 6 0 1 0;
#X connect 7 0 6 0;
#X connect 8 0 1 0;
#X connect 9 0 8 0;
#X connect 10 0 1 0;
#X connect 11 0 10 0;
#X connect 12 0 1 0;
#X connect 13 0 12 0;
#X connect 14 0 1 0;
#X connect 14 0 1 0;
#X connect 14 0 1 0;
#X connect 15 0 14 0;
#X connect 15 0 26 0;
#X connect 15 0 29 0;
#X connect 16 0 17 0;
#X connect 16 0 39 0;
#X connect 17 0 15 0;
#X connect 18 0 16 0;
#X connect 19 0 18 0;
#X connect 20 0 38 0;
#X connect 21 0 19 0;
#X connect 21 0 20 1;
#X connect 21 0 20 0;
#X connect 22 0 21 0;
#X connect 23 0 22 0;
#X connect 24 0 1 0;
#X connect 25 0 24 0;
#X connect 26 0 25 0;
#X connect 27 0 1 0;
#X connect 27 0 1 0;
#X connect 28 0 27 0;
#X connect 29 0 28 0;
#X connect 30 0 9 0;
#X connect 31 0 30 0;
#X connect 31 0 7 0;
#X connect 31 0 33 0;
#X connect 32 0 31 0;
#X connect 33 0 3 0;
#X connect 34 0 32 0;
#X connect 34 1 37 0;
#X connect 34 2 40 0;
#X connect 34 3 35 0;
#X connect 34 4 36 0;
#X connect 34 5 43 0;
#X connect 35 0 31 0;
#X connect 36 0 31 0;
#X connect 37 0 31 0;
#X connect 38 0 18 0;
#X connect 39 0 21 0;
#X connect 40 0 31 0;
#X connect 41 0 11 0;
#X connect 42 0 13 0;
#X connect 43 0 31 0;
